<?xml version="1.0" standalone="no"?>
<!DOCTYPE svg PUBLIC "-//W3C//DTD SVG 1.1//EN" "http://www.w3.org/Graphics/SVG/1.1/DTD/svg11.dtd" >
<!--
2013-9-30: Created.
-->
<svg>
<metadata>
Created by iconfont
</metadata>
<defs>

<font id="iconfont" horiz-adv-x="1024" >
  <font-face
    font-family="iconfont"
    font-weight="500"
    font-stretch="normal"
    units-per-em="1024"
    ascent="896"
    descent="-128"
  />
    <missing-glyph />
    
    <glyph glyph-name="clear" unicode="&#58988;" d="M782.933333 55.46666700000003L512 324.266667 241.066667 55.46666700000003c-17.066667-17.066667-42.666667-17.066667-59.733333 0-17.066667 17.066667-17.066667 42.666667 0 59.733333L452.266667 384 183.466667 654.933333c-17.066667 17.066667-17.066667 42.666667 0 59.733333 17.066667 17.066667 42.666667 17.066667 59.733333 0L512 443.733333 782.933333 712.533333c17.066667 17.066667 42.666667 17.066667 59.733333 0 17.066667-17.066667 17.066667-42.666667 0-59.733333L571.733333 384l270.933333-270.933333c17.066667-17.066667 17.066667-42.666667 0-59.733333C825.6 38.39999999999998 797.866667 38.39999999999998 782.933333 55.46666700000003z"  horiz-adv-x="1024" />

    
    <glyph glyph-name="remove" unicode="&#58886;" d="M972.657609 686.6515919999999C987.158609 686.63161 998.930114 698.428798 998.949999 713.00135 998.969882 727.573903 987.230618 739.40349 972.729617 739.423472L32.457975 740.719194C17.956974 740.739177 6.18547 728.941988 6.165585 714.369436 6.1457 699.796884 17.884965 687.967297 32.385966 687.947314L972.657609 686.6515919999999ZM180.466902-96.35616900000002L180.466902-123.014859 206.993296-122.74073999999996 833.361858-116.26794700000005 859.348284-115.99940700000002 859.348284-89.883377 859.348284 606.602703C859.348284 621.175268 847.59289 632.988668 833.091874 632.988668 818.590859 632.988668 806.835465 621.175268 806.835465 606.602703L806.835465-89.883377 832.82189-63.49880499999995 206.453329-69.97159899999997 232.979723-96.35616900000002 232.979723 613.32995C232.979723 627.902517 221.224329 639.715915 206.723313 639.715915 192.222298 639.715915 180.466902 627.902517 180.466902 613.32995L180.466902-96.35616900000002ZM656.410257 48.920973000000004C656.410257 34.34840699999995 668.165651 22.535007999999948 682.666667 22.535007999999948 697.167682 22.535007999999948 708.923076 34.34840699999995 708.923076 48.920973000000004L708.923076 523.868341C708.923076 538.4409089999999 697.167682 550.254306 682.666667 550.254306 668.165651 550.254306 656.410257 538.4409089999999 656.410257 523.868341L656.410257 48.920973000000004ZM341.333333 48.920973000000004C341.333333 34.34840699999995 353.08873 22.535007999999948 367.589743 22.535007999999948 382.090758 22.535007999999948 393.846155 34.34840699999995 393.846155 48.920973000000004L393.846155 523.868341C393.846155 538.4409089999999 382.090758 550.254306 367.589743 550.254306 353.08873 550.254306 341.333333 538.4409089999999 341.333333 523.868341L341.333333 48.920973000000004ZM498.871795 48.920973000000004C498.871795 34.34840699999995 510.627189 22.535007999999948 525.128205 22.535007999999948 539.62922 22.535007999999948 551.384614 34.34840699999995 551.384614 48.920973000000004L551.384614 523.868341C551.384614 538.4409089999999 539.62922 550.254306 525.128205 550.254306 510.627189 550.254306 498.871795 538.4409089999999 498.871795 523.868341L498.871795 48.920973000000004ZM392.147755 779.278223C392.147755 793.936331 403.758665 805.636493 418.40134 805.636493L622.925796 805.636493C637.408947 805.636493 649.179381 793.8380999999999 649.179381 779.450415L649.179381 724.355125 701.692203 724.355125 701.692203 779.450415C701.692203 823.013393 666.38105 858.408423 622.925796 858.408423L418.40134 858.408423C374.724427 858.408423 339.634933 823.0491959999999 339.634933 779.278223L339.634933 730.689199 392.147755 730.689199 392.147755 779.278223Z"  horiz-adv-x="1024" />

    
    <glyph glyph-name="upload" unicode="&#58913;" d="M522.7-48.799999999999955c-11.5 0-20.9 9.3-20.9 20.9V420.5c0 11.5 9.4 20.9 20.9 20.9 11.6 0 20.9-9.4 20.9-20.9v-448.4c0-11.6-9.4-20.9-20.9-20.9zM394.6 292.79999999999995c-5.3 0-10.7 2-14.8 6.1-8.2 8.2-8.2 21.4 0 29.6l128.1 128.1c8.2 8.2 21.4 8.2 29.6 0l128.1-128.1c8.2-8.2 8.2-21.4 0-29.6s-21.4-8.2-29.6 0L522.7 412.3 409.3 298.9c-4-4-9.4-6.1-14.7-6.1zM808.7 79.29999999999995H705.3c-11.6 0-20.9 9.3-20.9 20.9s9.3 20.9 20.9 20.9h103.4c95.7 0 173.5 77.8 173.5 173.5s-77.8 173.5-173.5 173.5h-58.5l3.7 24.1c2.2 14.3 3.2 26.3 3.2 37.7 0 135.2-110 245.1-245.1 245.1-107.8 0-201.8-69.1-234-171.8l-5.8-18.6-18.9 4.5c-84.1 19.9-158.1-44.5-158.1-125 0-9 1-18.3 3.1-27.6l2.4-11.2-8.1-8.1c-32.8-32.8-50.8-76.3-50.8-122.7 0-95.7 77.8-173.5 173.5-173.5H310c11.5 0 20.9-9.3 20.9-20.9s-9.4-20.9-20.9-20.9h-94.7C96.6 79.29999999999995 0 175.89999999999998 0 294.6c0 53.8 19.6 104.5 55.3 144.1-1.3 8.5-2 17-2 25.4 0 100.7 88 182.1 190.8 169.1C286.7 743.7 392.1 816.8 512 816.8c158.2 0 286.9-128.7 286.9-286.9 0-6.5-0.3-13.1-0.8-20h10.6c118.7 0 215.3-96.6 215.3-215.3 0-118.7-96.6-215.3-215.3-215.3z"  horiz-adv-x="1024" />

    
    <glyph glyph-name="text" unicode="&#59160;" d="M815.5 736v-704c0-17.7-14.3-32-32-32h-543c-17.7 0-32 14.3-32 32V736c0 17.7 14.3 32 32 32h543c17.7 0 32-14.3 32-32z m0 96h-607c-35.3 0-64-28.7-64-64v-768c0-35.3 28.7-64 64-64h607c35.3 0 64 28.7 64 64V768c0 35.3-28.7 64-64 64zM703.5 576h-384c-17.7 0-32 14.3-32 32s14.3 32 32 32h384c17.7 0 32-14.3 32-32s-14.3-32-32-32zM703.5 384h-384c-17.7 0-32 14.3-32 32s14.3 32 32 32h384c17.7 0 32-14.3 32-32s-14.3-32-32-32zM511.5 192h-192c-17.7 0-32 14.3-32 32s14.3 32 32 32h192c17.7 0 32-14.3 32-32s-14.3-32-32-32z"  horiz-adv-x="1024" />

    
    <glyph glyph-name="arrow-left" unicode="&#59013;" d="M384 384L731.733333 693.333333c17.066667 14.933333 19.2 42.666667 4.266667 59.733334-14.933333 17.066667-42.666667 19.2-59.733333 4.266666l-384-341.333333c-10.666667-8.533333-14.933333-19.2-14.933334-32s4.266667-23.466667 14.933334-32l384-341.333333c8.533333-6.4 19.2-10.666667 27.733333-10.666667 12.8 0 23.466667 4.266667 32 14.933333 14.933333 17.066667 14.933333 44.8-4.266667 59.733334L384 384z"  horiz-adv-x="1024" />

    
    <glyph glyph-name="arrow-up" unicode="&#59015;" d="M904.533333 221.866667l-362.666666 362.666666c-17.066667 17.066667-42.666667 17.066667-59.733334 0l-362.666666-362.666666c-17.066667-17.066667-17.066667-42.666667 0-59.733334 17.066667-17.066667 42.666667-17.066667 59.733333 0L512 494.933333l332.8-332.8c8.533333-8.533333 19.2-12.8 29.866667-12.8s21.333333 4.266667 29.866666 12.8c17.066667 17.066667 17.066667 42.666667 0 59.733334z"  horiz-adv-x="1024" />

    
    <glyph glyph-name="arrow-down" unicode="&#59016;" d="M904.533333 584.5333330000001c-17.066667 17.066667-42.666667 17.066667-59.733333 0L512 251.73333300000002 179.2 584.5333330000001c-17.066667 17.066667-42.666667 17.066667-59.733333 0-17.066667-17.066667-17.066667-42.666667 0-59.733333l362.666666-362.666667c8.533333-8.533333 19.2-12.8 29.866667-12.8s21.333333 4.266667 29.866667 12.8l362.666666 362.666667c17.066667 17.066667 17.066667 42.666667 0 59.733333z"  horiz-adv-x="1024" />

    
    <glyph glyph-name="arrow-right" unicode="&#59018;" d="M731.733333 416l-384 341.333333c-17.066667 14.933333-44.8 14.933333-59.733333-4.266666-14.933333-17.066667-14.933333-44.8 4.266667-59.733334L640 384 292.266667 74.66666699999996c-17.066667-14.933333-19.2-42.666667-4.266667-59.733334 8.533333-8.533333 19.2-14.933333 32-14.933333 10.666667 0 19.2 4.266667 27.733333 10.666667l384 341.333333c8.533333 8.533333 14.933333 19.2 14.933334 32s-4.266667 23.466667-14.933334 32z"  horiz-adv-x="1024" />

    
    <glyph glyph-name="open-folder" unicode="&#58888;" d="M1015.456 622.944c-8.544 12.8-21.344 17.056-34.144 17.056h-196.256L627.2 797.856c-8.544 8.544-17.056 12.8-29.856 12.8H42.688C17.088 810.656 0.032 793.6 0.032 768v-768c0-25.6 17.056-42.656 42.656-42.656h810.656c21.344 0 38.4 12.8 42.656 34.144l128 597.344c0 12.8 0 25.6-8.544 34.144z m-930.112 102.4h494.944L665.632 640H170.688c-21.344 0-38.4-12.8-42.656-34.144l-42.656-204.8V725.312zM819.2 42.65599999999995H93.856l110.944 512h725.344l-110.944-512z"  horiz-adv-x="1024" />

    
    <glyph glyph-name="folder" unicode="&#59017;" d="M153.856 741.888H153.6a51.2 51.2 0 0 1-51.2-51.2V76.79999999999995a51.2 51.2 0 0 1 51.2-51.2h716.8a51.2 51.2 0 0 1 51.2 51.2V588.5952a51.2 51.2 0 0 1-51.4048 50.9952l-336.6912-1.3312a102.4 102.4 0 0 0-72.8064 30.0032L403.1488 725.8112a51.2 51.2 0 0 1-35.9424 15.0016l-213.3504 1.024z m0.256 51.2l213.4016-1.0752a102.4 102.4 0 0 0 71.8848-30.0032l57.4976-57.5488a51.2 51.2 0 0 1 36.4544-15.0016l336.64 1.3312A102.4 102.4 0 0 0 972.8 588.8v-512a102.4 102.4 0 0 0-102.4-102.4H153.6a102.4 102.4 0 0 0-102.4 102.4V690.688a102.4 102.4 0 0 0 102.4 102.4h0.512z"  horiz-adv-x="1024" />

    
    <glyph glyph-name="reduce-select" unicode="&#59199;" d="M810.666667 341.33333300000004L213.333333 341.33333300000004l0 85.333333 597.333333 0L810.666667 341.33333300000004z"  horiz-adv-x="1024" />

    
    <glyph glyph-name="users" unicode="&#58911;" d="M767.952003 125.424161v52.7967c70.523592 39.741516 127.992 138.743329 127.992 237.809137C895.944003 575.060059 895.944003 704.011999 703.956003 704.011999S511.968002 575.060059 511.968002 416.029998c0-99.065808 57.468408-198.067621 127.992-237.809137v-52.7967c-217.074433-17.726892-383.976001-124.408224-383.976001-253.360165h895.944003c0 128.951941-166.901569 235.633273-383.976001 253.360165zM327.147553 100.721705c55.292544 36.15774 124.088244 63.612024 199.795513 80.378976a362.665333 362.665333 0 0 0-40.509468 59.004312 366.441097 366.441097 0 0 0-46.461096 175.861009c0 86.010624 0 167.285545 30.590088 233.777389 29.694144 64.507968 83.130804 104.505468 159.222048 119.480533C612.889694 845.699144 567.83651 895.936004 447.972002 895.936004c-191.988001 0-191.988001-128.951941-191.988001-287.982001 0-99.065808 57.468408-198.067621 127.992-237.809137v-52.7967c-217.074433-17.726892-383.976001-124.408224-383.976001-253.360165h278.958565c14.527092 12.927192 30.590088 25.150428 48.188988 36.669708z"  horiz-adv-x="1152" />

    
    <glyph glyph-name="bulb" unicode="&#59161;" d="M511.638673 786.156669c-165.48765 0-299.9012-134.41355-299.901199-299.9012 0-118.515173 70.820042-226.190543 178.495412-273.885674v-107.67537c0-67.206775 54.199012-121.405787 121.405787-121.405787s121.405787 54.199012 121.405787 121.405787V212.36979499999995c107.675371 47.695131 178.495413 155.370501 178.495413 273.885674 0 165.48765-135.136203 299.9012-299.9012 299.9012z m0-752.282287c-26.015526 0-48.417784 13.730416-60.702893 33.964715h120.683133c-12.285109-20.234298-34.687368-33.964714-59.98024-33.964715z m86.718419 218.964009c-10.117149-3.613267-16.62103-13.730416-16.62103-24.570219v-109.843331H440.818631V229.713479c0 10.839802-6.503881 19.511644-16.62103 23.847565-96.835568 36.132675-161.874382 130.077629-161.874383 233.417079 0 137.304164 112.011291 249.315455 249.315455 249.315455s249.315455-112.011291 249.315455-249.315455C760.954128 382.91602 695.192661 288.97106599999995 598.357092 252.838391zM415.525759 494.927311m-27.460833 0a27.460833 27.460833 0 1 1 54.921665 0 27.460833 27.460833 0 1 1-54.921665 0ZM511.638673 494.927311m-27.460832 0a27.460833 27.460833 0 1 1 54.921665 0 27.460833 27.460833 0 1 1-54.921665 0ZM607.751588 494.927311m-27.460833 0a27.460833 27.460833 0 1 1 54.921666 0 27.460833 27.460833 0 1 1-54.921666 0Z"  horiz-adv-x="1024" />

    
    <glyph glyph-name="computer" unicode="&#59162;" d="M603.415667 447.232181m-27.460833 0a27.460833 27.460833 0 1 1 54.921666 0 27.460833 27.460833 0 1 1-54.921666 0ZM507.302752 447.232181m-27.460832 0a27.460833 27.460833 0 1 1 54.921665 0 27.460833 27.460833 0 1 1-54.921665 0ZM411.189838 447.232181m-27.460833 0a27.460833 27.460833 0 1 1 54.921665 0 27.460833 27.460833 0 1 1-54.921665 0ZM846.949894 760.863797H166.932957c-36.855328 0-66.484121-29.628793-66.484121-66.484122v-495.017643c0-36.855328 29.628793-66.484121 66.484121-66.484121h314.35427v-62.1482h-224.022583c-13.730416 0-25.292872-11.562456-25.292873-25.292873s11.562456-25.292872 25.292873-25.292872h499.353563c13.730416 0 25.292872 11.562456 25.292873 25.292872s-11.562456 25.292872-25.292873 25.292873h-224.022582v62.1482h314.354269c36.855328 0 66.484121 29.628793 66.484122 66.484121V694.379675c0 36.855328-29.628793 66.484121-66.484122 66.484122z m15.898377-560.779111c0-8.671842-7.226535-15.898377-15.898377-15.898377H166.932957c-8.671842 0-15.898377 7.226535-15.898377 15.898377V694.379675c0 8.671842 7.226535 15.898377 15.898377 15.898377h680.016937c8.671842 0 15.898377-7.226535 15.898377-15.898377v-494.294989z"  horiz-adv-x="1024" />

    
    <glyph glyph-name="guhua" unicode="&#59163;" d="M564.392378 494.927311m-27.460832 0a27.460833 27.460833 0 1 1 54.921665 0 27.460833 27.460833 0 1 1-54.921665 0ZM660.505293 494.927311m-27.460833 0a27.460833 27.460833 0 1 1 54.921666 0 27.460833 27.460833 0 1 1-54.921666 0ZM756.618207 494.927311m-27.460832 0a27.460833 27.460833 0 1 1 54.921665 0 27.460833 27.460833 0 1 1-54.921665 0ZM813.707833 724.731122H548.494001c-13.730416 0-25.292872-11.562456-25.292872-25.292872s11.562456-25.292872 25.292872-25.292872h265.213832c15.175723 0 27.460833-12.285109 27.460833-27.460833v-583.181369c0-15.175723-12.285109-27.460833-27.460833-27.460833H210.292167c-15.175723 0-27.460833 12.285109-27.460833 27.460833V646.684545c0 8.671842 4.335921 16.62103 11.562456 22.402258 11.562456 7.949188 13.730416 23.847565 5.058574 35.410021-7.949188 11.562456-23.847565 13.730416-35.410021 5.058575-20.234298-14.45307-31.796754-38.300635-31.796754-62.870854v-583.181369c0-43.35921 35.410021-78.046577 78.046578-78.046578h603.415666c43.35921 0 78.046577 35.410021 78.046578 78.046578V646.684545c0 43.35921-34.687368 78.046577-78.046578 78.046577zM351.209598 783.266055c-66.484121 0-111.288638-38.300635-111.288638-95.390261v-523.201129c0-57.089626 44.804517-95.390261 111.288638-95.390261h13.730416c66.484121 0 111.288638 38.300635 111.288638 95.390261V687.875794c0 57.089626-44.804517 95.390261-111.288638 95.390261h-13.730416z m74.43331-95.390261v-523.201129c0-40.468596-41.913903-44.804517-60.702894-44.804517h-13.730416c-18.066337 0-60.702893 4.335921-60.702894 44.804517V687.875794c0 40.468596 41.913903 44.804517 60.702894 44.804517h13.730416c18.066337 0 60.702893-4.335921 60.702894-44.804517z"  horiz-adv-x="1024" />

    
    <glyph glyph-name="transport" unicode="&#59164;" d="M927.887085 268.01411399999995c0 0.722653 0 0.722653 0 0L865.738885 534.6732529999999c-16.62103 70.097389-72.988003 108.398024-117.069866 108.398024h-71.542696c-13.730416 0-25.292872-11.562456-25.292872-25.292872v-267.381792c0-13.730416 11.562456-25.292872 25.292872-25.292873h100.448836c13.730416 0 25.292872 11.562456 25.292872 25.292873s-11.562456 25.292872-25.292872 25.292872H703.141849V592.485533h46.249824c15.898377 0 54.921665-17.343684 67.929428-69.374736l61.425547-265.936485c6.503881-33.964714 1.445307-53.476359-15.898377-59.98024-13.007763-4.335921-20.234298-18.788991-15.898377-31.796754 3.613267-10.839802 13.730416-17.343684 23.847565-17.343684 2.890614 0 5.781228 0.722653 7.949189 1.445307 20.956951 7.949188 66.484121 33.242061 49.140437 118.515173zM161.874382 651.743119h422.752294c13.730416 0 25.292872 11.562456 25.292872 25.292873s-11.562456 25.292872-25.292872 25.292872H161.874382c-45.52717 0-78.769231-29.628793-78.76923-71.542696V223.93225099999995c0-27.460833 14.45307-52.753705 38.300635-67.206775 4.335921-2.16796 8.671842-3.613267 13.007763-3.613267 8.671842 0 16.62103 4.335921 21.679605 12.285109 7.226535 12.285109 3.613267 27.460833-8.671842 34.687368-8.671842 5.058574-13.730416 14.45307-13.730417 23.847565V631.508821c0 18.788991 21.679605 20.234298 28.183486 20.234298zM706.755116 286.08045200000004c-54.921665 0-101.171489-39.023289-112.011291-91.776994h-187.889908c-10.839802 52.031052-57.089626 91.776994-112.011292 91.776994-62.870854 0-114.179252-51.308398-114.179252-114.179252S231.971771 57.721948 294.842625 57.721948c53.476359 0 98.280875 36.855328 110.565985 86.718419h190.780522c12.285109-49.863091 57.089626-86.718419 110.565984-86.718419 62.870854 0 114.179252 51.308398 114.179252 114.179252s-51.308398 114.179252-114.179252 114.179252z m-348.318983-121.405787c-3.613267-31.796754-30.351447-56.366972-63.593508-56.366973-35.410021 0-63.593507 28.90614-63.593507 63.593508s28.90614 63.593507 63.593507 63.593507c33.964714 0 62.1482-26.738179 63.593508-60.702893-0.722653-2.16796-0.722653-3.613267-0.722654-5.781228 0-1.445307 0-2.890614 0.722654-4.335921z m348.318983-56.366973c-35.410021 0-63.593507 28.90614-63.593507 63.593508s28.90614 63.593507 63.593507 63.593507 63.593507-28.90614 63.593508-63.593507-28.183486-63.593507-63.593508-63.593508zM578.845448 382.91602m-27.460833 0a27.460833 27.460833 0 1 1 54.921666 0 27.460833 27.460833 0 1 1-54.921666 0ZM578.845448 479.028934m-27.460833 0a27.460833 27.460833 0 1 1 54.921666 0 27.460833 27.460833 0 1 1-54.921666 0ZM578.845448 575.141849m-27.460833 0a27.460833 27.460833 0 1 1 54.921666 0 27.460833 27.460833 0 1 1-54.921666 0Z"  horiz-adv-x="1024" />

    
    <glyph glyph-name="hongbao" unicode="&#59165;" d="M403.963303 295.474947c-13.730416 0-25.292872-11.562456-25.292873-25.292872s11.562456-25.292872 25.292873-25.292872H491.404375v-67.206775c0-13.730416 11.562456-25.292872 25.292873-25.292873s25.292872 11.562456 25.292872 25.292873v67.206775h87.441073c13.730416 0 25.292872 11.562456 25.292872 25.292872s-11.562456 25.292872-25.292872 25.292872H541.99012v59.98024h87.441073c13.730416 0 25.292872 11.562456 25.292872 25.292872s-11.562456 25.292872-25.292872 25.292873h-30.351447l15.175723 33.964714c5.781228 13.007763 0 27.460833-13.007763 33.24206-13.007763 5.781228-27.460833 0-33.24206-13.007762l-23.847566-54.199012h-43.359209L476.951306 460.239944c-5.781228 13.007763-20.234298 18.788991-33.242061 13.007762-13.007763-5.781228-18.788991-20.234298-13.007763-33.24206l15.175723-33.964714h-40.468595c-13.730416 0-25.292872-11.562456-25.292873-25.292873s11.562456-25.292872 25.292873-25.292872H491.404375v-59.98024H403.963303zM222.577276 56.999294c0-54.921665 44.804517-99.726182 99.726182-99.726182h389.510233c54.921665 0 99.726182 44.804517 99.726182 99.726182V711.723359c0 54.921665-44.804517 99.726182-99.726182 99.726182H322.303458c-54.921665 0-99.726182-44.804517-99.726182-99.003528l-0.722654-36.855328v-1.445307l0.722654-58.534933v-558.611151z m489.236415 703.864503c4.335921 0 8.671842-0.722653 12.285109-1.445307-13.730416-17.343684-28.90614-32.519407-46.249823-46.249824-10.839802-8.671842-13.007763-24.570219-4.335921-35.410021 5.058574-6.503881 12.285109-9.394495 20.234298-9.394495 5.781228 0 10.839802 1.445307 15.898376 5.781228 18.788991 14.45307 35.410021 31.0741 50.585745 49.140437 0.722653-3.613267 1.445307-7.226535 1.445307-10.839802V57.721948c0-26.738179-21.679605-49.140438-49.140438-49.140438h-390.232886c-26.738179 0-49.140438 21.679605-49.140438 49.140438V617.055752l-0.722653 58.534933 0.722653 31.0741c10.839802-11.562456 23.124912-22.402258 35.410022-32.519407 4.335921-3.613267 10.117149-5.781228 15.898376-5.781228 7.226535 0 15.175723 3.613267 20.234298 9.394495 8.671842 10.839802 6.503881 26.738179-4.335921 35.410021-15.175723 12.285109-29.628793 26.015526-41.913902 41.191249 7.226535 4.335921 15.898377 6.503881 24.570219 6.503882h388.787579zM420.584333 637.290049m-27.460833 0a27.460833 27.460833 0 1 1 54.921666 0 27.460833 27.460833 0 1 1-54.921666 0ZM516.697248 619.223712m-27.460833 0a27.460833 27.460833 0 1 1 54.921665 0 27.460833 27.460833 0 1 1-54.921665 0ZM612.810162 637.290049m-27.460832 0a27.460833 27.460833 0 1 1 54.921665 0 27.460833 27.460833 0 1 1-54.921665 0Z"  horiz-adv-x="1024" />

    
    <glyph glyph-name="huangguan" unicode="&#59166;" d="M899.703599 627.1729c-9.394495 4.335921-20.234298 2.16796-27.460833-5.058574L709.64573 466.743825 531.872971 720.395201c-5.058574 6.503881-12.285109 10.839802-20.956951 10.839803-7.949188 0-15.898377-4.335921-20.956952-10.839803L314.35427 468.911785 161.874382 621.391673c-7.226535 7.226535-18.066337 9.394495-27.460832 5.781227-9.394495-3.613267-15.898377-13.007763-15.898377-23.124911v-541.99012c0-13.730416 11.562456-25.292872 25.292872-25.292873h746.501059c13.730416 0 25.292872 11.562456 25.292872 25.292873v541.99012c-0.722653 10.117149-6.503881 18.788991-15.898377 23.124911z m-35.410021-539.822159H169.100917V229.713479h695.915314v-142.362738z m0 192.948483H169.100917V542.622442L299.9012 411.822159c5.058574-5.058574 12.285109-7.949188 20.234298-7.226534 7.226535 0.722653 14.45307 4.335921 18.78899 10.839802l172.714185 247.147495 174.159492-247.870149c4.335921-5.781228 10.839802-10.117149 18.066337-10.839802 7.226535-0.722653 14.45307 1.445307 20.234298 7.226535l140.917431 134.41355v-265.213832zM420.584333 148.053634m-27.460833 0a27.460833 27.460833 0 1 1 54.921666 0 27.460833 27.460833 0 1 1-54.921666 0ZM516.697248 148.053634m-27.460833 0a27.460833 27.460833 0 1 1 54.921665 0 27.460833 27.460833 0 1 1-54.921665 0ZM612.810162 148.053634m-27.460832 0a27.460833 27.460833 0 1 1 54.921665 0 27.460833 27.460833 0 1 1-54.921665 0Z"  horiz-adv-x="1024" />

    
    <glyph glyph-name="quan" unicode="&#59167;" d="M923.551164 412.544813c9.394495 3.613267 15.175723 13.007763 15.175724 23.124912v137.304163c0 36.855328-29.628793 66.484121-66.484122 66.484122H154.647848c-36.855328 0-66.484121-29.628793-66.484122-66.484122v-138.74947c0-10.839802 6.503881-20.234298 16.621031-23.847565 13.730416-5.058574 22.402258-17.343684 22.402258-31.796754s-8.671842-26.738179-22.402258-31.796754c-10.117149-3.613267-16.62103-13.007763-16.621031-23.847565v-134.41355c0-36.855328 29.628793-66.484121 66.484122-66.484121h718.317572c36.855328 0 66.484121 29.628793 66.484121 66.484121V326.549047c0 10.117149-5.781228 19.511644-15.175723 23.124912-12.285109 5.058574-20.234298 17.343684-20.234298 31.0741s7.226535 26.015526 19.511644 31.796754z m-35.410021 37.577982c-22.402258-15.898377-36.132675-41.191249-36.132674-69.374736s13.730416-53.476359 36.132674-69.374735V187.799577c0-8.671842-7.226535-15.898377-15.898377-15.898377H154.647848c-8.671842 0-15.898377 7.226535-15.898377 15.898377V307.037403c23.847565 15.175723 39.023289 41.913903 39.023288 71.542696s-15.175723 55.644319-39.023288 71.542696v122.851093c0 8.671842 7.226535 15.898377 15.898377 15.898377h718.317572c8.671842 0 15.898377-7.226535 15.898377-15.898377v-122.851093zM727.712068 476.860974m-27.460833 0a27.460833 27.460833 0 1 1 54.921665 0 27.460833 27.460833 0 1 1-54.921665 0ZM727.712068 380.748059m-27.460833 0a27.460833 27.460833 0 1 1 54.921665 0 27.460833 27.460833 0 1 1-54.921665 0ZM727.712068 284.635145m-27.460833 0a27.460833 27.460833 0 1 1 54.921665 0 27.460833 27.460833 0 1 1-54.921665 0Z"  horiz-adv-x="1024" />

    
    <glyph glyph-name="car" unicode="&#59168;" d="M870.797459 456.626676l-56.366972 0.722654-46.972477 195.839096c-5.781228 26.738179-32.519407 78.046577-93.222301 78.046578h-332.420607c-60.702893 0-87.441073-51.308398-93.2223-77.323924l-46.972477-197.284404H158.983769c-62.1482 0-112.733945-50.585745-112.011292-112.733945v-122.851094c0-29.628793 11.562456-58.534933 33.242061-79.491884 20.956951-20.956951 49.140438-32.519407 79.491884-32.519407h5.058574c1.445307-31.0741 18.788991-47.695131 32.519408-56.366973 15.898377-9.394495 36.855328-14.45307 62.1482-14.45307h0.722654c26.015526 0 46.972477 5.058574 62.870854 15.175724 13.730416 8.671842 30.351447 25.292872 32.519407 55.644319h318.69019c2.16796-25.292872 16.62103-69.374735 94.667608-69.374736h0.722653c80.214538 0 93.222301 46.249824 94.667608 70.820043h5.781228c29.628793 0 58.534933 11.562456 79.491884 33.24206s33.242061 49.863091 32.519407 79.491885l0.722654 121.405787c0.722653 61.425547-49.863091 112.011291-112.011292 112.011291zM297.733239 642.348624c0.722653 3.613267 10.117149 38.300635 44.081863 38.300635h333.143261c33.964714 0 42.636556-34.687368 44.081863-39.023289l44.081863-184.27664h-10.117149-0.722653l-498.630911-1.445307 44.081863 186.444601zM932.223006 222.486944c0-16.62103-6.503881-31.796754-18.066337-44.081863-11.562456-11.562456-27.460833-18.066337-44.081863-18.066337h-31.0741c-13.730416 0-25.292872-11.562456-25.292873-25.292872v-20.234298c0-8.671842 0-25.292872-44.804516-25.292873h-0.722654c-20.234298 0-30.351447 3.613267-36.132674 7.226535-4.335921 2.890614-8.671842 7.226535-8.671842 18.066338v18.788991c0 13.730416-11.562456 25.292872-25.292872 25.292872H330.252646c-13.730416 0-25.292872-11.562456-25.292872-25.292872v-20.234298c0-11.562456-4.335921-15.898377-8.671842-18.066338-5.058574-3.613267-15.898377-7.226535-36.132674-7.226535s-31.0741 3.613267-36.132675 7.226535c-4.335921 2.890614-8.671842 7.226535-8.671842 18.066338v20.234298c0 13.730416-11.562456 25.292872-25.292872 25.292872h-30.351447c-15.898377 0-31.796754 6.503881-44.081863 18.066337s-18.066337 27.460833-18.066337 44.081863v122.851094c0 33.964714 27.460833 62.1482 62.1482 62.148201l594.021172 1.445307 117.792519-0.722654c16.62103 0 31.796754-6.503881 44.081863-18.066337 11.562456-11.562456 18.066337-27.460833 18.066337-44.081863l-1.445307-122.128441zM417.693719 273.07268899999997m-27.460833 0a27.460833 27.460833 0 1 1 54.921666 0 27.460833 27.460833 0 1 1-54.921666 0ZM513.806634 273.07268899999997m-27.460833 0a27.460833 27.460833 0 1 1 54.921665 0 27.460833 27.460833 0 1 1-54.921665 0ZM609.919548 273.07268899999997m-27.460832 0a27.460833 27.460833 0 1 1 54.921665 0 27.460833 27.460833 0 1 1-54.921665 0Z"  horiz-adv-x="1024" />

    
    <glyph glyph-name="video" unicode="&#59169;" d="M493.572336 296.920254m-28.183486 0a28.183486 28.183486 0 1 1 56.366972 0 28.183486 28.183486 0 1 1-56.366972 0ZM572.341567 375.689485m-28.183487 0a28.183486 28.183486 0 1 1 56.366973 0 28.183486 28.183486 0 1 1-56.366973 0ZM494.294989 458.794637m-28.183486 0a28.183486 28.183486 0 1 1 56.366973 0 28.183486 28.183486 0 1 1-56.366973 0ZM822.379675 736.293578H205.956246c-25.292872 0-45.52717-20.234298-45.52717-45.52717v-614.978123c0-25.292872 20.234298-45.52717 45.52717-45.52717h616.423429c25.292872 0 45.52717 20.234298 45.52717 45.52717V690.766408c0.722653 24.570219-20.234298 45.52717-45.52717 45.52717z m-530.427664-656.169372H211.01482V193.58080500000005h80.937191v-113.456599z m0 164.042343H211.01482V364.84968200000003h80.937191v-120.683133z m0 171.268878H211.01482V536.841214h80.937191v-121.405787z m0 171.991531H211.01482V685.7078329999999h80.937191v-98.280875z m403.24065-507.302752H342.537756V685.7078329999999h352.654905v-605.583627z m122.851093 0h-72.265349V193.58080500000005h72.265349v-113.456599z m0 164.042343h-72.265349V364.84968200000003h72.265349v-120.683133z m0 171.268878h-72.265349V536.841214h72.265349v-121.405787z m0 171.991531h-72.265349V685.7078329999999h72.265349v-98.280875z"  horiz-adv-x="1024" />

    
    <glyph glyph-name="yingyeting" unicode="&#59173;" d="M917.769936 64.225829h-23.847565V400.259704c21.679605 9.394495 36.855328 31.0741 36.855328 56.366972V692.211715c0 33.964714-27.460833 61.425547-61.425547 61.425547H704.587156c-13.730416 0-25.292872-11.562456-25.292872-25.292872s11.562456-25.292872 25.292872-25.292873h164.042343c5.781228 0 10.839802-5.058574 10.839802-10.839802v-234.862385c0-5.781228-5.058574-10.839802-10.839802-10.839803H151.03458c-5.781228 0-10.839802 5.058574-10.839802 10.839803V692.211715c0 5.781228 5.058574 10.839802 10.839802 10.839802h166.210304c13.730416 0 25.292872 11.562456 25.292872 25.292873s-11.562456 25.292872-25.292872 25.292872h-166.210304c-33.964714 0-61.425547-27.460833-61.425547-61.425547v-234.862385c0-24.570219 14.45307-45.52717 35.410021-55.644319V64.948483H108.398024c-13.730416 0-25.292872-11.562456-25.292872-25.292873s11.562456-25.292872 25.292872-25.292872h809.371912c13.730416 0 25.292872 11.562456 25.292873 25.292872s-11.562456 24.570219-25.292873 24.570219zM175.604799 395.201129h667.731828v-330.9753h-114.901906V262.232886c0 23.847565-19.511644 43.35921-43.359209 43.35921H335.311221c-23.847565 0-43.35921-19.511644-43.35921-43.35921v-198.007057H175.604799V395.201129z m502.244178-330.9753H342.537756V255.729005h334.588567v-191.503176zM414.803105 726.176429m-27.460833 0a27.460833 27.460833 0 1 1 54.921666 0 27.460833 27.460833 0 1 1-54.921666 0ZM510.91602 726.176429m-27.460833 0a27.460833 27.460833 0 1 1 54.921666 0 27.460833 27.460833 0 1 1-54.921666 0ZM607.028934 726.176429m-27.460832 0a27.460833 27.460833 0 1 1 54.921665 0 27.460833 27.460833 0 1 1-54.921665 0Z"  horiz-adv-x="1024" />

    
    <glyph glyph-name="drop-down" unicode="&#58912;" d="M192.161209 496.201511c1.289673-9.027708 5.15869-16.765743 11.607053-23.214105l282.438287-282.438288c16.765743-16.765743 42.559194-16.765743 59.324937 0l282.438287 282.438288c6.448363 6.448363 10.31738 14.186398 11.607053 23.214105H192.161209z"  horiz-adv-x="1024" />

    
    <glyph glyph-name="html5" unicode="&#59057;" d="M755.428571 554.857143l9.142858 100H259.428571l26.857143-305.142857h349.714286l-12.571429-130.285715-112.571428-30.285714-112 30.285714-7.428572 80H291.428571l12.571429-158.857142 206.857143-57.142858h2.285714v0.571429l205.142857 56.571429 28.571429 310.857142H378.857143l-8.571429 103.428572h385.142857zM109.714286 822.857143h804.571428l-73.142857-821.714286-330.285714-92.571428-328 92.571428z"  horiz-adv-x="1024" />

    
    <glyph glyph-name="star" unicode="&#59146;" d="M987.428571 526.285714q0-12.571429-14.857142-27.428571l-207.428572-202.285714 49.142857-285.714286q0.571429-4 0.571429-11.428572 0-12-6-20.285714T791.428571-29.142857q-10.857143 0-22.857142 6.857143l-256.571429 134.857143-256.571429-134.857143q-12.571429-6.857143-22.857142-6.857143-12 0-18 8.285714T208.571429-0.571429q0 3.428571 1.142857 11.428572l49.142857 285.714286L50.857143 498.857143Q36.571429 514.285714 36.571429 526.285714q0 21.142857 32 26.285715l286.857142 41.714285L484 854.285714q10.857143 23.428571 28 23.428572t28-23.428572l128.571429-260 286.857142-41.714285q32-5.142857 32-26.285715z"  horiz-adv-x="1024" />

    
    <glyph glyph-name="trash" unicode="&#59174;" d="M402.285714 109.714286V512q0 8-5.142857 13.142857t-13.142857 5.142857h-36.571429q-8 0-13.142857-5.142857t-5.142857-13.142857v-402.285714q0-8 5.142857-13.142857t13.142857-5.142858h36.571429q8 0 13.142857 5.142858t5.142857 13.142857z m146.285715 0V512q0 8-5.142858 13.142857t-13.142857 5.142857h-36.571428q-8 0-13.142857-5.142857t-5.142858-13.142857v-402.285714q0-8 5.142858-13.142857t13.142857-5.142858h36.571428q8 0 13.142857 5.142858t5.142858 13.142857z m146.285714 0V512q0 8-5.142857 13.142857t-13.142857 5.142857h-36.571429q-8 0-13.142857-5.142857t-5.142857-13.142857v-402.285714q0-8 5.142857-13.142857t13.142857-5.142858h36.571429q8 0 13.142857 5.142858t5.142857 13.142857zM384 676.571429h256l-27.428571 66.857142q-4 5.142857-9.714286 6.285715H421.714286q-5.714286-1.142857-9.714286-6.285715z m530.285714-18.285715v-36.571428q0-8-5.142857-13.142857t-13.142857-5.142858h-54.857143v-541.714285q0-47.428571-26.857143-82t-64.571428-34.571429H274.285714q-37.714286 0-64.571428 33.428572T182.857143 59.428571V603.428571H128q-8 0-13.142857 5.142858t-5.142857 13.142857v36.571428q0 8 5.142857 13.142857t13.142857 5.142858h176.571429l40 95.428571q8.571429 21.142857 30.857142 36t45.142858 14.857143h182.857142q22.857143 0 45.142858-14.857143t30.857142-36l40-95.428571h176.571429q8 0 13.142857-5.142858t5.142857-13.142857z"  horiz-adv-x="1024" />

    
    <glyph glyph-name="yujing" unicode="&#59178;" d="M876.578687 195.748765l-16.62103 28.90614c0 0.722653-0.722653 0.722653-0.722653 1.445307-28.183486 40.468596-46.249824 84.550459-57.089626 134.413549-1.445307 5.781228-2.16796 12.285109-3.613268 18.066338-2.16796 13.730416-15.175723 23.124912-28.90614 20.956951-13.730416-2.16796-23.124912-15.175723-20.956951-28.90614 1.445307-7.226535 2.16796-13.730416 3.613268-20.234297 12.285109-56.366972 33.242061-105.50741 64.31616-151.757234l16.621031-28.90614c0-0.722653 0.722653-0.722653 0.722653-1.445307 5.058574-7.949188 7.949188-17.343684 7.949189-26.738179 0-26.738179-21.679605-48.417784-48.417784-48.417784h-558.611151c-26.738179 0-48.417784 21.679605-48.417784 48.417784 0 9.394495 2.890614 18.788991 7.949189 26.738179 0 0.722653 0.722653 0.722653 0.722653 1.445307l16.621031 28.90614c46.249824 67.929428 71.542696 148.86662 75.155963 239.198306 5.058574 138.749471 57.089626 223.299929 148.143966 237.030346 12.285109 2.16796 21.679605 12.285109 21.679605 25.292872 0 32.519407 26.015526 58.534933 58.534933 58.534933s58.534933-26.015526 58.534933-58.534933c0-7.226535 3.613267-15.175723 9.394495-19.511644 10.839802-8.671842 26.738179-7.226535 35.410021 3.613267 4.335921 5.058574 5.781228 10.839802 5.781228 17.343684-0.722653 59.98024-49.140438 107.675371-109.120677 107.675371-52.753705 0-97.558222-37.577982-106.952717-88.163726-104.062103-26.015526-166.210303-127.187015-171.268878-281.112209-2.890614-80.937191-25.292872-153.202541-66.484122-213.182781 0-0.722653-0.722653-0.722653-0.722653-1.445307l-16.62103-28.90614c-10.117149-15.898377-15.898377-34.687368-15.898377-53.476358 0-54.199012 44.081863-99.003529 99.003528-99.003529h185.721948c3.613267-48.417784 44.081863-86.718419 93.222301-86.718419 49.140438 0 89.609033 38.300635 93.2223 86.718419h185.721948c54.199012 0 99.003529 44.081863 99.003529 99.003529-0.722653 18.066337-6.503881 36.855328-16.621031 52.753705z m-362.772053-195.839097c-25.292872 0-46.249824 18.788991-49.863091 43.35921h99.726182c-3.613267-24.570219-24.570219-43.35921-49.863091-43.35921zM755.1729 471.079746m-27.460832 0a27.460833 27.460833 0 1 1 54.921665 0 27.460833 27.460833 0 1 1-54.921665 0ZM732.770642 569.360621m-27.460833 0a27.460833 27.460833 0 1 1 54.921666 0 27.460833 27.460833 0 1 1-54.921666 0ZM681.462244 652.465773m-27.460833 0a27.460833 27.460833 0 1 1 54.921666 0 27.460833 27.460833 0 1 1-54.921666 0Z"  horiz-adv-x="1024" />

    
    <glyph glyph-name="fapiao" unicode="&#59179;" d="M339.647142 411.099506c-9.394495 0-18.788991 5.781228-23.124912 15.175723l-25.292872 56.366973c-5.781228 13.007763 0 27.460833 13.007763 33.242061 13.007763 5.781228 27.460833 0 33.24206-13.007763l25.292873-56.366973c5.781228-13.007763 0-27.460833-13.007763-33.242061-2.890614-1.445307-6.503881-2.16796-10.117149-2.16796zM427.810868 411.099506c-3.613267 0-7.226535 0.722653-10.117149 2.16796-13.007763 5.781228-18.788991 20.234298-13.007763 33.242061l25.292873 56.366973c5.781228 13.007763 20.234298 18.788991 33.24206 13.007763 13.007763-5.781228 18.788991-20.234298 13.007763-33.242061l-25.292872-56.366973c-4.335921-9.394495-13.730416-15.175723-23.124912-15.175723zM491.404375 398.091743h-225.467889c-13.730416 0-25.292872 11.562456-25.292873 25.292872s11.562456 25.292872 25.292873 25.292873h225.467889c13.730416 0 25.292872-11.562456 25.292873-25.292873s-11.562456-25.292872-25.292873-25.292872zM491.404375 288.248412h-225.467889c-13.730416 0-25.292872 11.562456-25.292873 25.292872s11.562456 25.292872 25.292873 25.292873h225.467889c13.730416 0 25.292872-11.562456 25.292873-25.292873s-11.562456-25.292872-25.292873-25.292872zM378.67043 195.026112c-13.730416 0-25.292872 11.562456-25.292872 25.292872v202.342978c0 13.730416 11.562456 25.292872 25.292872 25.292872s25.292872-11.562456 25.292873-25.292872v-202.342978c0-13.730416-11.562456-25.292872-25.292873-25.292872zM760.954128 69.284404m-28.183486 0a28.183486 28.183486 0 1 1 56.366973 0 28.183486 28.183486 0 1 1-56.366973 0ZM872.242766 69.284404m-28.183486 0a28.183486 28.183486 0 1 1 56.366973 0 28.183486 28.183486 0 1 1-56.366973 0ZM875.856034 182.741002m-28.183486 0a28.183486 28.183486 0 1 1 56.366972 0 28.183486 28.183486 0 1 1-56.366972 0ZM776.852505 395.923783h-154.647847c-13.730416 0-25.292872 11.562456-25.292873 25.292872s11.562456 25.292872 25.292873 25.292872h154.647847c13.730416 0 25.292872-11.562456 25.292873-25.292872s-10.839802-25.292872-25.292873-25.292872zM726.266761 287.525759h-104.062103c-13.730416 0-25.292872 11.562456-25.292873 25.292872s11.562456 25.292872 25.292873 25.292872h104.062103c13.730416 0 25.292872-11.562456 25.292872-25.292872s-10.839802-25.292872-25.292872-25.292872zM667.009174 42.546224h-459.607621c-45.52717 0-83.105152 37.577982-83.105152 83.105152v516.697248c0 45.52717 37.577982 83.105152 83.105152 83.105152h41.191249c11.562456 0 22.402258-7.949188 24.570218-19.511645 4.335921-17.343684 19.511644-29.628793 37.577982-29.628793s33.242061 12.285109 37.577982 29.628793c2.890614 11.562456 13.007763 19.511644 24.570219 19.511645h86.718419c11.562456 0 22.402258-7.949188 24.570219-19.511645 4.335921-17.343684 19.511644-29.628793 37.577981-29.628793s33.242061 12.285109 37.577982 29.628793c2.890614 11.562456 13.007763 19.511644 24.570219 19.511645h79.491884c11.562456 0 22.402258-7.949188 24.570219-19.511645 4.335921-17.343684 19.511644-29.628793 37.577981-29.628793s33.242061 12.285109 37.577982 29.628793c2.890614 11.562456 13.007763 19.511644 24.570219 19.511645h31.0741c45.52717 0 83.105152-37.577982 83.105152-83.105152v-356.990826c0-13.730416-11.562456-25.292872-25.292873-25.292872s-25.292872 11.562456-25.292872 25.292872v356.990826c0 18.066337-14.45307 32.519407-32.519407 32.519407h-13.730416c-14.45307-29.628793-44.804517-49.863091-79.491885-49.863091s-65.038814 19.511644-79.491884 49.863091h-44.081863c-14.45307-29.628793-44.804517-49.863091-79.491884-49.863091s-65.038814 19.511644-79.491885 49.863091h-51.308398c-14.45307-29.628793-44.804517-49.863091-79.491884-49.863091s-65.038814 19.511644-79.491884 49.863091h-23.847565c-18.066337 0-32.519407-14.45307-32.519408-32.519407v-516.697248c0-18.066337 14.45307-32.519407 32.519408-32.519407h459.607621c13.730416 0 25.292872-11.562456 25.292873-25.292872s-13.007763-25.292872-26.73818-25.292873z"  horiz-adv-x="1024" />

    
    <glyph glyph-name="error" unicode="&#58980;" d="M512 810.666667C277.333333 810.666667 85.333333 618.666667 85.333333 384s192-426.666667 426.666667-426.666667 426.666667 192 426.666667 426.666667S746.666667 810.666667 512 810.666667z m42.666667-640h-85.333334v85.333333h85.333334v-85.333333z m0 170.666666h-85.333334V597.333333h85.333334v-256z"  horiz-adv-x="1024" />

    
    <glyph glyph-name="end" unicode="&#59170;" d="M983.838803 582.637331A511.938806 511.938806 0 1 1 1023.96018 383.97421299999996a508.619448 508.619448 0 0 1-40.121377 198.663118z m-58.751651-372.475902A448.143324 448.143324 0 1 0 960.164699 383.97421299999996a445.132975 445.132975 0 0 0-35.077547-173.812784zM609.289548 549.7328170000001a31.897741 31.897741 0 1 1-31.897741-55.222964 127.590964 127.590964 0 1 0-127.590964 0 31.897741 31.897741 0 1 1-31.897741 55.222964A191.326637 191.326637 0 0 1 322.20988 383.97421299999996c0-105.531682 85.854763-191.386446 191.386445-191.386446s191.386446 85.854763 191.386446 191.386446a191.326637 191.326637 0 0 1-95.693223 165.758604zM513.596325 383.97421299999996a31.897741 31.897741 0 0 1 31.897741 31.897741V607.258399a31.897741 31.897741 0 0 1-63.795482 0v-191.386445a31.897741 31.897741 0 0 1 31.897741-31.897741z"  horiz-adv-x="1027" />

    
    <glyph glyph-name="taocan" unicode="&#59182;" d="M544.15808-5.87156m-27.460832 0a27.460833 27.460833 0 1 1 54.921665 0 27.460833 27.460833 0 1 1-54.921665 0ZM642.438956 15.808045m-27.460833 0a27.460833 27.460833 0 1 1 54.921665 0 27.460833 27.460833 0 1 1-54.921665 0ZM728.434721 61.335215m-27.460833 0a27.460833 27.460833 0 1 1 54.921666 0 27.460833 27.460833 0 1 1-54.921666 0ZM449.490473 20.86662c-172.714185 26.015526-303.514467 177.772759-303.514467 352.654904 0 196.56175 159.706422 356.990826 356.990825 356.990826 57.089626 0 111.288638-13.007763 161.874383-39.023289 11.562456-5.781228 25.292872-1.445307 31.796754 10.117149 5.781228 11.562456 1.445307 25.292872-10.117149 31.796754-57.089626 28.90614-118.515173 44.081863-183.553988 44.081863-222.577276 0-403.240649-180.663373-403.240649-403.240649 0-198.007057 147.421313-369.998589 343.260409-398.904728h3.613268c11.562456 0 21.679605 8.671842 23.124912 20.234297 1.445307 11.562456-7.226535 23.847565-20.234298 25.292873zM502.244178 570.083275c-108.398024 0-196.56175-88.163726-196.56175-196.561751s88.163726-196.56175 196.56175-196.56175 196.56175 88.163726 196.56175 196.56175-88.163726 196.56175-196.56175 196.561751z m0-346.151024c-82.382498 0-149.589273 67.206775-149.589273 149.589273 0 82.382498 67.206775 149.589273 149.589273 149.589273 82.382498 0 149.589273-67.206775 149.589273-149.589273 0.722653-82.382498-66.484121-149.589273-149.589273-149.589273zM910.543402 789.047283c-13.007763 13.007763-27.460833 16.62103-34.687368 18.066337-4.335921 0.722653-9.394495 1.445307-14.45307 1.445307-12.285109 0-22.402258-2.890614-26.015526-3.613267-72.265349-23.124912-117.069866-128.632322-117.069866-275.330981 0-94.667608 12.285109-121.405787 38.300635-156.815808 8.671842-11.562456 17.343684-23.847565 27.460833-49.140438 0.722653-1.445307 5.781228-18.066337 5.781228-49.863091v-248.592801c0-29.628793 23.847565-53.476359 53.476359-53.476359h26.738179c22.402258 0 41.913903 14.45307 49.140437 36.855328 2.890614 9.394495 4.335921 20.234298 4.335921 36.855328l0.722654 711.091038v19.511644l-13.730416 13.007763z m-33.242061-744.333098c0-23.847565-2.890614-26.738179-6.503882-26.738179h-26.738179c-3.613267 0-6.503881 2.890614-6.503881 6.503881V273.072689c0 45.52717-9.394495 67.206775-9.394496 67.206775-35.410021 87.441073-62.1482 51.308398-62.1482 188.612561s40.468596 216.796048 84.550459 230.526465c0 0 5.058574 1.445307 11.562456 1.445307 2.16796 0 4.335921 0 6.503881-0.722654 0 0 5.781228-0.722653 10.117149-5.058574l-1.445307-710.368384z"  horiz-adv-x="1024" />

    
    <glyph glyph-name="man" unicode="&#59083;" d="M511.877565 725.860174c49.129739-0.222609 88.954435 37.843478 88.954435 85.081043C600.832 857.911652 561.007304 896 511.877565 896S422.92313 857.933913 422.92313 810.941217c0-46.970435 39.824696-85.081043 88.954435-85.081043zM601.07687 706.715826H422.678261C355.383652 706.715826 311.529739 650.1509570000001 311.529739 596.3241740000001V337.25217399999997c0-50.176 73.928348-50.176 73.928348 0V576.712348h14.313739v-651.353044c0-69.320348 100.173913-67.049739 102.555826 0V300.766609h19.099826v-375.629913c4.051478-71.145739 102.555826-64.311652 102.555826 0.222608v651.353044h11.909566V337.25217399999997c0-50.176 76.332522-50.176 76.332521 0V596.3241740000001c0 53.604174-44.121043 110.391652-111.148521 110.391652z"  horiz-adv-x="1024" />

    
    <glyph glyph-name="zhiding" unicode="&#59193;" d="M870.074806 436.392378m-37.577982 0a37.577982 37.577982 0 1 1 75.155964 0 37.577982 37.577982 0 1 1-75.155964 0ZM776.129852 530.337332m-37.577982 0a37.577982 37.577982 0 1 1 75.155963 0 37.577982 37.577982 0 1 1-75.155963 0ZM681.462244 625.00494m-37.577981 0a37.577982 37.577982 0 1 1 75.155963 0 37.577982 37.577982 0 1 1-75.155963 0ZM922.105857 838.910374h-788.414961c-19.511644 0-35.410021-15.898377-35.410021-35.410021s15.898377-35.410021 35.410021-35.410021h321.580805l-309.295695-309.295695c-13.730416-13.730416-13.730416-36.132675 0-49.863091 6.503881-6.503881 15.898377-10.117149 24.570218-10.117149 8.671842 0 18.066337 3.613267 24.570219 10.117149l290.506704 290.506704v-747.946366c0-19.511644 15.898377-35.410021 35.410022-35.410021s35.410021 15.898377 35.410021 35.410021V701.60621c13.730416-12.285109 34.687368-12.285109 48.417784 1.445307 13.730416 13.730416 13.730416 36.132675 0 49.863091l-16.62103 16.621031h333.865913c19.511644 0 35.410021 15.898377 35.410022 35.410021 0 18.066337-15.898377 33.964714-35.410022 33.964714z"  horiz-adv-x="1024" />

    
    <glyph glyph-name="tui" unicode="&#59088;" d="M512 896a2341.44 2341.44 0 0 1-512-62.848V384a484.352 484.352 0 0 1 71.936-199.04 630.336 630.336 0 0 1 153.6-169.728A892.672 892.672 0 0 1 512-128a894.08 894.08 0 0 1 285.76 142.784 631.488 631.488 0 0 1 153.6 169.216A487.36 487.36 0 0 1 1024 384V833.152A2341.312 2341.312 0 0 1 512 896z m469.312-510.08a450.432 450.432 0 0 0-66.112-179.648 588.8 588.8 0 0 0-143.36-157.76A842.944 842.944 0 0 0 512-83.20000000000005a841.856 841.856 0 0 0-260.288 132.288 587.904 587.904 0 0 0-143.296 158.208 446.336 446.336 0 0 0-65.728 178.56V800A2366.592 2366.592 0 0 0 512 853.312a2366.08 2366.08 0 0 0 469.312-53.44V385.92zM485.696 320V460.8h180.992v-14.272h38.4V691.712H446.592V334.72a50.048 50.048 0 0 0-14.912-36.544l29.12-40.384a263.104 263.104 0 0 0 28.8 18.816q50.048 25.28 99.2 44.672-2.048 20.416-2.56 42.496-59.392-26.944-100.544-43.776z m-124.928-25.6V523.9680000000001H259.968v-39.808h61.184v-181.184q-20.352-19.904-65.792-65.6l21.056-44.8a795.328 795.328 0 0 0 61.696 72.064 133.44 133.44 0 0 1 122.368-62.912q142.912-3.2 292.544-2.176 8.768 24.768 14.4 42.496-154.752-4.288-300.8-2.176A118.72 118.72 0 0 0 360.768 294.4z m259.648 98.368L543.296 441.6l-21.056-29.568q115.2-76.352 199.488-140.352l25.6 37.632q-36.928 25.408-92.48 61.376 47.296 20.416 97.152 41.408l-26.24 37.12q-53.76-30.656-105.344-56.448z m46.272 201.088H485.696v61.312h180.992v-61.312zM485.696 497.088v61.312h180.992v-61.312H485.696zM286.72 681.472Q313.6 644.4159999999999 355.072 576l36.48 26.88Q345.6 671.296 319.616 704.64z"  horiz-adv-x="1024" />

    
    <glyph glyph-name="loading" unicode="&#58924;" d="M523.085935 794.1505970000001m-101.850403 0a101.850403 101.850403 0 1 1 203.700806 0 101.850403 101.850403 0 1 1-203.700806 0ZM769.836489 708.491099m-96.031437 0a96.031437 96.031437 0 1 1 192.062875 0 96.031437 96.031437 0 1 1-192.062875 0ZM903.286707 514.604235m-90.210471 0a90.210471 90.210471 0 1 1 180.420943 0 90.210471 90.210471 0 1 1-180.420943 0ZM905.950692 286.27757299999996m-84.390506 0a84.390506 84.390506 0 1 1 168.781011 0 84.390506 84.390506 0 1 1-168.781011 0ZM799.997313 109.87260600000002m-78.57054 0a78.57054 78.57054 0 1 1 157.141079 0 78.57054 78.57054 0 1 1-157.141079 0ZM605.196454 6.291212999999971m-72.750574 0a72.750574 72.750574 0 1 1 145.501148 0 72.750574 72.750574 0 1 1-145.501148 0ZM397.148673 18.14214400000003m-66.931608 0a66.931608 66.931608 0 1 1 133.863216 0 66.931608 66.931608 0 1 1-133.863216 0ZM223.665689 133.51646800000003m-61.110641 0a61.110642 61.110642 0 1 1 122.221283 0 61.110642 61.110642 0 1 1-122.221283 0ZM134.483212 308.85144m-55.290676 0a55.290676 55.290676 0 1 1 110.581352 0 55.290676 55.290676 0 1 1-110.581352 0ZM135.396207 487.103396m-49.47071 0a49.47071 49.47071 0 1 1 98.94142 0 49.47071 49.47071 0 1 1-98.94142 0ZM205.336797 635.952524m-43.650744 0a43.650744 43.650744 0 1 1 87.301488 0 43.650744 43.650744 0 1 1-87.301488 0ZM315.81515 736.009937m-37.829779 0a37.829778 37.829778 0 1 1 75.659557 0 37.829778 37.829778 0 1 1-75.659557 0Z"  horiz-adv-x="1024" />

    
    <glyph glyph-name="calculator" unicode="&#59246;" d="M806.4 793.6h-563.2c-56.32 0-102.4-46.08-102.4-102.4v-614.4c0-56.32 46.08-102.4 102.4-102.4h563.2c56.32 0 102.4 46.08 102.4 102.4V691.2c0 56.32-46.08 102.4-102.4 102.4z m51.2-716.8c0-28.16-23.04-51.2-51.2-51.2h-563.2c-28.16 0-51.2 23.04-51.2 51.2V588.8h665.6v-512z m0 563.2h-665.6V691.2c0 28.16 23.04 51.2 51.2 51.2h563.2c28.16 0 51.2-23.04 51.2-51.2v-51.2z m-128-512c43.52 0 76.8 33.28 76.8 76.8s-33.28 76.8-76.8 76.8-76.8-33.28-76.8-76.8 33.28-76.8 76.8-76.8z m-25.6 102.4h51.2v-51.2h-51.2v51.2z m25.6 102.4c43.52 0 76.8 33.28 76.8 76.8s-33.28 76.8-76.8 76.8-76.8-33.28-76.8-76.8 33.28-76.8 76.8-76.8z m-25.6 102.4h51.2v-51.2h-51.2v51.2z m-179.2-307.2c43.52 0 76.8 33.28 76.8 76.8s-33.28 76.8-76.8 76.8-76.8-33.28-76.8-76.8 33.28-76.8 76.8-76.8z m-25.6 102.4h51.2v-51.2h-51.2v51.2z m25.6 102.4c43.52 0 76.8 33.28 76.8 76.8s-33.28 76.8-76.8 76.8-76.8-33.28-76.8-76.8 33.28-76.8 76.8-76.8z m-25.6 102.4h51.2v-51.2h-51.2v51.2z m-179.2-307.2c43.52 0 76.8 33.28 76.8 76.8s-33.28 76.8-76.8 76.8-76.8-33.28-76.8-76.8 33.28-76.8 76.8-76.8z m-25.6 102.4h51.2v-51.2h-51.2v51.2z m25.6 102.4c43.52 0 76.8 33.28 76.8 76.8s-33.28 76.8-76.8 76.8-76.8-33.28-76.8-76.8 33.28-76.8 76.8-76.8z m-25.6 102.4h51.2v-51.2h-51.2v51.2z"  horiz-adv-x="1024" />

    
    <glyph glyph-name="react" unicode="&#58955;" d="M512 384m-91.264 0a91.264 91.264 0 1 1 182.528 0 91.264 91.264 0 1 1-182.528 0ZM256.341333 202.453333l-20.138666 5.12C86.101333 245.504 0 309.888 0 384.170667s86.101333 138.666667 236.202667 176.597333l20.138666 5.077333 5.674667-19.968a1003.946667 1003.946667 0 0 1 58.154667-152.661333l4.309333-9.088-4.309333-9.088a994.432 994.432 0 0 1-58.154667-152.661333l-5.674667-19.925334zM226.858667 514.133333c-114.090667-32.042667-184.106667-81.066667-184.106667-129.962666 0-48.853333 70.016-97.877333 184.106667-129.962667a1064.533333 1064.533333 0 0 0 50.432 129.962667A1056.085333 1056.085333 0 0 0 226.858667 514.133333z m540.8-311.68l-5.674667 20.010667a996.565333 996.565333 0 0 1-58.197333 152.618667l-4.309334 9.088 4.309334 9.088a999.253333 999.253333 0 0 1 58.197333 152.661333l5.674667 19.968 20.181333-5.077333c150.058667-37.930667 236.16-102.314667 236.16-176.64s-86.101333-138.666667-236.16-176.597334l-20.181333-5.12z m-20.949334 181.717334c20.48-44.330667 37.418667-87.893333 50.432-129.962667 114.133333 32.085333 184.106667 81.109333 184.106667 129.962667 0 48.896-70.016 97.877333-184.106667 129.962666a1057.621333 1057.621333 0 0 0-50.432-129.962666zM226.56 514.346667l-5.674667 19.925333C178.688 683.008 191.488 789.589333 256 826.794667c63.274667 36.522667 164.864-6.613333 271.317333-115.882667l14.506667-14.890667-14.506667-14.890666a1004.885333 1004.885333 0 0 1-103.338666-126.592l-5.76-8.234667-10.026667-0.853333a1009.365333 1009.365333 0 0 1-161.493333-26.026667l-20.138667-5.077333z m80.896 282.88c-11.434667 0-21.546667-2.474667-30.08-7.381334-42.410667-24.448-49.92-109.44-20.693333-224.128a1071.872 1071.872 0 0 0 137.941333 21.376 1060.138667 1060.138667 0 0 0 87.552 108.544c-66.56 64.810667-129.578667 101.589333-174.72 101.589334z m409.130667-868.778667c-0.042667 0-0.042667 0 0 0-60.8 0-138.88 45.781333-219.904 128.981333l-14.506667 14.890667 14.506667 14.890667a1003.946667 1003.946667 0 0 1 103.296 126.634666l5.76 8.234667 9.984 0.853333a1008.213333 1008.213333 0 0 1 161.578666 25.984l20.138667 5.077334 5.717333-19.968c42.112-148.650667 29.354667-255.274667-35.157333-292.437334a101.546667 101.546667 0 0 0-51.413333-13.141333z m-174.762667 144.256c66.56-64.810667 129.578667-101.589333 174.72-101.589333h0.042667c11.392 0 21.546667 2.474667 30.037333 7.381333 42.410667 24.448 49.962667 109.482667 20.693333 224.170667a1067.52 1067.52 0 0 0-137.984-21.376 1052.757333 1052.757333 0 0 0-87.509333-108.586667zM797.44 514.346667l-20.138667 5.077333a1001.770667 1001.770667 0 0 1-161.578666 26.026667l-9.984 0.853333-5.76 8.234667a998.997333 998.997333 0 0 1-103.296 126.592l-14.506667 14.890666 14.506667 14.890667C603.093333 820.138667 704.64 863.274667 768 826.794667c64.512-37.205333 77.312-143.786667 35.157333-292.48l-5.717333-19.968zM629.333333 587.093333c48.725333-4.437333 95.018667-11.648 137.984-21.376 29.269333 114.688 21.717333 199.68-20.693333 224.128-42.154667 24.362667-121.386667-12.970667-204.8-94.208A1060.224 1060.224 0 0 0 629.333333 587.093333zM307.456-71.552A101.546667 101.546667 0 0 0 256-58.410667c-64.512 37.162667-77.312 143.744-35.114667 292.437334l5.632 19.968 20.138667-5.077334c49.28-12.416 103.637333-21.162667 161.493333-25.984l10.026667-0.853333 5.717333-8.234667a1006.762667 1006.762667 0 0 1 103.338667-126.634666l14.506667-14.890667-14.506667-14.890667c-80.981333-83.2-159.061333-128.981333-219.776-128.981333z m-50.773333 274.218667c-29.269333-114.688-21.717333-199.722667 20.693333-224.170667 42.112-24.021333 121.301333 13.013333 204.8 94.208a1066.581333 1066.581333 0 0 0-87.552 108.586667 1065.642667 1065.642667 0 0 0-137.941333 21.376zM512 175.872c-35.114667 0-71.210667 1.536-107.349333 4.522667l-10.026667 0.853333-5.76 8.234667a1296.554667 1296.554667 0 0 0-57.6 90.538666 1295.104 1295.104 0 0 0-49.749333 95.061334l-4.266667 9.088 4.266667 9.088a1292.8 1292.8 0 0 0 49.749333 95.061333c17.664 30.549333 37.077333 61.013333 57.6 90.538667l5.76 8.234666 10.026667 0.853334a1270.826667 1270.826667 0 0 0 214.741333 0l9.984-0.853334 5.717333-8.234666a1280.256 1280.256 0 0 0 107.392-185.6l4.309334-9.088-4.309334-9.088a1262.933333 1262.933333 0 0 0-107.392-185.6l-5.717333-8.234667-9.984-0.853333c-36.138667-2.986667-72.277333-4.522667-107.392-4.522667z m-93.738667 46.250667c63.146667-4.736 124.330667-4.736 187.52 0a1237.589333 1237.589333 0 0 1 93.696 162.048 1219.626667 1219.626667 0 0 1-93.738666 162.048 1238.656 1238.656 0 0 1-187.477334 0 1215.018667 1215.018667 0 0 1-93.738666-162.048 1242.197333 1242.197333 0 0 1 93.738666-162.048z"  horiz-adv-x="1024" />

    
    <glyph glyph-name="department" unicode="&#59014;" d="M928 576H704V800c0 17.066667-14.933333 32-32 32h-576C78.933333 832 64 817.066667 64 800v-832c0-17.066667 14.933333-32 32-32h832c17.066667 0 32 14.933333 32 32v576c0 17.066667-14.933333 32-32 32zM128 768h512v-768H128V768z m768-768h-192V512h192v-512zM320 640h-96c-17.066667 0-32-14.933333-32-32s14.933333-32 32-32H320c17.066667 0 32 14.933333 32 32S337.066667 640 320 640zM544 640H448c-17.066667 0-32-14.933333-32-32S430.933333 576 448 576h96c17.066667 0 32 14.933333 32 32s-14.933333 32-32 32zM320 448h-96c-17.066667 0-32-14.933333-32-32s14.933333-32 32-32H320c17.066667 0 32 14.933333 32 32S337.066667 448 320 448zM544 448H448c-17.066667 0-32-14.933333-32-32S430.933333 384 448 384h96c17.066667 0 32 14.933333 32 32s-14.933333 32-32 32zM320 256h-96c-17.066667 0-32-14.933333-32-32s14.933333-32 32-32H320c17.066667 0 32 14.933333 32 32S337.066667 256 320 256zM544 256H448c-17.066667 0-32-14.933333-32-32S430.933333 192 448 192h96c17.066667 0 32 14.933333 32 32s-14.933333 32-32 32zM800 288c17.066667 0 32 14.933333 32 32v96c0 17.066667-14.933333 32-32 32s-32-14.933333-32-32V320c0-17.066667 14.933333-32 32-32zM800 64c17.066667 0 32 14.933333 32 32V192c0 17.066667-14.933333 32-32 32S768 209.066667 768 192v-96c0-17.066667 14.933333-32 32-32z"  horiz-adv-x="1024" />

    
    <glyph glyph-name="taobao" unicode="&#59175;" d="M512 36.571429a347.428571 347.428571 0 1 1 0 694.857142 347.428571 347.428571 0 0 1 0-694.857142z m0-36.571429C299.922286 0 128 171.922286 128 384S299.922286 768 512 768 896 596.077714 896 384 724.077714 0 512 0z m99.949714 281.892571l-24.868571-12.434285a231.314286 231.314286 0 0 0-103.424-24.429715h-10.057143a58.514286 58.514286 0 0 0-58.514286 58.514286 18.285714 18.285714 0 1 0 36.571429 0 21.942857 21.942857 0 0 1 21.942857-21.942857h10.057143c10.752 0 21.467429 0.877714 32 2.633143V345.6h-82.285714a18.285714 18.285714 0 1 0 0 36.571429h82.285714v23.771428h-37.522286a141.824 141.824 0 0 0-6.217143-6.546286l-2.121143-2.121142a18.285714 18.285714 0 1 0-25.746285 25.965714l2.157714 2.121143c10.825143 10.752 19.2 23.698286 24.502857 37.997714a18.285714 18.285714 0 0 0 34.267429-12.8 141.824 141.824 0 0 0-3.291429-8.045714H614.4a18.285714 18.285714 0 1 0 0-36.571429h-62.171429v-23.771428h82.285715a18.285714 18.285714 0 1 0 0-36.571429H552.228571v-51.529143c6.290286 2.377143 12.470857 5.083429 18.505143 8.082286l25.380572 12.690286a18.285714 18.285714 0 0 0 34.157714 8.667428l15.981714-27.940571a18.285714 18.285714 0 0 0-31.744-18.176l-2.56 4.498285z m-149.577143 233.837715A436.077714 436.077714 0 0 0 614.4 543.085714a98.742857 98.742857 0 0 0 98.742857-98.742857v-148.114286a91.428571 91.428571 0 0 0-91.428571-91.428571h-47.542857a18.285714 18.285714 0 1 0 0 36.571429H621.714286a54.857143 54.857143 0 0 1 54.857143 54.857142v148.114286a62.171429 62.171429 0 0 1-62.171429 62.171429c-50.834286 0-101.193143-9.691429-148.370286-28.562286l-25.856-10.349714a18.285714 18.285714 0 0 0-4.790857-1.206857 259.291429 259.291429 0 0 0-29.293714-34.998858 18.285714 18.285714 0 0 0-25.892572 25.892572 222.72 222.72 0 0 1 53.833143 87.04l2.121143 6.363428a18.285714 18.285714 0 1 0 34.669714-11.556571l-2.121142-6.363429a259.291429 259.291429 0 0 0-6.326858-17.042285z m-115.492571-27.136a30.171429 30.171429 0 1 0 0 60.342857 30.171429 30.171429 0 0 0 0-60.342857z m-34.523429-70.765715a18.285714 18.285714 0 1 0 15.433143 33.133715l11.483429-5.339429a91.428571 91.428571 0 0 0 39.131428-130.925714l-50.176-81.115429a18.285714 18.285714 0 1 0-31.085714 19.236572l50.139429 81.078857a54.857143 54.857143 0 0 1-23.442286 78.592l-11.483429 5.339428z"  horiz-adv-x="1024" />

    
    <glyph glyph-name="image" unicode="&#59302;" d="M895.957333 725.333333H136.576c-24.917333 5.12-51.285333-15.274667-51.285333-41.770666V85.333333a42.666667 42.666667 0 0 1 42.666666-42.666666h768a42.666667 42.666667 0 0 1 42.666667 42.666666V682.666667a42.666667 42.666667 0 0 1-42.666667 42.666666z m-42.666666-597.333333h-682.666667V640h682.666667v-512zM512 213.333333h255.957333L597.333333 554.666667l-155.178666-248.234667L383.957333 384l-128-170.666667h128zM319.957333 490.666667m-64 0a64 64 0 1 1 128 0 64 64 0 1 1-128 0Z"  horiz-adv-x="1024" />

    
    <glyph glyph-name="share" unicode="&#59180;" d="M468.958 287.89C442.636 256.188 402.926 236 358.5 236 279.247 236 215 300.247 215 379.5S279.247 523 358.5 523c42.525 0 80.73-18.497 107.006-47.885l142.227 89.772A102.79 102.79 0 0 0 605 588.5c0 56.61 45.89 102.5 102.5 102.5S810 645.11 810 588.5 764.11 486 707.5 486c-26.78 0-51.163 10.27-69.422 27.088l-142.78-90.12C499.653 409.256 502 394.652 502 379.5c0-13.243-1.794-26.067-5.152-38.242l139.057-88.406C654.38 270.887 679.642 282 707.5 282c56.61 0 102.5-45.89 102.5-102.5S764.11 77 707.5 77 605 122.89 605 179.5c0 7.051 0.712 13.936 2.068 20.586l-138.11 87.804zM358.5 296c46.116 0 83.5 37.384 83.5 83.5S404.616 463 358.5 463 275 425.616 275 379.5s37.384-83.5 83.5-83.5z m349 250c23.472 0 42.5 19.028 42.5 42.5S730.972 631 707.5 631 665 611.972 665 588.5s19.028-42.5 42.5-42.5z m0-409c23.472 0 42.5 19.028 42.5 42.5S730.972 222 707.5 222 665 202.972 665 179.5s19.028-42.5 42.5-42.5z"  horiz-adv-x="1024" />

    
    <glyph glyph-name="cut" unicode="&#59248;" d="M213.312 85.312h597.376V682.688H213.312v-597.376z m0-85.312v-128H128v128H0v85.312h128V768h682.688V896H896v-128h128v-85.312h-128V0H213.312z"  horiz-adv-x="1024" />

    
    <glyph glyph-name="photo" unicode="&#59330;" d="M880.174545-15.941818h-733.090909a122.298182 122.298182 0 0 0-122.181818 122.181818v443.345455a122.298182 122.298182 0 0 0 122.181818 122.181818h136.378182L360.727273 808.261818a29.090909 29.090909 0 0 0 25.367272 14.778182H640a29.090909 29.090909 0 0 0 24.785455-13.847273l84.596363-137.425454h130.792727a122.298182 122.298182 0 0 0 122.181819-122.181818v-443.345455a122.298182 122.298182 0 0 0-122.181819-122.181818z m-733.090909 629.527273a64.116364 64.116364 0 0 1-64-64v-443.345455a64.116364 64.116364 0 0 1 64-64h733.090909a64.116364 64.116364 0 0 1 64 64v443.345455a64.116364 64.116364 0 0 1-64 64H733.090909a29.090909 29.090909 0 0 0-24.785454 13.847272l-84.363637 137.425455h-221.090909L325.818182 628.363636a29.090909 29.090909 0 0 0-25.367273-14.778181zM513.629091 178.734545A170.356364 170.356364 0 1 0 683.985455 349.090909a170.589091 170.589091 0 0 0-170.356364-170.356364z m0 282.647273A112.174545 112.174545 0 1 1 625.803636 349.090909a112.290909 112.290909 0 0 1-112.174545 112.174546zM809.890909 552.727273m34.909091 0l0 0q34.909091 0 34.909091-34.909091l0 0q0-34.909091-34.909091-34.909091l0 0q-34.909091 0-34.909091 34.909091l0 0q0 34.909091 34.909091 34.909091Z"  horiz-adv-x="1024" />

    
    <glyph glyph-name="address" unicode="&#58914;" d="M832 506.7c-0.5-49.1-16.2-94.1-37.5-137.4-31.8-65-74-123-119.8-178.6-42.6-51.7-88.5-100.6-137.4-146.4-17.1-16-32.7-16.5-50.2-0.8-90.6 81.4-172.1 170.6-234.3 276.1-10.1 17.2-19.3 34.9-27.2 53.2-7.5 17.4-1 35.5 15.1 43 16.2 7.5 33.9 0.9 41.8-16.2 37.2-80.8 90.6-149.5 150-214.6 22.9-25.1 46.9-50.2 71.8-73.4 3.1-2.9 9-4.2 13.4 0.2 82.4 83 158.5 170 214.6 273.6C748.6 415.5 768 470.1 768 507c0 52.3-5.7 75.5-30.3 121-46.8 86.5-119.2 140-218.7 140-113.1 0-213.4-69.6-249-177.3-8.9-27.1-13.6-54.8-14-83.3-0.3-20.4-13.7-34.7-32.1-34.7-18.5 0-32 14.8-31.9 34.8 0.4 151.5 104.8 282.8 252 316.8C565.8 852.4 696.2 801.9 769.9 698c40.7-57.3 60.9-121.2 62.1-191.3zM512.5 640c-70.9 0.1-128.5-57.2-128.5-128 0-70.3 57.3-127.9 127.5-128 70.8-0.2 128.5 57.3 128.5 128 0 70.4-57.3 127.9-127.5 128z m0.6-192c-36-0.3-65.2 28.4-65.1 64.1 0.1 35.3 28.8 63.9 64.4 63.9 34.7 0 63.5-28.7 63.6-63.6 0.1-34.9-28.3-64.1-62.9-64.4zM960-32v0.4 1 0.6c0 0.4 0 0.7-0.1 1.1 0 0.2 0 0.4-0.1 0.5 0 0.3-0.1 0.6-0.1 1 0 0.2-0.1 0.4-0.1 0.7 0 0.2-0.1 0.5-0.1 0.7-0.1 0.3-0.1 0.6-0.2 1 0 0.1 0 0.2-0.1 0.3-0.9 3.9-2.4 7.5-4.6 10.7L827 206.7c-8.6 14.9-27.8 20-42.6 11.4l-1.4-0.8c-14.9-8.6-20-27.8-11.4-42.6L872.5 0h-721l100.3 173.7c8.8 15.2 3.5 34.9-11.7 43.7-15.2 8.8-34.9 3.5-43.7-11.7L68.3-16c-1.2-2.1-2.1-4.2-2.8-6.5v-0.1c-0.1-0.4-0.3-0.9-0.4-1.3 0-0.1-0.1-0.3-0.1-0.4-0.1-0.3-0.2-0.7-0.2-1 0-0.2-0.1-0.5-0.1-0.7 0-0.2-0.1-0.5-0.1-0.7-0.1-0.3-0.1-0.7-0.1-1 0-0.2 0-0.3-0.1-0.5 0-0.4-0.1-0.8-0.1-1.2v-0.2c-0.1-0.8-0.1-1.5-0.1-2.3 0-4.4 0.9-8.7 2.6-12.5 2.6-6.2 7.2-11.6 13.4-15.2 4.5-2.6 9.4-4 14.2-4.2h833.8c16.8 0 30.7 13.2 31.9 29.7v0.2 1 0.7c-0.1 0-0.1 0.1-0.1 0.2z"  horiz-adv-x="1024" />

    
    <glyph glyph-name="word" unicode="&#58956;" d="M736.49 800.068l-0.492-0.492v0.356H160c-35.346 0-64-28.654-64-64v-704c0-35.347 28.654-64 64-64h704c35.346 0 64 28.653 64 64v576h0.627L736.49 800.068z m-0.492-44.761L883.374 607.93H751.998c-8.836 0-16 7.163-16 16V755.307zM896.01 31.922c0-17.673-14.327-32-32-32H159.99c-17.673 0-32 14.327-32 32v704.02c0 17.673 14.327 32 32 32H704v-160.01c0-17.673 14.327-32 32-32h160.01v-544.01z m-287.572 258.26c-5.625-22.5-10.189-42.439-13.688-59.813-4.377 30.375-11.502 62.813-21.375 97.313L534 466.807h-43.875l-52.313-185.625c-1.251-4.5-5.376-21.439-12.375-50.813a939.184 939.184 0 0 1-11.625 56.25L372 466.807h-37.313l72.938-274.875h37.125l58.313 209.438c2.499 8.874 5.186 19.623 8.063 32.25 0.873-4.002 3.75-14.751 8.625-32.25l57.938-209.438h35.063l75.375 274.875h-36.563l-43.126-176.625z"  horiz-adv-x="1024" />

    
    <glyph glyph-name="star_blank" unicode="&#58916;" d="M954.514 493.887c-7.724 22.304-27.494 38.582-51.328 42.155l-231.982 34.509-100.877 209.394c-10.595 22.01-33.307 36.087-58.312 36.087-24.918 0-47.632-14.077-58.264-36.087L352.876 570.5509999999999l-232.025-34.509c-23.84-3.574-43.606-19.851-51.329-42.155-7.685-22.299-1.873-46.884 14.989-63.662l169.98-169.855-39.451-235.515c-3.946-23.716 6.311-47.551 26.454-61.424 11.087-7.642 24.086-11.464 37.084-11.464a66.023 66.023 0 0 1 31.149 7.809l202.25 108.934L714.31-40.224000000000046c9.714-5.23 20.431-7.809 31.105-7.809a65.877 65.877 0 0 1 37.127 11.464c20.1 13.874 30.354 37.67 26.369 61.424L769.5 260.37l170.104 169.855c16.778 16.778 22.51 41.363 14.91 63.662zM734.95 305.34299999999996l-28.326-28.278 6.563-39.457 39.409-235.058-203.784 109.64-36.833 19.851-36.839-19.851-203.828-109.68 39.414 235.098 6.602 39.457-28.321 28.278-168.61 168.277 231.274 34.348 40.702 6.058 17.855 37.049 101.75 211.051 101.746-211.051 17.898-37.049 40.658-6.058 231.275-34.348L734.95 305.34299999999996z"  horiz-adv-x="1024" />

    
    <glyph glyph-name="phone" unicode="&#58939;" d="M496.115756-18.261582999999973m-39.980478 0a39.980478 39.980478 0 1 1 79.960956 0 39.980478 39.980478 0 1 1-79.960956 0ZM845.94694 91.81666800000005l-0.001 603.174481V815.5392870000001c0 44.161437-35.79852 79.960957-79.960956 79.960957h-539.736457c-44.161437 0-79.960957-35.79952-79.960956-79.960957v-70.57354h-0.001v-49.975598h0.001v-603.174481h-0.001v-49.975598h0.001V-48.03904299999999c0-44.161437 35.79952-79.960957 79.960956-79.960957h539.736457c44.162436 0 79.960957 35.79952 79.960956 79.960957v89.880113h0.001v49.975598zM196.263168 815.5392870000001c0 16.533927 13.451432 29.985359 29.985359 29.985359h539.736457c16.533927 0 29.985359-13.451432 29.985359-29.985359v-70.57354h-599.707175V815.5392870000001z m0-120.548138h599.707175v-603.174481h-599.707175V694.991149z m599.707175-743.030192c0-16.533927-13.451432-29.985359-29.985359-29.985359h-539.736457c-16.533927 0-29.985359 13.451432-29.985359 29.985359v89.880113h599.707175V-48.03904299999999z"  horiz-adv-x="1024" />

    
    <glyph glyph-name="export" unicode="&#58928;" d="M884.886 624.754a45.22 45.22 0 0 0 16.454-16.89c13.93-17.62 12.8-43.262-3.42-59.584l-159-160c-17.52-17.628-46.012-17.718-63.64-0.2-17.628 17.52-17.718 46.012-0.2 63.64l88.722 89.28H712c-85.604 0-155-69.396-155-155v-134c0-24.852-20.148-45-45-45s-45 20.148-45 45v134c0 135.31 109.69 245 245 245h39.36l-77.18 77.18c-17.574 17.574-17.574 46.066 0 63.64 17.574 17.574 46.066 17.574 63.64 0l147.066-147.066zM753.546 223c-24.852 0-45 20.148-45 45s20.148 45 45 45H836c41.42 0 75-33.58 75-75v-180c0-41.42-33.58-75-75-75H186c-41.42 0-75 33.58-75 75v180c0 41.42 33.58 75 75 75h80.276c24.852 0 45-20.148 45-45s-20.148-45-45-45H201v-150h620v150h-67.454z"  horiz-adv-x="1024" />

    
    <glyph glyph-name="import" unicode="&#59062;" d="M554.666667 341.33333300000004m-42.666667 0l0 0q-42.666667 0-42.666667 42.666667l0 426.666667q0 42.666667 42.666667 42.666666l0 0q42.666667 0 42.666667-42.666666l0-426.666667q0-42.666667-42.666667-42.666667ZM725.333333 554.666667a42.666667 42.666667 0 0 0 0 85.333333h42.666667a170.666667 170.666667 0 0 0 170.666667-170.666667v-341.333333a170.666667 170.666667 0 0 0-170.666667-170.666667H256a170.666667 170.666667 0 0 0-170.666667 170.666667V469.632a170.666667 170.666667 0 0 0 170.666667 170.666667h42.666667a42.666667 42.666667 0 1 0 0-85.333334H256a85.333333 85.333333 0 0 1-85.333333-85.333333V128a85.333333 85.333333 0 0 1 85.333333-85.333333h512a85.333333 85.333333 0 0 1 85.333333 85.333333v341.333333a85.333333 85.333333 0 0 1-85.333333 85.333334h-42.666667zM609.834667 456.832a42.666667 42.666667 0 0 0 60.330666-60.330667l-128-128a42.666667 42.666667 0 0 0-60.330666 0l-128 128a42.666667 42.666667 0 0 0 60.330666 60.330667L512 358.997333l97.834667 97.834667z"  horiz-adv-x="1024" />

    
    <glyph glyph-name="stop" unicode="&#59002;" d="M511.8 832.3c-247.5 0-448.1-200.6-448.1-448.1s200.6-448.1 448.1-448.1 448.1 200.6 448.1 448.1S759.3 832.3 511.8 832.3z m271.6-719.7c-35.3-35.3-76.4-63-122.1-82.3-47.3-20-97.6-30.2-149.5-30.2-51.9 0-102.2 10.1-149.5 30.2-45.7 19.3-86.8 47-122.1 82.3s-63 76.4-82.3 122.1c-20 47.3-30.2 97.6-30.2 149.5s10.1 102.2 30.2 149.5c19.3 45.7 47 86.8 82.3 122.1s76.4 63 122.1 82.3c47.3 20 97.6 30.2 149.5 30.2 51.9 0 102.2-10.1 149.5-30.2 45.7-19.3 86.8-47 122.1-82.3s63-76.4 82.3-122.1c20-47.3 30.2-97.6 30.2-149.5S885.7 282 865.7 234.70000000000005c-19.3-45.8-47-86.8-82.3-122.1z m-207.6 79.6h64v384h-64v-384z m-192.1 0h64v384h-64v-384z"  horiz-adv-x="1024" />

    
    <glyph glyph-name="user" unicode="&#58917;" d="M494.870476 388.364428c160.939766 0 291.404485 111.604041 291.404485 249.237064 0 137.664224-130.464718 249.229265-291.404485 249.229265-160.924166 0-291.412285-111.56504-291.396684-249.229265 0-137.633024 130.472518-249.237065 291.404485-249.237064zM628.455241 305.262006H385.59087c-207.888657 0-376.433535-144.122719-376.433535-321.910733v-20.779506c0-72.665868 168.544878-72.736069 376.433535-72.736069H628.455241c207.865256 0 376.402334 2.683239 376.402334 72.736069v20.771705c0 177.795814-168.521478 321.918533-376.402334 321.918534z"  horiz-adv-x="1032" />

    
    <glyph glyph-name="star-half" unicode="&#58920;" d="M491.52 814.08l-125.155556-253.724444c-3.413333-6.826667-9.102222-11.377778-17.066666-12.515556L69.404444 505.742222c-18.204444-2.275556-26.168889-25.031111-12.515555-38.684444l202.524444-197.973334c5.688889-5.688889 7.964444-12.515556 6.826667-20.48l-47.786667-279.893333c-3.413333-18.204444 15.928889-32.995556 32.995556-23.893333l250.311111 131.982222c3.413333 1.137778 6.826667 2.275556 10.24 2.275556V826.595556c-7.964444 0-15.928889-4.551111-20.48-12.515556zM522.24 74.524444l250.311111-131.982222c17.066667-9.102222 36.408889 5.688889 32.995556 23.893334l-47.786667 279.893333c-1.137778 6.826667 1.137778 14.791111 6.826667 20.48L967.111111 465.92c13.653333 12.515556 5.688889 35.271111-12.515555 38.684444l-279.893334 40.96c-6.826667 1.137778-13.653333 5.688889-17.066666 12.515556l-125.155556 253.724444c-4.551111 9.102222-12.515556 12.515556-20.48 12.515556v-101.262222L606.435556 531.911111c11.377778-23.893333 34.133333-39.822222 60.302222-43.235555l211.626666-30.72-153.6-149.048889c-18.204444-18.204444-27.306667-45.511111-22.755555-70.542223l36.408889-210.488888-188.871111 98.986666c-11.377778 6.826667-25.031111 9.102222-37.546667 9.102222V76.8c3.413333 0 6.826667 0 10.24-2.275556z"  horiz-adv-x="1024" />

    
    <glyph glyph-name="scan" unicode="&#59272;" d="M181.333333 512a32 32 0 0 0-64 0v111.146667a155.52 155.52 0 0 0 155.52 155.52H384a32 32 0 0 0 0-64h-111.146667a91.52 91.52 0 0 1-91.52-91.52V512zM640 714.666667a32 32 0 0 0 0 64h111.146667a155.52 155.52 0 0 0 155.52-155.52V512a32 32 0 0 0-64 0v111.146667a91.52 91.52 0 0 1-91.52 91.52H640zM842.666667 256a32 32 0 0 0 64 0v-111.146667a155.52 155.52 0 0 0-155.52-155.52H640a32 32 0 0 0 0 64h111.146667a91.52 91.52 0 0 1 91.52 91.52V256zM384 53.333333a32 32 0 0 0 0-64h-111.146667a155.52 155.52 0 0 0-155.52 155.52V256a32 32 0 0 0 64 0v-111.146667a91.52 91.52 0 0 1 91.52-91.52H384z m-192 298.666667a32 32 0 0 0 0 64h640a32 32 0 0 0 0-64H192z"  horiz-adv-x="1024" />

    
    <glyph glyph-name="sound" unicode="&#59324;" d="M417.216 82.688l-159.488 123.008a46.869333 46.869333 0 0 1-25.386667 7.338667H170.666667a85.333333 85.333333 0 0 0-85.333334 85.333333v171.264a85.333333 85.333333 0 0 0 85.333334 85.333333h61.696c9.130667 0 18.048 2.581333 25.365333 7.338667l159.488 123.008A85.333333 85.333333 0 0 0 554.666667 617.749333v-467.498666a85.333333 85.333333 0 0 0-137.450667-67.562667zM469.333333 128.917333a21.333333 21.333333 0 0 1 21.333334 21.333334V617.749333a21.333333 21.333333 0 0 1-34.346667 16.896l-159.509333-123.029333a64 64 0 0 0-4.224-2.986667 110.762667 110.762667 0 0 0-60.224-17.664H170.666667a21.333333 21.333333 0 0 1-21.333334-21.333333v-171.264a21.333333 21.333333 0 0 1 21.333334-21.333333h61.696c21.333333 0 42.389333-6.101333 60.202666-17.642667a64 64 0 0 0 4.245334-3.008l159.488-123.029333a21.333333 21.333333 0 0 1 13.034666-4.437334z m340.010667-4.565333a32 32 0 0 0-40.021333 49.962667C828.309333 221.546667 864 298.986667 864 384c0 82.986667-36.586667 162.005333-94.869333 209.962667a32 32 0 1 0 40.661333 49.408C882.986667 583.146667 928 485.930667 928 384c0-104.106667-44.224-200.021333-118.656-259.626667z m-107.84 105.770667a32 32 0 1 0-37.674667 51.754666C695.573333 304.981333 714.666667 342.613333 714.666667 384a129.216 129.216 0 0 1-51.093334 102.378667 32 32 0 1 0 38.336 51.242666A193.194667 193.194667 0 0 0 778.666667 384c0-61.781333-28.864-118.698667-77.162667-153.877333z"  horiz-adv-x="1024" />

    
    <glyph glyph-name="search" unicode="&#58923;" d="M1024-67.7L756.8 199.5c60.2 73.6 96.5 167.5 96.5 269.8C853.3 704.6 661.9 896 426.7 896S0 704.6 0 469.3s191.4-426.7 426.7-426.7c102.3 0 196.3 36.3 269.8 96.5L963.7-128l60.3 60.3zM426.7 128C238.5 128 85.3 281.1 85.3 469.3S238.5 810.7 426.7 810.7 768 657.5 768 469.3 614.9 128 426.7 128z"  horiz-adv-x="1024" />

    
    <glyph glyph-name="code" unicode="&#59122;" d="M541.141333 627.136l61.717334-16.938667-132.394667-482.474666-61.717333 16.938666 132.394666 482.474667zM329.002667 597.333333l44.885333-45.610666-175.36-172.586667 175.04-167.573333-44.266667-46.229334L106.666667 378.496 329.002667 597.333333z m355.882666 0l222.336-218.837333L684.586667 165.333333l-44.266667 46.229334 175.018667 167.573333L640 551.722667 684.885333 597.333333z"  horiz-adv-x="1024" />

    
    <glyph glyph-name="copy" unicode="&#59123;" d="M576 512a64 64 0 0 0 64-64v-341.333333a64 64 0 0 0-64-64H234.666667a64 64 0 0 0-64 64V448a64 64 0 0 0 64 64h341.333333z m0-64H234.666667v-341.333333h341.333333V448z m-64-192v-64H298.666667v64h213.333333zM789.333333 725.333333a64 64 0 0 0 64-64v-341.333333a64 64 0 0 0-64-64h-106.666666v64h106.666666V661.333333H448v-106.666666h-64v106.666666a64 64 0 0 0 64 64h341.333333zM512 362.666667v-64H298.666667v64h213.333333z"  horiz-adv-x="1024" />

    
    <glyph glyph-name="dollar" unicode="&#59124;" d="M545.024 720v-66.645333l4.544-0.682667c28.16-4.202667 50.986667-12.778667 68.736-25.813333 15.658667-11.52 30.72-28.522667 45.184-50.901334l3.2-4.906666-62.293333-32.469334-2.645334 3.968c-21.888 32.853333-49.984 49.322667-84.032 49.322667-22.890667 0-42.048-6.442667-57.173333-19.157333-15.466667-13.013333-23.274667-29.376-23.274667-48.810667 0-17.706667 6.421333-32.682667 19.029334-44.458667 10.24-9.557333 29.12-20.416 57.344-32.938666l21.546666-9.301334c25.877333-11.264 47.253333-21.738667 64.341334-31.530666 18.944-10.922667 33.130667-21.354667 42.453333-31.210667 26.922667-27.093333 40.277333-59.52 40.277333-97.792 0-37.674667-12.117333-70.848-36.352-99.648-24-28.693333-56.192-48-96.64-58.069333l-4.053333-1.002667v-69.952h-53.802667v68.330667l-4.522666 0.704c-47.018667 7.210667-82.858667 22.229333-107.306667 45.056-22.613333 21.12-39.786667 53.034667-51.541333 95.637333l-1.536 5.546667 70.826666 13.824 1.514667-4.373334c10.816-31.146667 23.808-53.76 38.848-67.797333 17.92-15.317333 41.301333-22.933333 70.485333-22.933333 28.352 0 52.138667 8.597333 71.296 25.728 19.050667 17.130667 28.672 39.338667 28.672 66.218666 0 24.170667-8.106667 43.776-24.064 58.453334-7.893333 6.954667-19.242667 14.570667-34.773333 23.36a541.333333 541.333333 0 0 1-48.896 23.893333l-15.786667 6.784c-42.709333 18.474667-71.168 35.413333-84.672 50.474667-23.082667 24.192-34.517333 52.8-34.517333 86.293333 0 15.808 2.688 30.528 8.106667 44.224a123.157333 123.157333 0 0 0 23.488 36.992c10.176 10.922667 22.890667 20.629333 37.994666 28.970667 14.997333 8.106667 32.384 14.570667 52.096 19.392l4.053334 1.002666V720h53.845333z"  horiz-adv-x="1024" />

    
    <glyph glyph-name="history" unicode="&#59128;" d="M512 736c194.410667 0 352-157.589333 352-352S706.410667 32 512 32l-2.538667 0.106667c-91.477333 7.274667-165.738667 38.08-221.44 91.989333L288 53.333333h-64V256H405.333333v-64h-92.842666c46.250667-56.917333 112.490667-88.725333 200.768-96l6.677333 0.106667C675.328 100.309333 800 227.605333 800 384c0 159.061333-128.938667 288-288 288S224 543.061333 224 384h-64c0 194.410667 157.589333 352 352 352zM469.333333 576h64v-160h160v-64H469.333333V576z"  horiz-adv-x="1024" />

    
    <glyph glyph-name="data" unicode="&#59129;" d="M469.333333 744.192v-64.554667c-144.746667-20.693333-256-145.173333-256-295.637333 0-164.949333 133.717333-298.666667 298.666667-298.666667 150.464 0 274.944 111.253333 295.637333 256h64.554667c-21.12-180.181333-174.336-320-360.192-320-200.298667 0-362.666667 162.368-362.666667 362.666667 0 185.856 139.818667 339.072 320 360.192zM512 746.666667c197.973333 0 358.933333-158.656 362.602667-355.776L874.666667 384H512V746.666667z m64-70.869334V448h227.797333a299.093333 299.093333 0 0 1-220.885333 226.197333L576 675.797333z"  horiz-adv-x="1024" />

    
    <glyph glyph-name="gift" unicode="&#59130;" d="M592.234667 746.666667l6.784-0.106667a111.146667 111.146667 0 0 0 95.872-158.421333h133.077333a64 64 0 0 0 64-64v-75.797334a64 64 0 0 0-64-64h-3.946667v-298.346666a64 64 0 0 0-64-64h-483.413333a64 64 0 0 0-64 64l-0.021333 298.346666H208.64a64 64 0 0 0-64 64v75.797334a64 64 0 0 0 64 64h122.410667a111.146667 111.146667 0 0 0 95.872 158.442666L433.706667 746.666667a112.853333 112.853333 0 0 0 79.253333-32.384A112.810667 112.810667 0 0 0 592.234667 746.666667z m-107.904-362.325334h-207.744v-298.346666l207.744 0.021333V384.341333z m275.690666 0h-207.744v-298.325333h207.744V384.32zM484.330667 524.16H208.64v-75.818667h3.925333v1.941334l271.744 0.021333V524.16z m343.637333 0H552.277333v-73.856l271.744-0.021333v-1.941334h3.946667v75.797334zM433.706667 682.666667h-2.090667a47.146667 47.146667 0 0 1 0-94.293334h47.36v45.056c0 5.546667 0.426667 10.986667 1.173333 16.298667A49.216 49.216 0 0 1 433.728 682.666667z m160.597333 0h-2.090667a49.258667 49.258667 0 0 1-46.464-32.96c0.789333-5.290667 1.173333-10.730667 1.173334-16.277334v-45.056h47.36a47.146667 47.146667 0 0 1 47.04 43.776l0.128 3.370667c0 26.026667-21.12 47.146667-47.146667 47.146667z"  horiz-adv-x="1024" />

    
    <glyph glyph-name="integral" unicode="&#59131;" d="M168.106667 274.56l120.746666-57.962667 223.274667-108.138666 215.317333 104.32 128.768 61.674666a64 64 0 0 0-29.952-84.970666l-286.229333-138.624a64 64 0 0 0-55.808 0L197.994667 189.482667A64 64 0 0 0 168.106667 274.56z m687.829333 133.930667a64 64 0 0 0-29.674667-85.546667L540.010667 184.32a64 64 0 0 0-55.808 0L197.994667 322.944A64 64 0 0 0 166.826667 405.12l317.013333-149.525333 28.288-13.696 286.229333 138.624-0.149333 0.064 57.728 27.882666zM540.032 710.208l286.208-138.602667a64 64 0 0 0 0-115.2l-286.208-138.624a64 64 0 0 0-55.808 0L197.994667 456.405333a64 64 0 0 0 0 115.2L484.224 710.186667a64 64 0 0 0 55.808 0z m-27.904-57.6l-286.229333-138.602667 286.229333-138.624 286.229333 138.624-286.229333 138.602667z"  horiz-adv-x="1024" />

    
    <glyph glyph-name="play" unicode="&#59137;" d="M512 746.666667c200.298667 0 362.666667-162.368 362.666667-362.666667s-162.368-362.666667-362.666667-362.666667S149.333333 183.701333 149.333333 384 311.701333 746.666667 512 746.666667z m0-64c-164.949333 0-298.666667-133.717333-298.666667-298.666667s133.717333-298.666667 298.666667-298.666667 298.666667 133.717333 298.666667 298.666667-133.717333 298.666667-298.666667 298.666667z m-64-141.312a42.666667 42.666667 0 0 0 22.741333-6.570667l176.533334-111.232a42.666667 42.666667 0 0 0 0.32-71.978667l-176.533334-113.429333A42.666667 42.666667 0 0 0 405.333333 274.026667v224.64a42.666667 42.666667 0 0 0 42.666667 42.666666z m21.333333-81.322667v-146.922667l115.456 74.176L469.333333 460.032z"  horiz-adv-x="1024" />

    
    <glyph glyph-name="QRcode" unicode="&#59140;" d="M491.925333 363.925333V42.666667H170.666667V363.925333h321.258666zM597.333333 106.666667v-64h-64v64h64z m256 85.333333v-149.333333h-128v64h64v85.333333h64z m-425.408 107.925333H234.666667V106.666667h193.258666v193.258666zM661.333333 298.666667v-128h64v-64h-128v192h64z m-277.333333-42.666667v-106.666667h-106.666667v106.666667h106.666667z m405.333333 0v-64h-64v64h64z m64 106.666667v-106.666667h-64v42.666667h-64v64h128z m-256 0v-64h-64v64h64zM491.925333 725.333333v-321.258666H170.666667V725.333333h321.258666zM853.333333 725.333333v-321.258666H532.074667V725.333333H853.333333z m-425.408-64H234.666667v-193.258666h193.258666V661.333333zM789.333333 661.333333h-193.258666v-193.258666H789.333333V661.333333z m-405.333333-42.666666v-106.666667h-106.666667v106.666667h106.666667z m362.666667 0v-106.666667h-106.666667v106.666667h106.666667z"  horiz-adv-x="1024" />

    
    <glyph glyph-name="add" unicode="&#59202;" d="M512 746.666667c200.298667 0 362.666667-162.368 362.666667-362.666667s-162.368-362.666667-362.666667-362.666667S149.333333 183.701333 149.333333 384 311.701333 746.666667 512 746.666667z m0-64c-164.949333 0-298.666667-133.717333-298.666667-298.666667s133.717333-298.666667 298.666667-298.666667 298.666667 133.717333 298.666667 298.666667-133.717333 298.666667-298.666667 298.666667z m32-106.666667v-160H704v-64h-160V192h-64v160.021333L320 352v64l160 0.021333V576h64z"  horiz-adv-x="1024" />

    
    <glyph glyph-name="delete" unicode="&#59208;" d="M260.15427202 556.81989985l40.87976236-579.51225758h400.3765759l40.84834107 579.51225758h94.4225082L795.42463707-29.322358509999958a94.26540019 94.26540019 0 0 0-94.01402679-87.63539941H301.03403438a94.26540019 94.26540019 0 0 0-94.0140253 87.66682221L165.70034102 556.81989985h94.453931z m205.18435488-29.19085128v-439.90520135h-94.26540018v439.90520135h94.26540018z m172.34857285 0v-439.90520135h-94.26540019v439.90520135h94.26540019zM24.96209854 713.9289006399999h942.65400187v-94.26540016h-942.65400187v94.26540016z m667.93320441 157.10900082v-94.26540018h-377.06160073v94.26540018h377.06160073z"  horiz-adv-x="1024" />

    
    <glyph glyph-name="atm" unicode="&#59209;" d="M225.173333 746.602667L227.264 746.666667c2.261333-0.042667 4.181333-0.213333 6.101333-0.597334l2.986667-0.725333 3.968-0.938667c23.893333-6.186667 70.186667-26.645333 97.792-45.653333a363.754667 363.754667 0 0 0 173.653333 44.458667c200.106667 0 362.901333-161.92 362.901334-360.96C874.666667 183.253333 711.872 21.333333 511.786667 21.333333 308.544 21.333333 149.333333 183.744 149.333333 391.061333c0 15.146667 7.530667 82.026667 14.186667 100.778667 1.813333 8.661333 12.565333 51.413333 53.717333 103.509333 1.493333 20.202667 3.626667 71.786667-14.208 108.672a33.984 33.984 0 0 0-2.453333 9.813334l-0.256 3.072-0.298667 2.666666a25.344 25.344 0 0 0 4.821334 15.744 27.306667 27.306667 0 0 0 19.370666 11.264l0.96 0.021334 2.090667 0.064zM512 682.666667c-66.410667 0-127.786667-21.674667-177.344-58.304-9.344 6.677333-18.773333 13.098667-28.266667 19.285333-11.84 7.68-20.906667 13.077333-27.2 16.192 2.197333-12.714667 3.285333-23.189333 3.285334-31.445333 0-7.701333-0.96-25.301333-2.858667-52.757334l-0.298667-4.373333A297.408 297.408 0 0 1 213.333333 384c0-164.949333 133.717333-298.666667 298.666667-298.666667s298.666667 133.717333 298.666667 298.666667-133.717333 298.666667-298.666667 298.666667z m-10.666667-170.666667a32 32 0 0 0 32-32v-64a32 32 0 0 0-64 0v64a32 32 0 0 0 32 32z m170.666667 0a32 32 0 0 0 32-32v-64a32 32 0 0 0-64 0v64a32 32 0 0 0 32 32zM263.765333 725.12c0.085333-0.789333 0.149333-1.557333 0.192-2.346667l0.192-1.429333-0.213333 3.413333-0.170667 0.362667z"  horiz-adv-x="1024" />

    
    <glyph glyph-name="bad" unicode="&#59210;" d="M581.674667 42.666667c6.72 0 18.538667 1.429333 27.584 4.352 44.544 14.442667 70.186667 61.76 59.797333 109.12l-1.066667 4.437333-39.701333 148.906667h157.269333c19.093333 0 37.973333 7.082667 50.773334 21.248a64.853333 64.853333 0 0 1 15.616 57.109333l-1.066667 4.352-82.922667 295.253333a51.882667 51.882667 0 0 1-46.08 37.76L718.037333 725.333333H298.666667v-400.832c84.949333-18.389333 209.194667-244.373333 209.194666-244.373333 17.664-23.957333 39.082667-37.461333 73.813334-37.461333zM234.666667 320V725.333333H170.666667v-405.333333h64z m347.008-213.333333c-9.6 0-13.546667 1.109333-18.453334 6.613333l-1.706666 2.005333-8.064 14.08-8.64 14.613334a1342.848 1342.848 0 0 1-63.189334 96.426666c-24.512 33.92-48.597333 63.146667-72.234666 86.464-15.722667 15.509333-31.146667 28.437333-46.72 38.464V661.333333h346.154666L789.333333 374.485333c0-0.277333-0.128-0.448-0.490666-0.853333 0.298667 0.341333-0.853333-0.149333-3.285334-0.149333H544.981333l61.162667-229.44c4.394667-16.426667-3.626667-31.936-16.597333-36.138667a46.016 46.016 0 0 0-7.893334-1.237333z"  horiz-adv-x="1024" />

    
    <glyph glyph-name="attachent" unicode="&#59211;" d="M787.968 423.722667L505.173333 139.264a151.488 151.488 0 0 0-215.168 0c-59.52 59.882667-59.52 157.077333 0 216.96l287.018667 288.725333a91.349333 91.349333 0 0 0 129.770667 0 93.098667 93.098667 0 0 0 0-131.072L428.032 233.493333a31.701333 31.701333 0 0 0-45.098667 0 32.64 32.64 0 0 0 0 45.909334l250.133334 251.648-45.397334 45.12-250.133333-251.648a96.64 96.64 0 0 1 0-136.170667 95.701333 95.701333 0 0 1 135.893333 0l278.72 280.405333a157.098667 157.098667 0 0 1 0 221.312 155.349333 155.349333 0 0 1-220.522666 0L244.608 401.365333c-84.373333-84.864-84.373333-222.378667 0-307.221333a215.488 215.488 0 0 1 305.92 0l282.837333 284.458667-45.397333 45.12z"  horiz-adv-x="1024" />

    
    <glyph glyph-name="browse" unicode="&#59212;" d="M512 661.333333c131.946667 0 252.245333-80.512 360.874667-241.536a64 64 0 0 0 2.410666-67.712l-2.410666-3.882666-6.058667-8.853334C759.786667 184.234667 641.493333 106.666667 512 106.666667c-131.946667 0-252.245333 80.512-360.874667 241.536a64 64 0 0 0-2.410666 67.712l2.410666 3.882666 6.058667 8.853334C264.213333 583.765333 382.506667 661.333333 512 661.333333z m0-64c-105.770667 0-206.037333-65.749333-301.952-204.757333L204.181333 384l5.888-8.597333C306.069333 236.352 406.314667 170.666667 512 170.666667c105.770667 0 206.037333 65.749333 301.952 204.757333l5.866667 8.576-5.888 8.597333C717.930667 531.648 617.685333 597.333333 512 597.333333z m0-77.482666a141.482667 141.482667 0 1 0 0-282.944 141.482667 141.482667 0 0 0 0 282.944z m0-64a77.482667 77.482667 0 1 1 0-154.944 77.482667 77.482667 0 0 1 0 154.944z"  horiz-adv-x="1024" />

    
    <glyph glyph-name="atm-away" unicode="&#59213;" d="M227.264 746.666667c2.261333-0.042667 4.181333-0.213333 6.101333-0.597334l2.986667-0.725333 3.968-0.938667c23.893333-6.186667 70.186667-26.645333 97.792-45.653333a363.754667 363.754667 0 0 0 173.653333 44.458667c200.106667 0 362.901333-161.92 362.901334-360.96C874.666667 183.253333 711.872 21.333333 511.786667 21.333333c-37.994667 0-74.453333 5.674667-108.586667 16.256a213.802667 213.802667 0 0 1 41.770667 55.296c21.546667-4.949333 43.968-7.552 67.029333-7.552 164.949333 0 298.666667 133.717333 298.666667 298.666667s-133.717333 298.666667-298.666667 298.666667c-66.410667 0-127.786667-21.674667-177.344-58.304-9.344 6.677333-18.773333 13.098667-28.266667 19.285333-11.84 7.68-20.906667 13.077333-27.2 16.192 2.197333-12.714667 3.285333-23.189333 3.285334-31.445333 0-7.701333-0.96-25.301333-2.858667-52.757334l-0.298667-4.373333a297.28 297.28 0 0 1-65.493333-170.133333 211.2 211.2 0 0 1-64.256-24.213334c-0.149333 4.693333-0.234667 9.386667-0.234667 14.144 0 15.146667 7.530667 82.026667 14.186667 100.778667 1.813333 8.661333 12.565333 51.413333 53.717333 103.509333 1.493333 20.202667 3.626667 71.786667-14.208 108.672a33.984 33.984 0 0 0-2.453333 9.813334l-0.256 3.072-0.298667 2.666666a25.344 25.344 0 0 0 4.821334 15.744 27.306667 27.306667 0 0 0 19.370666 11.264l0.96 0.021334 2.090667 0.064zM256 362.666667a170.666667 170.666667 0 1 0 0-341.333334 170.666667 170.666667 0 0 0 0 341.333334z m0-64a106.666667 106.666667 0 1 1 0-213.333334 106.666667 106.666667 0 0 1 0 213.333334z m32-24.384v-56.384h49.28v-64H256a32 32 0 0 0-32 32v88.384h64zM501.333333 512a32 32 0 0 0 32-32v-64a32 32 0 0 0-64 0v64a32 32 0 0 0 32 32z m170.666667 0a32 32 0 0 0 32-32v-64a32 32 0 0 0-64 0v64a32 32 0 0 0 32 32zM263.765333 725.12c0.085333-0.789333 0.149333-1.557333 0.192-2.346667l0.192-1.429333-0.213333 3.413333-0.170667 0.362667z"  horiz-adv-x="1024" />

    
    <glyph glyph-name="calendar" unicode="&#59214;" d="M234.666667 682.666667h57.706666v-63.978667L234.666667 618.666667v-106.666667h554.666666v106.666667h-55.232v64H789.333333a64 64 0 0 0 64-64v-512a64 64 0 0 0-64-64H234.666667a64 64 0 0 0-64 64V618.666667a64 64 0 0 0 64 64z m554.666666-234.666667H234.666667v-341.333333h554.666666V448z m-384-192v-64h-106.666666v64h106.666666z m160 0v-64h-106.666666v64h106.666666z m160 0v-64h-106.666666v64h106.666666z m-320 128v-64h-106.666666v64h106.666666z m160 0v-64h-106.666666v64h106.666666z m160 0v-64h-106.666666v64h106.666666zM697.728 725.333333v-106.666666h-64.021333V725.333333h64z m-104.170667-42.666666v-64l-160.618666 0.021333V682.666667h160.618666z m-197.013333 42.666666v-106.666666h-64V725.333333h64z"  horiz-adv-x="1024" />

    
    <glyph glyph-name="cart" unicode="&#59215;" d="M330.666667 128a53.333333 53.333333 0 1 0 0-106.666667 53.333333 53.333333 0 0 0 0 106.666667z m384 0a53.333333 53.333333 0 1 0 0-106.666667 53.333333 53.333333 0 0 0 0 106.666667zM94.762667 736h54.741333a96 96 0 0 0 92.906667-71.786667l1.024-4.394666L256.64 597.333333h0.213333l42.88-205.333333L332.224 234.66666699999996h402.218667l61.653333 298.666666H313.813333l-13.376 64h495.68a64 64 0 0 0 62.677334-76.949333l-61.653334-298.666667A64 64 0 0 0 734.442667 170.66666699999996H332.224a64 64 0 0 0-62.677333 51.050666l-60.586667 293.418667-0.405333-0.085333-27.733334 131.562666a32 32 0 0 1-28.309333 25.237334l-2.986667 0.149333H94.741333v64h54.741334zM682.666667 426.666667v-64H384v64h298.666667z"  horiz-adv-x="1024" />

    
    <glyph glyph-name="camera" unicode="&#59216;" d="M298.666667 42.66666699999996v64h76.8l22.016 109.994666C301.461333 260.266667 234.666667 356.99199999999996 234.666667 469.333333c0 153.173333 124.16 277.333333 277.333333 277.333334s277.333333-124.16 277.333333-277.333334c0-112.32-66.773333-209.066667-162.794666-252.650666L648.533333 106.66666699999996H725.333333v-64H298.666667z m267.52 149.333333h-108.373334l-17.066666-85.333333h142.506666l-17.066666 85.333333zM512 682.666667c-117.824 0-213.333333-95.509333-213.333333-213.333334s95.509333-213.333333 213.333333-213.333333 213.333333 95.509333 213.333333 213.333333-95.509333 213.333333-213.333333 213.333334z m0-64a149.333333 149.333333 0 1 0 0-298.666667 149.333333 149.333333 0 0 0 0 298.666667z m0-64a85.333333 85.333333 0 1 1 0-170.666667 85.333333 85.333333 0 0 1 0 170.666667z"  horiz-adv-x="1024" />

    
    <glyph glyph-name="category" unicode="&#59217;" d="M256 161.898667v-64H170.666667v64h85.333333z m597.333333 0v-64H298.666667v64h554.666666zM256 402.816v-64H170.666667v64h85.333333z m597.333333 0v-64H298.666667v64h554.666666zM256 643.754667v-64H170.666667v64h85.333333z m597.333333 0v-64H298.666667v64h554.666666z"  horiz-adv-x="1024" />

    
    <glyph glyph-name="close" unicode="&#59218;" d="M282.517333 682.624l-45.354666-45.162667L489.472 384 237.162667 130.538667l45.354666-45.162667L534.613333 338.645333l252.096-253.269333 45.354667 45.162667-252.288 253.44 252.288 253.482666-45.354667 45.162667L534.613333 429.376l-252.096 253.226667z"  horiz-adv-x="1045" />

    
    <glyph glyph-name="confirm" unicode="&#59219;" d="M725.333333 682.666667v-64h21.312H234.666667v-469.333334h512V384.021333L810.666667 384v64.042667V149.333333a64 64 0 0 0-64-64H234.666667a64 64 0 0 0-64 64V618.666667a64 64 0 0 0 64 64h490.666666z m105.152-41.6l45.696-44.8-315.626666-322.090667-156.842667 161.365333 45.909333 44.608 111.125334-114.346666L830.485333 641.066667z m-41.173333 25.301333c0.896-0.789333 1.749333-1.6 2.581333-2.432l-2.56-2.581333v5.013333z"  horiz-adv-x="1024" />

    
    <glyph glyph-name="company" unicode="&#59220;" d="M619.712 697.813333v-603.264h44.544v0.853334h102.762667V449.92l-102.762667 36.181333v67.818667l144.576-50.88c12.778667-8.298667 20.864-22.037333 22.037333-37.077333l0.149334-3.797334-0.021334-367.594666h48.917334v-64h-666.453334v64h48.64l0.021334 489.493333c0 16.810667 8.661333 32.426667 22.912 41.365333l260.053333 113.770667c32.490667 20.288 74.624-3.050667 74.624-41.344z m-64-23.850666l-229.589333-100.437334v-478.101333H555.733333V362.538667l-0.426666-0.192v29.610666l0.426666-1.002666V514.133333l-0.426666-0.192v29.525334l0.426666-0.981334v131.477334z m-43.392-260.138667v-69.226667l-142.762667-58.965333v69.248l142.762667 58.944z m0 151.36v-69.525333l-142.762667-60.757334v69.546667l142.762667 60.736z"  horiz-adv-x="1024" />

    
    <glyph glyph-name="credit-level" unicode="&#59221;" d="M679.701333 682.666667a64 64 0 0 0 49.173334-23.04l2.496-3.2 131.136-179.413334a64 64 0 0 0-1.898667-78.016l-2.709333-3.136L554.261333 66.56a64 64 0 0 0-91.349333-2.816l-2.816 2.901333L163.093333 389.717333a64 64 0 0 0-7.296 77.013334l2.282667 3.413333 132.138667 185.642667a64 64 0 0 0 48 26.752l4.138666 0.128h337.344z m0-64H342.357333l-132.138666-185.642667 296.981333-323.093333L810.837333 439.253333 679.701333 618.666667zM640 490.666667v-64H384v64h256z"  horiz-adv-x="1024" />

    
    <glyph glyph-name="double-arro-right" unicode="&#59222;" d="M533.333333 662.613333l278.613334-278.485333L533.333333 105.386667l-45.248 45.226666 233.386667 233.514667-233.386667 233.258667L533.333333 662.613333z m-234.666666 0l278.613333-278.485333L298.666667 105.386667l-45.248 45.226666 233.386666 233.514667-233.386666 233.258667L298.666667 662.613333z"  horiz-adv-x="1024" />

    
    <glyph glyph-name="double-arrow-left" unicode="&#59223;" d="M724.053333 662.613333l45.226667-45.248-233.365333-233.258666 233.386666-233.493334-45.269333-45.226666-278.613333 278.741333 278.613333 278.485333z m-234.666666 0l45.226666-45.248-233.365333-233.258666 233.386667-233.493334-45.269334-45.226666L210.773333 384.106667l278.613334 278.485333z"  horiz-adv-x="1024" />

    
    <glyph glyph-name="download" unicode="&#59224;" d="M704 554.666667h64a64 64 0 0 0 64-64v-362.666667a64 64 0 0 0-64-64H256a64 64 0 0 0-64 64V490.666667a64 64 0 0 0 64 64h64v-64h-64v-362.666667h512V490.666667h-64v64z m-154.794667 212.266666l0.042667-347.456 74.005333 74.026667 45.226667-45.248-150.826667-150.848-150.848 150.826667 45.248 45.269333 73.173334-73.173333V766.933333h64z"  horiz-adv-x="1024" />

    
    <glyph glyph-name="email" unicode="&#59225;" d="M874.666667 520.810667V149.333333a64 64 0 0 0-64-64H213.333333a64 64 0 0 0-64 64V520.810667l64-54.250667V149.333333h597.333334V466.56l64 54.250667zM810.666667 682.666667a64.789333 64.789333 0 0 0 22.826666-4.181334 63.616 63.616 0 0 0 26.794667-19.413333 64.32 64.32 0 0 0 9.344-15.466667c2.773333-6.570667 4.48-13.696 4.906667-21.184L874.666667 618.666667v-21.333334L553.536 323.413333a64 64 0 0 0-79.893333-2.538666l-3.178667 2.56L149.333333 597.333333v21.333334a63.786667 63.786667 0 0 0 35.136 57.130666A63.872 63.872 0 0 0 213.333333 682.666667h597.333334z m-9.6-64h-578.133334L512 372.117333 801.066667 618.666667z"  horiz-adv-x="1024" />

    
    <glyph glyph-name="help" unicode="&#59227;" d="M512 746.666667c200.298667 0 362.666667-162.368 362.666667-362.666667s-162.368-362.666667-362.666667-362.666667S149.333333 183.701333 149.333333 384 311.701333 746.666667 512 746.666667z m0-64c-164.949333 0-298.666667-133.717333-298.666667-298.666667s133.717333-298.666667 298.666667-298.666667 298.666667 133.717333 298.666667 298.666667-133.717333 298.666667-298.666667 298.666667z m39.658667-426.666667v-64h-59.946667l-0.021333 64h59.968z m-3.541334 316.757333c38.72-7.808 84.778667-44.736 84.778667-98.453333 0-53.738667-43.882667-74.069333-59.605333-84.117333-14.506667-9.28-20.672-19.882667-21.525334-31.189334l-0.106666-2.816V298.666667h-59.968v79.338666c0 18.816 6.037333 32 22.826666 43.648l3.776 2.496 33.685334 22.4c21.482667 14.464 21.184 43.498667 7.893333 56.32a60.373333 60.373333 0 0 1-52.842667 13.546667c-37.376-7.338667-41.685333-33.706667-41.941333-59.306667v-14.485333H405.333333c0 49.834667 5.717333 72.426667 32.298667 100.970667 29.781333 31.893333 71.744 37.013333 110.485333 29.162666z"  horiz-adv-x="1024" />

    
    <glyph glyph-name="good" unicode="&#59228;" d="M581.674667 725.333333c6.72 0 18.538667-1.429333 27.584-4.352 44.544-14.442667 70.186667-61.76 59.797333-109.12l-1.066667-4.437333-39.701333-148.906667h157.269333c19.093333 0 37.973333-7.082667 50.773334-21.248 14.293333-15.829333 19.861333-36.778667 15.616-57.109333l-1.066667-4.352-82.922667-295.253333a51.882667 51.882667 0 0 0-46.08-37.76l-3.84-0.128H298.666667V443.498667c84.949333 18.389333 209.194667 244.373333 209.194666 244.373333C525.525333 711.829333 546.944 725.333333 581.674667 725.333333zM234.666667 448v-405.333333H170.666667V448h64z m347.008 213.333333c-9.6 0-13.546667-1.109333-18.453334-6.613333l-1.706666-2.005333-8.064-14.08-8.64-14.613334a1342.848 1342.848 0 0 0-63.189334-96.426666c-24.512-33.92-48.597333-63.146667-72.234666-86.464-15.722667-15.509333-31.146667-28.437333-46.72-38.464V106.666667h346.154666L789.333333 393.514667c0 0.277333-0.128 0.448-0.490666 0.853333 0.298667-0.341333-0.853333 0.149333-3.285334 0.149333H544.981333l61.162667 229.44c4.394667 16.426667-3.626667 31.936-16.597333 36.138667a46.016 46.016 0 0 1-7.893334 1.237333z"  horiz-adv-x="1024" />

    
    <glyph glyph-name="form" unicode="&#59230;" d="M789.333333 725.333333a64 64 0 0 0 64-64v-554.666666a64 64 0 0 0-64-64H234.666667a64 64 0 0 0-64 64V661.333333a64 64 0 0 0 64 64h554.666666zM341.333333 202.666667h-106.666666V106.666667h106.666666v96z m448 0H405.333333V106.666667h384v96zM341.333333 362.666667h-106.666666v-96h106.666666V362.666667z m448 0H405.333333v-96h384V362.666667z m-554.666666 160V426.666667h106.666666v96h-106.666666zM789.333333 661.333333H234.666667v-74.666666h554.666666V661.333333zM405.333333 426.666667h384v96H405.333333V426.666667z"  horiz-adv-x="1024" />

    
    <glyph glyph-name="hot" unicode="&#59231;" d="M448.533333 740.202667c67.968-53.098667 115.498667-104.618667 142.592-154.602667 25.664-47.36 35.968-95.808 30.912-145.344l-0.981333-8.256 5.034667 4.117333a143.829333 143.829333 0 0 1 40.533333 57.536l2.218667 6.122667 6.336 19.029333c67.776-46.037333 101.674667-124.010667 101.674666-233.898666 0-164.821333-144.426667-270.037333-263.125333-270.037334-118.72 0-253.866667 70.506667-275.733333 218.069334-21.845333 147.541333 68.757333 216.426667 130.474666 312.533333 41.173333 64.064 67.84 128.981333 80.064 194.730667z m27.754667-127.744a672.576 672.576 0 0 0-53.973333-101.568l-6.826667-10.453334c-6.933333-10.346667-14.293333-20.629333-23.744-33.365333l-33.749333-45.013333c-52.416-71.786667-66.666667-112.405333-56.682667-179.754667 14.72-99.562667 105.706667-163.434667 212.416-163.434667 99.562667 0 199.125333 91.669333 199.125333 206.037334 0 51.221333-8.106667 92.010667-23.978666 123.712-6.784-7.765333-14.186667-15.104-22.208-21.973334l-131.029334-107.456 21.994667 161.450667c5.269333 38.656-2.048 76.202667-22.762667 114.453333-10.88 20.074667-26.346667 41.109333-46.442666 62.933334l-6.869334 7.296-5.269333-12.864z"  horiz-adv-x="1024" />

    
    <glyph glyph-name="map" unicode="&#59232;" d="M512 768c164.949333 0 298.666667-129.941333 298.666667-290.261333 0-3.392-0.064-6.784-0.213334-10.24-3.669333-95.914667-58.24-203.776-147.797333-313.173334a1260.714667 1260.714667 0 0 0-139.818667-144.768l-10.837333-9.322666-10.837333 9.322666-13.013334 11.626667a1260.714667 1260.714667 0 0 0-126.805333 133.162667c-89.557333 109.376-144.128 217.237333-147.818667 313.173333-0.128 3.413333-0.192 6.826667-0.192 10.24 0 158.08 130.069333 286.677333 291.904 290.176L512 768z m0-64c-130.005333 0-234.666667-101.717333-234.666667-226.261333 0-2.56 0.042667-5.141333 0.149334-7.765334 2.944-76.608 48.554667-171.52 133.376-275.093333a1184.682667 1184.682667 0 0 1 86.613333-94.506667l14.528-14.016 14.506667 14.016a1184.682667 1184.682667 0 0 1 86.634666 94.506667c84.821333 103.573333 130.432 198.485333 133.376 275.093333 0.106667 2.624 0.149333 5.205333 0.149334 7.765334C746.666667 602.282667 642.005333 704 512 704z m0-74.666667a149.333333 149.333333 0 1 0 0-298.666666 149.333333 149.333333 0 0 0 0 298.666666z m0-64a85.333333 85.333333 0 1 1 0-170.666666 85.333333 85.333333 0 0 1 0 170.666666z"  horiz-adv-x="1024" />

    
    <glyph glyph-name="office" unicode="&#59233;" d="M788.992 731.157333l63.445333-103.829333a64 64 0 0 0-18.069333-85.930667l-3.84-2.474666-0.362667-0.170667 33.472-86.037333a64 64 0 0 0-48.597333-86.229334l-335.786667-58.922666v-44.586667H812.16a64 64 0 0 0 60.096-41.941333l21.76-59.285334a64 64 0 0 0-60.074667-86.058666H288.149333a64 64 0 0 0-63.893333 60.245333l-0.106667 4.266667 0.448 59.264c0.042667 5.866667 0.874667 11.541333 2.410667 16.938666L152.533333 345.429333a64 64 0 0 0 22.144 86.677334L701.12 752.469333a64 64 0 0 0 87.872-21.312z m23.146667-532.181333H288.597333l-0.448-59.285333H833.92l-21.76 59.285333z m-396.693334 64v33.386667l-7.232-1.258667-55.658666-32.128h62.890666zM734.378667 697.813333L207.957333 377.429333l53.717334-93.034666 536.170666 309.546666-63.466666 103.850667z m42.688-199.061333l-192.277334-107.669333 219.2 38.442666-26.922666 69.226667z"  horiz-adv-x="1024" />

    
    </font>
</defs>
</svg>
