<?xml version="1.0" standalone="no"?>
<!DOCTYPE svg PUBLIC "-//W3C//DTD SVG 1.1//EN" "http://www.w3.org/Graphics/SVG/1.1/DTD/svg11.dtd" >
<!--
2013-9-30: Created.
-->
<svg>
<metadata>
Created by iconfont
</metadata>
<defs>

<font id="iconfont" horiz-adv-x="1024" >
  <font-face
    font-family="iconfont"
    font-weight="500"
    font-stretch="normal"
    units-per-em="1024"
    ascent="896"
    descent="-128"
  />
    <missing-glyph />
    
    <glyph glyph-name="sort-up" unicode="&#58986;" d="M366.36444445 830.30243556V-65.13777777999996q0-15.94709333 10.23089777-26.17799111T402.77333333-101.54666667000004t26.17799112 10.23089778T439.18222222-65.13777777999996V741.53756444l276.48910223-275.36042667q11.39598222-11.39598222 25.59544888-11.39598221t25.04931556 11.39598221 10.81344 25.59544889-10.23089778 25.5954489L428.98773333 855.27893333q-7.97354667 7.97354667-18.78698666 10.23089778t-21.04433778-2.29376-16.49322667-13.07079112-6.26232889-19.91566222z"  horiz-adv-x="1024" />

    
    <glyph glyph-name="sort-down" unicode="&#58933;" d="M589.6722963 850.03377778v-783.45456197L352.77179259 253.38108838999995c-6.73159902 5.30760691-16.82899753 0.51781531-16.82899753-8.15559111V161.33941728000002c0-12.68647506 5.82542222-24.72568098 15.79336691-32.49291061l269.2639605-212.30427654c27.1853037-21.35988148 67.05708247-2.07126124 67.05708247 32.49291062V850.03377778c0 5.69596839-4.66033778 10.35630617-10.35630618 10.35630617h-77.67229629c-5.69596839 0-10.35630617-4.66033778-10.35630617-10.35630617z"  horiz-adv-x="1024" />

    
    <glyph glyph-name="guolv" unicode="&#58926;" d="M657.63555555-89.31555555a39.3216 39.3216 0 0 0-16.0199111 3.64088888l-291.27111112 145.63555556A37.13706667 37.13706667 0 0 0 329.95555555 92.72888889000001V514.34382222L49.60711111 795.42044445a34.22435555 34.22435555 0 0 0-8.00995556 39.3216A36.40888889 36.40888889 0 0 0 75.09333333 857.31555555h873.81333334a36.40888889 36.40888889 0 0 0 33.49617778-22.5735111 34.22435555 34.22435555 0 0 0-8.00995556-39.3216L694.04444445 514.34382222V-52.90666667000005a37.86524445 37.86524445 0 0 0-17.47626667-31.31164444 42.96248889 42.96248889 0 0 0-18.93262223-5.09724444z m-254.86222222 204.61795555l218.45333334-109.22666667V529.6355555499999a34.22435555 34.22435555 0 0 0 10.92266666 25.48622223l228.64782222 229.376H163.20284445l228.64782222-229.376A34.22435555 34.22435555 0 0 0 402.77333333 529.6355555499999z"  horiz-adv-x="1024" />

    
    <glyph glyph-name="tongji" unicode="&#59561;" d="M547.32045486 358.49078313999996L247.09658973 812.42403393h445.4301793c90.26338452 0 166.79103632-60.17558969 230.23703747-180.52676783h15.04389802l-32.05004219 238.74011015H85.53821343L444.62950294 357.83669986999996l-359.09128951-461.78224143h820.2194489l32.05004219 239.39419341h-15.04389802c-60.17558969-96.80420986-128.85425205-145.20631418-205.38190265-145.20631418h-470.93939739l300.8779484 368.24844547z"  horiz-adv-x="1024" />

    
    <glyph glyph-name="text" unicode="&#58892;" d="M867.2 864H160c-51.2 0-92.8-41.6-92.8-92.8v-777.6c0-51.2 41.6-92.8 92.8-92.8h707.2c51.2 0 92.8 41.6 92.8 92.8V771.2C956.8 822.4 915.2 864 867.2 864z m32-867.2c0-16-16-32-32-32H160c-16 0-32 16-32 32V774.4c0 16 16 32 32 32h707.2c16 0 32-16 32-32v-777.6zM787.2 624H236.8c-19.2 0-35.2-16-35.2-35.2 0-19.2 16-35.2 35.2-35.2h550.4c19.2 0 35.2 16 35.2 35.2 0 19.2-16 35.2-35.2 35.2zM684.8 416h-448c-19.2 0-35.2-16-35.2-35.2 0-19.2 16-35.2 35.2-35.2h448c19.2 0 35.2 16 35.2 35.2 0 22.4-16 35.2-35.2 35.2zM582.4 211.20000000000005H236.8c-19.2 0-35.2-16-35.2-35.2 0-19.2 16-35.2 35.2-35.2h345.6c19.2 0 35.2 16 35.2 35.2 0 19.2-16 35.2-35.2 35.2z"  horiz-adv-x="1024" />

    
    <glyph glyph-name="clear" unicode="&#59615;" d="M958.17280259 45.366283169999974a38.13442697 38.13442697 0 0 0 0-54.15088657l-53.38819919-53.38819919a38.13442697 38.13442697 0 0 0-54.15088657 0L512 276.46091425l-338.63371683-338.63371684a38.13442697 38.13442697 0 0 0-54.15088657 0l-53.38819919 53.38819919a38.13442697 38.13442697 0 0 0 0 54.15088657L404.46091425 384 65.82719741 722.63371683a38.13442697 38.13442697 0 0 0 0 54.15088657l53.38819919 53.38819919a38.13442697 38.13442697 0 0 0 54.15088657 0L512 491.53908575l338.63371683 338.63371684a38.13442697 38.13442697 0 0 0 54.15088657 0l53.38819919-53.38819919a38.13442697 38.13442697 0 0 0 0-54.15088657L619.53908575 384z"  horiz-adv-x="1024" />

    
    <glyph glyph-name="remove" unicode="&#58886;" d="M972.657609 686.6515919999999C987.158609 686.63161 998.930114 698.428798 998.949999 713.00135 998.969882 727.573903 987.230618 739.40349 972.729617 739.423472L32.457975 740.719194C17.956974 740.739177 6.18547 728.941988 6.165585 714.369436 6.1457 699.796884 17.884965 687.967297 32.385966 687.947314L972.657609 686.6515919999999ZM180.466902-96.35616900000002L180.466902-123.014859 206.993296-122.74073999999996 833.361858-116.26794700000005 859.348284-115.99940700000002 859.348284-89.883377 859.348284 606.602703C859.348284 621.175268 847.59289 632.988668 833.091874 632.988668 818.590859 632.988668 806.835465 621.175268 806.835465 606.602703L806.835465-89.883377 832.82189-63.49880499999995 206.453329-69.97159899999997 232.979723-96.35616900000002 232.979723 613.32995C232.979723 627.902517 221.224329 639.715915 206.723313 639.715915 192.222298 639.715915 180.466902 627.902517 180.466902 613.32995L180.466902-96.35616900000002ZM656.410257 48.920973000000004C656.410257 34.34840699999995 668.165651 22.535007999999948 682.666667 22.535007999999948 697.167682 22.535007999999948 708.923076 34.34840699999995 708.923076 48.920973000000004L708.923076 523.868341C708.923076 538.4409089999999 697.167682 550.254306 682.666667 550.254306 668.165651 550.254306 656.410257 538.4409089999999 656.410257 523.868341L656.410257 48.920973000000004ZM341.333333 48.920973000000004C341.333333 34.34840699999995 353.08873 22.535007999999948 367.589743 22.535007999999948 382.090758 22.535007999999948 393.846155 34.34840699999995 393.846155 48.920973000000004L393.846155 523.868341C393.846155 538.4409089999999 382.090758 550.254306 367.589743 550.254306 353.08873 550.254306 341.333333 538.4409089999999 341.333333 523.868341L341.333333 48.920973000000004ZM498.871795 48.920973000000004C498.871795 34.34840699999995 510.627189 22.535007999999948 525.128205 22.535007999999948 539.62922 22.535007999999948 551.384614 34.34840699999995 551.384614 48.920973000000004L551.384614 523.868341C551.384614 538.4409089999999 539.62922 550.254306 525.128205 550.254306 510.627189 550.254306 498.871795 538.4409089999999 498.871795 523.868341L498.871795 48.920973000000004ZM392.147755 779.278223C392.147755 793.936331 403.758665 805.636493 418.40134 805.636493L622.925796 805.636493C637.408947 805.636493 649.179381 793.8380999999999 649.179381 779.450415L649.179381 724.355125 701.692203 724.355125 701.692203 779.450415C701.692203 823.013393 666.38105 858.408423 622.925796 858.408423L418.40134 858.408423C374.724427 858.408423 339.634933 823.0491959999999 339.634933 779.278223L339.634933 730.689199 392.147755 730.689199 392.147755 779.278223Z"  horiz-adv-x="1024" />

    
    <glyph glyph-name="upload" unicode="&#58913;" d="M522.7-27.466666669999995c-11.5 0-20.9 9.3-20.9 20.9V441.83333333c0 11.5 9.4 20.9 20.9 20.9 11.6 0 20.9-9.4 20.9-20.9v-448.4c0-11.6-9.4-20.9-20.9-20.9zM394.6 314.13333333c-5.3 0-10.7 2-14.8 6.1-8.2 8.2-8.2 21.4 0 29.6l128.1 128.1c8.2 8.2 21.4 8.2 29.6 0l128.1-128.1c8.2-8.2 8.2-21.4 0-29.6s-21.4-8.2-29.6 0L522.7 433.63333333 409.3 320.23333333000005c-4-4-9.4-6.1-14.7-6.1zM808.7 100.63333333000003H705.3c-11.6 0-20.9 9.3-20.9 20.9s9.3 20.9 20.9 20.9h103.4c95.7 0 173.5 77.8 173.5 173.5s-77.8 173.5-173.5 173.5h-58.5l3.7 24.1c2.2 14.3 3.2 26.3 3.2 37.7 0 135.2-110 245.1-245.1 245.1-107.8 0-201.8-69.1-234-171.8l-5.8-18.6-18.9 4.5c-84.1 19.9-158.1-44.5-158.1-125 0-9 1-18.3 3.1-27.6l2.4-11.2-8.1-8.1c-32.8-32.8-50.8-76.3-50.8-122.7 0-95.7 77.8-173.5 173.5-173.5H310c11.5 0 20.9-9.3 20.9-20.9s-9.4-20.9-20.9-20.9h-94.7C96.6 100.63333333000003 0 197.23333333000005 0 315.93333333c0 53.8 19.6 104.5 55.3 144.1-1.3 8.5-2 17-2 25.4 0 100.7 88 182.1 190.8 169.1C286.7 765.03333333 392.1 838.13333333 512 838.13333333c158.2 0 286.9-128.7 286.9-286.9 0-6.5-0.3-13.1-0.8-20h10.6c118.7 0 215.3-96.6 215.3-215.3 0-118.7-96.6-215.3-215.3-215.3z"  horiz-adv-x="1024" />

    
    <glyph glyph-name="arrow-left" unicode="&#59013;" d="M346.29910124 384L796.45320912 784.44383825c22.0934536 19.33177108 24.85513482 55.23363335 5.52336371 77.32708696-19.33177108 22.0934536-55.23363335 24.85513482-77.32708565 5.52336243l-497.1026963-441.86906295c-13.80840865-11.04672615-19.33177108-24.85513482-19.33177238-41.42522469s5.52336372-30.37849854 19.33177238-41.42522469l497.1026963-441.86906295c11.04672615-8.28504494 24.85513482-13.80840865 35.90186097-13.80840866 16.57008987 0 30.37849854 5.52336372 41.42522468 19.33177109 19.33177108 22.0934536 19.33177108 57.99531457-5.52336371 77.32708696L346.29910124 384z"  horiz-adv-x="1024" />

    
    <glyph glyph-name="arrow-up" unicode="&#59015;" d="M988.39008355 187.23018310999998l-440.14301154 440.14301155c-20.71261275 20.71261275-51.78153127 20.71261275-72.49414402 0l-440.14301154-440.14301155c-20.71261275-20.71261275-20.71261275-51.78153127 0-72.49414401 20.71261275-20.71261275 51.78153127-20.71261275 72.4941428 0L512 518.63197984l403.89594075-403.89594074c10.35630577-10.35630577 23.30168889-15.53445925 36.247072-15.53445926s25.89076502 5.17815349 36.2470708 15.53445926c20.71261275 20.71261275 20.71261275 51.78153127 0 72.49414401z"  horiz-adv-x="1024" />

    
    <glyph glyph-name="arrow-down" unicode="&#59016;" d="M988.39008355 627.3731946600001c-20.71261275 20.71261275-51.78153127 20.71261275-72.4941428 0L512 223.47725391999995 108.10405925 627.3731946600001c-20.71261275 20.71261275-51.78153127 20.71261275-72.4941428 0-20.71261275-20.71261275-20.71261275-51.78153127 0-72.49414281l440.14301154-440.14301275c10.35630577-10.35630577 23.30168889-15.53445925 36.24707201-15.53445926s25.89076502 5.17815349 36.24707201 15.53445926l440.14301154 440.14301275c20.71261275 20.71261275 20.71261275 51.78153127 0 72.49414281z"  horiz-adv-x="1024" />

    
    <glyph glyph-name="arrow-right" unicode="&#59018;" d="M796.45320912 425.42522469l-497.1026963 441.86906295c-22.0934536 19.33177108-57.99531457 19.33177108-77.32708565-5.52336243-19.33177108-22.0934536-19.33177108-57.99531457 5.52336371-77.32708696L677.70089876 384 227.54679088-16.44383825c-22.0934536-19.33177108-24.85513482-55.23363335-5.52336371-77.32708696 11.04672615-11.04672615 24.85513482-19.33177108 41.42522468-19.33177109 13.80840865 0 24.85513482 5.52336372 35.90186097 13.80840866l497.1026963 441.86906295c11.04672615 11.04672615 19.33177108 24.85513482 19.33177238 41.42522469s-5.52336372 30.37849854-19.33177238 41.42522469z"  horiz-adv-x="1024" />

    
    <glyph glyph-name="open-folder" unicode="&#58888;" d="M983.99 608.01c-8.01 12-20.01 15.99-32.01 15.99h-183.99L620 771.99c-8.01 8.01-15.99 12-27.99 12H72.02C48.02 783.99 32.03 768 32.03 744v-720c0-24 15.99-39.99 39.99-39.99h759.99c20.01 0 36 12 39.99 32.01l120 560.01c0 12 0 24-8.01 32.01z m-871.98 96h464.01L656.03 624H192.02c-20.01 0-36-12-39.99-32.01l-39.99-192V703.98zM800 63.99000000000001H119.99l104.01 480h680.01l-104.01-480z"  horiz-adv-x="1024" />

    
    <glyph glyph-name="folder" unicode="&#59017;" d="M129.97973333 765.7472H129.70666667a54.61333333 54.61333333 0 0 1-54.61333334-54.61333333V56.32000000000005a54.61333333 54.61333333 0 0 1 54.61333334-54.61333333h764.58666666a54.61333333 54.61333333 0 0 1 54.61333334 54.61333333V602.23488a54.61333333 54.61333333 0 0 1-54.83178667 54.39488l-359.13728-1.41994667a109.22666667 109.22666667 0 0 0-77.66016 32.00341334L395.89205333 748.59861333a54.61333333 54.61333333 0 0 1-38.33856 16.00170667l-227.57376 1.09226667z m0.27306667 54.61333333l227.62837333-1.14688a109.22666667 109.22666667 0 0 0 76.67712-32.00341333l61.33077334-61.38538667a54.61333333 54.61333333 0 0 1 38.88469333-16.00170666l359.08266667 1.41994666A109.22666667 109.22666667 0 0 0 1003.52 602.4533333300001v-546.13333333a109.22666667 109.22666667 0 0 0-109.22666667-109.22666667H129.70666667a109.22666667 109.22666667 0 0 0-109.22666667 109.22666667V711.13386667a109.22666667 109.22666667 0 0 0 109.22666667 109.22666666h0.54613333z"  horiz-adv-x="1024" />

    
    <glyph glyph-name="users" unicode="&#58911;" d="M767.952003 125.42416100000003v52.7967c70.523592 39.741516 127.992 138.743329 127.992 237.809137C895.944003 575.060059 895.944003 704.0119990000001 703.956003 704.0119990000001S511.968002 575.060059 511.968002 416.029998c0-99.065808 57.468408-198.067621 127.992-237.809137v-52.7967c-217.074433-17.726892-383.976001-124.408224-383.976001-253.360165h895.944003c0 128.951941-166.901569 235.633273-383.976001 253.360165zM327.147553 100.72170500000004c55.292544 36.15774 124.088244 63.612024 199.795513 80.378976a362.665333 362.665333 0 0 0-40.509468 59.004312 366.441097 366.441097 0 0 0-46.461096 175.861009c0 86.010624 0 167.285545 30.590088 233.777389 29.694144 64.507968 83.130804 104.505468 159.222048 119.480533C612.889694 845.699144 567.83651 895.936004 447.972002 895.936004c-191.988001 0-191.988001-128.951941-191.988001-287.982001 0-99.065808 57.468408-198.067621 127.992-237.809137v-52.7967c-217.074433-17.726892-383.976001-124.408224-383.976001-253.360165h278.958565c14.527092 12.927192 30.590088 25.150428 48.188988 36.669708z"  horiz-adv-x="1152" />

    
    <glyph glyph-name="bulb" unicode="&#59161;" d="M511.56148285 872.06924925c-200.84071538 0-363.96898228-163.1282669-363.96898107-363.96898227 0-143.83352551 85.94930134-274.51154493 216.62732076-332.39576911v-130.67801942c0-81.56413345 65.77752686-147.34166031 147.34166031-147.34166031s147.34166031 65.77752686 147.34166031 147.34166031V175.70449786999995c130.67802063 57.88422417 216.62732197 188.56224358 216.62732197 332.39576911 0 200.84071538-164.0053 363.96898228-363.96898228 363.96898227z m0-912.99207335c-31.57321318 0-58.76125727 16.66363969-73.67082955 41.22058449h146.46462601c-14.90957229-24.55694358-42.09761758-41.22058327-72.79379646-41.22058449z m105.24404273 265.74120915c-12.2784718-4.38516789-20.17177449-16.66363969-20.17177449-29.81914579v-133.30912112H425.6121815V196.75330666000002c0 13.15550489-7.89330269 23.67990928-20.17177448 28.94211148-117.52251453 43.85168498-196.45554627 157.8660647-196.45554749 283.28188314 0 166.6364017 135.94022161 302.57662331 302.57662332 302.57662331s302.57662331-135.94022161 302.57662332-302.57662331C814.13810617 382.68444976 734.32804132 268.67007003000003 616.80552558 224.81838504999996zM394.91600262 518.62467137m-33.32728058 0a33.32728059 33.32728059 0 1 1 66.65455995 0 33.32728059 33.32728059 0 1 1-66.65455995 0ZM511.56148285 518.62467137m-33.32727937 0a33.32728059 33.32728059 0 1 1 66.65455994 0 33.32728059 33.32728059 0 1 1-66.65455994 0ZM628.20696428 518.62467137m-33.32728058 0a33.32728059 33.32728059 0 1 1 66.65456116 0 33.32728059 33.32728059 0 1 1-66.65456116 0Z"  horiz-adv-x="1024" />

    
    <glyph glyph-name="computer" unicode="&#59162;" d="M622.94476208 460.74044841m-33.32728058 0a33.32728059 33.32728059 0 1 1 66.65456117 0 33.32728059 33.32728059 0 1 1-66.65456117 0ZM506.29928065 460.74044841m-33.32727937 0a33.32728059 33.32728059 0 1 1 66.65455995 0 33.32728059 33.32728059 0 1 1-66.65455995 0ZM389.65380043 460.74044841m-33.32728059 0a33.32728059 33.32728059 0 1 1 66.65455996 0 33.32728059 33.32728059 0 1 1-66.65455996 0ZM918.5051158 841.37307037H93.21641241c-44.72871807 0-80.68709915-35.95838108-80.68709915-80.68710035v-600.76807875c0-44.72871807 35.95838108-80.68709915 80.68709915-80.68709913h381.50965627v-75.42489695h-271.88044443c-16.66363969 0-30.69617888-14.03253919-30.6961801-30.6961801s14.03253919-30.69617888 30.6961801-30.69617887h606.03027972c16.66363969 0 30.69617888 14.03253919 30.69618008 30.69617887s-14.03253919 30.69617888-30.69618008 30.6961801h-271.88044322v75.42489695h381.50965505c44.72871807 0 80.68709915 35.95838108 80.68710036 80.68709913V760.68597002c0 44.72871807-35.95838108 80.68709915-80.68710036 80.68710035z m19.29474138-680.57814478c0-10.52440439-8.77033699-19.29474139-19.29474138-19.29474139H93.21641241c-10.52440439 0-19.29474139 8.77033699-19.29474139 19.29474139V760.68597002c0 10.52440439 8.77033699 19.29474139 19.29474139 19.29474138h825.28870339c10.52440439 0 19.29474139-8.77033699 19.29474138-19.29474138v-599.89104443z"  horiz-adv-x="1024" />

    
    <glyph glyph-name="guhua" unicode="&#59163;" d="M575.5849423 518.62467137m-33.32727936 0a33.32728059 33.32728059 0 1 1 66.65455995 0 33.32728059 33.32728059 0 1 1-66.65455995 0ZM692.23042374 518.62467137m-33.32728058 0a33.32728059 33.32728059 0 1 1 66.65456117 0 33.32728059 33.32728059 0 1 1-66.65456117 0ZM808.87590397 518.62467137m-33.32727938 0a33.32728059 33.32728059 0 1 1 66.65455995 0 33.32728059 33.32728059 0 1 1-66.65455995 0ZM878.16156562 797.5213854H556.29020092c-16.66363969 0-30.69617888-14.03253919-30.69617888-30.69617888s14.03253919-30.69617888 30.69617888-30.69617888h321.8713647c18.41770708 0 33.32728059-14.90957229 33.32728058-33.32728058v-707.76618886c0-18.41770708-14.90957229-33.32728059-33.32728058-33.32728059H145.83843438c-18.41770708 0-33.32728059 14.90957229-33.32728058 33.32728059V702.80174706c0 10.52440439 5.2622022 20.17177449 14.03253919 27.18804408 14.03253919 9.64737009 16.66363969 28.94211148 6.13923529 42.97465066-9.64737009 14.03253919-28.94211148 16.66363969-42.97465067 6.13923651-24.55694358-17.54067399-38.58948278-46.48278547-38.58948278-76.30193125v-707.76618886c0-52.62202197 42.97465068-94.71963834 94.71963955-94.71963955h732.32313124c52.62202197 0 94.71963834 42.97465068 94.71963955 94.71963955V702.80174706c0 52.62202197-42.09761758 94.71963834-94.71963955 94.71963834zM316.86000398 868.56111445c-80.68709915 0-135.06318851-46.48278547-135.06318852-115.76844712v-634.97239242c0-69.28566166 54.37608938-115.76844713 135.06318852-115.76844712h16.66363968c80.68709915 0 135.06318851 46.48278547 135.06318852 115.76844712V752.79266733c0 69.28566166-54.37608938 115.76844713-135.06318852 115.76844712h-16.66363968z m90.33447044-115.76844712v-634.97239242c0-49.11388718-50.86795457-54.37608938-73.67083076-54.37608936h-16.66363968c-21.92584189 0-73.67082955 5.2622022-73.67083076 54.37608936V752.79266733c0 49.11388718 50.86795457 54.37608938 73.67083076 54.37608937h16.66363968c21.92584189 0 73.67082955-5.2622022 73.67083076-54.37608937z"  horiz-adv-x="1024" />

    
    <glyph glyph-name="transport" unicode="&#59164;" d="M985.18708338 252.03383637000002c0 0.82221853 0 0.82221853 0 0L914.47624249 555.43267897c-18.91103858 79.75525149-83.04412786 123.33286286-133.19949198 123.33286286h-81.39968968c-15.62216221 0-28.7776677-13.15550549-28.77766769-28.7776677v-304.22106112c0-15.62216221 13.15550549-28.7776677 28.77766769-28.77766883h114.28845341c15.62216221 0 28.7776677 13.15550549 28.7776677 28.77766883s-13.15550549 28.7776677-28.7776677 28.7776677H729.47694819V621.21020643h52.62202198c18.08882005 0 62.48864995-19.73325824 77.28859364-78.93303296l69.88862236-302.57662293c7.39997127-38.64429682 1.64443819-60.84421291-18.08882006-68.24418417-14.79994368-4.93331456-23.02213461-21.37769643-18.08882005-36.17764011 4.1110949-12.33328583 15.62216221-19.73325824 27.13322951-19.73325824 3.28887637 0 6.57775275 0.82221853 9.0444106 1.64443819 23.84435314 9.04440946 75.64415545 37.82207829 55.91089721 134.84393016zM113.63485241 688.63217095h480.99816562c15.62216221 0 28.7776677 13.15550549 28.7776677 28.77766884s-13.15550549 28.7776677-28.7776677 28.7776677H113.63485241c-51.79980231 0-89.62188061-33.71098226-89.62187947-81.39968968V201.87847224999996c0-31.24432555 16.44438187-60.02199325 43.57761138-76.46637511 4.93331456-2.46665671 9.86662912-4.1110949 14.79994368-4.1110949 9.86662912 0 18.91103858 4.93331456 24.6665728 13.97772402 8.22219093 13.97772402 4.1110949 31.24432555-9.86662912 39.46651648-9.86662912 5.75553309-15.62216221 16.44438187-15.62216334 27.13322951V665.61003634c0 21.37769643 24.6665728 23.02213461 32.06654407 23.02213461zM733.58804309 272.58931427000005c-62.48864995 0-115.11067193-44.39983104-127.44395776-104.42182428h-213.77696199c-12.33328583 59.19977472-64.95530781 104.42182429-127.44395889 104.42182428-71.53306055 0-129.91061561-58.37755506-129.91061562-129.9106156S193.39010389 12.76808305999998 264.92316445 12.76808305999998c60.84421291 0 111.82179555 41.93317319 125.7995207 98.66629006h217.06583837c13.97772402-56.73311687 64.95530781-98.66629006 125.79951957-98.66629006 71.53306055 0 129.91061561 58.37755506 129.91061561 129.91061561s-58.37755506 129.91061561-129.91061561 129.9106156z m-396.30959843-138.13280654c-4.1110949-36.17764011-34.53320192-64.13308814-72.35528021-64.13308928-40.28873501 0-72.35527907 32.88876373-72.35527908 72.35528022s32.88876373 72.35527907 72.35527908 72.35527907c38.64429682 0 70.71084089-30.42210589 72.35528021-69.0664027-0.82221853-2.46665671-0.82221853-4.1110949-0.82221967-6.57775275 0-1.64443819 0-3.28887637 0.82221967-4.93331456z m396.30959843-64.13308928c-40.28873501 0-72.35527907 32.88876373-72.35527907 72.35528022s32.88876373 72.35527907 72.35527907 72.35527907 72.35527907-32.88876373 72.35528022-72.35527907-32.06654407-72.35527907-72.35528022-72.35528022zM588.05526528 382.76667165000003m-31.24432555 0a31.24432555 31.24432555 0 1 1 62.4886511 0 31.24432555 31.24432555 0 1 1-62.4886511 0ZM588.05526528 492.12180935m-31.24432555 0a31.24432555 31.24432555 0 1 1 62.4886511 0 31.24432555 31.24432555 0 1 1-62.4886511 0ZM588.05526528 601.47694819m-31.24432555 0a31.24432555 31.24432555 0 1 1 62.4886511 0 31.24432555 31.24432555 0 1 1-62.4886511 0Z"  horiz-adv-x="1024" />

    
    <glyph glyph-name="hongbao" unicode="&#59165;" d="M389.07824697 283.27816192c-15.62216221 0-28.7776677-13.15550549-28.77766884-28.7776677s13.15550549-28.7776677 28.77766884-28.77766769H488.56675555v-76.46637512c0-15.62216221 13.15550549-28.7776677 28.77766884-28.77766883s28.7776677 13.15550549 28.7776677 28.77766883v76.46637512h99.48850972c15.62216221 0 28.7776677 13.15550549 28.7776677 28.77766769s-13.15550549 28.7776677-28.7776677 28.7776677H546.12209209v68.24418418h99.48850972c15.62216221 0 28.7776677 13.15550549 28.7776677 28.77766769s-13.15550549 28.7776677-28.7776677 28.77766884h-34.53320192l17.2666004 38.64429682c6.57775275 14.79994368 0 31.24432555-14.79994368 37.82207716-14.79994368 6.57775275-31.24432555 0-37.82207716-14.79994255l-27.13323065-61.66643143h-49.33314446L472.12237483 470.74411406c-6.57775275 14.79994368-23.02213461 21.37769643-37.8220783 14.79994255-14.79994368-6.57775275-21.37769643-23.02213461-14.79994368-37.82207716l17.2666004-38.64429682h-46.0442681c-15.62216221 0-28.7776677-13.15550549-28.77766883-28.77766884s13.15550549-28.7776677 28.77766883-28.77766769H488.56675555v-68.24418418H389.07824697zM182.70125625 11.94586339c0-62.48864995 50.97758379-113.46623374 113.46623374-113.46623374h443.17608732c62.48864995 0 113.46623374 50.97758379 113.46623375 113.46623374V756.87635513c0 62.48864995-50.97758379 113.46623374-113.46623375 113.46623374H296.16748999c-62.48864995 0-113.46623374-50.97758379-113.46623374-112.64401408l-0.82221966-41.93317319v-1.64443819l0.82221966-66.59974599v-635.57535403z m556.64232106 800.84139008c4.93331456 0 9.86662912-0.82221853 13.97772402-1.64443818-15.62216221-19.73325824-32.88876373-36.99985863-52.62202083-52.62202198-12.33328583-9.86662912-14.79994368-27.95544917-4.93331456-40.288735 5.75553309-7.39997127 13.97772402-10.68884765 23.02213461-10.68884764 6.57775275 0 12.33328583 1.64443819 18.08881892 6.57775274 21.37769643 16.44438187 40.28873501 35.35542045 57.55533653 55.91089721 0.82221853-4.1110949 1.64443819-8.22219093 1.64443819-12.33328583V12.76808305999998c0-30.42210589-24.6665728-55.91089835-55.91089835-55.91089835h-443.99830585c-30.42210589 0-55.91089835 24.6665728-55.91089834 55.91089835V649.1656556099999l-0.82221853 66.59974599 0.82221853 35.35542045c12.33328583-13.15550549 26.31101099-25.48879133 40.28873614-36.99985864 4.93331456-4.1110949 11.51106731-6.57775275 18.08881891-6.57775274 8.22219093 0 17.26660039 4.1110949 23.02213461 10.68884764 9.86662912 12.33328583 7.39997127 30.42210589-4.93331456 40.288735-17.26660039 13.97772402-33.71098226 29.59988736-47.68870627 46.86648776 8.22219093 4.93331456 18.08882005 7.39997127 27.95544917 7.3999724h442.35386766zM407.98928555 672.18778909m-31.24432555 0a31.24432555 31.24432555 0 1 1 62.48865109 0 31.24432555 31.24432555 0 1 1-62.48865109 0ZM517.34442439 651.63231232m-31.24432554 0a31.24432555 31.24432555 0 1 1 62.48864995 0 31.24432555 31.24432555 0 1 1-62.48864995 0ZM626.6995621 672.18778909m-31.24432441 0a31.24432555 31.24432555 0 1 1 62.48864996 0 31.24432555 31.24432555 0 1 1-62.48864996 0Z"  horiz-adv-x="1024" />

    
    <glyph glyph-name="huangguan" unicode="&#59166;" d="M982.52857526 679.12183657c-11.40143749 5.2622022-24.55694358 2.63110049-33.32728058-6.1392353L751.8687141 484.42035769 536.11842643 792.2591832c-6.1392353 7.89330269-14.90957229 13.15550489-25.43397667 13.1555061-9.64737009 0-19.29474139-5.2622022-25.4339779-13.1555061L272.1312859 487.05145819 87.0771759 672.10556818c-8.77033699 8.77033699-21.92584189 11.40143749-33.32727937 7.01626839-11.40143749-4.38516789-19.29474139-15.78660659-19.29474138-28.06507718v-657.7752686c0-16.66363969 14.03253919-30.69617888 30.69617888-30.69618009h905.97580374c16.66363969 0 30.69617888 14.03253919 30.69617888 30.69618009v657.7752686c-0.8770331 12.2784718-7.89330269 22.80287619-19.29474139 28.06507718z m-42.97465067-655.14416691H95.8475129V196.75330666000002h844.58344479v-172.775637z m0 234.16799597H95.8475129V576.50889554L254.59061191 417.76579652c6.1392353-6.1392353 14.90957229-9.64737009 24.55694359-8.77033577 8.77033699 0.8770331 17.54067399 5.2622022 22.80287497 13.15550487l209.61105238 299.94552283 211.36511976-300.82255713c5.2622022-7.0162696 13.15550489-12.2784718 21.92584189-13.15550489 8.77033699-0.8770331 17.54067399 1.7540674 24.55694359 8.77033699l171.0215696 163.12826692v-321.87136471zM401.05523792 97.64849921999996m-33.32728059 0a33.32728059 33.32728059 0 1 1 66.65456117 0 33.32728059 33.32728059 0 1 1-66.65456117 0ZM517.70071935 97.64849921999996m-33.32728058 0a33.32728059 33.32728059 0 1 1 66.65455995 0 33.32728059 33.32728059 0 1 1-66.65455995 0ZM634.34619957 97.64849921999996m-33.32727937 0a33.32728059 33.32728059 0 1 1 66.65455996 0 33.32728059 33.32728059 0 1 1-66.65455996 0Z"  horiz-adv-x="1024" />

    
    <glyph glyph-name="quan" unicode="&#59167;" d="M980.25376882 416.4776539c10.68884765 4.1110949 17.26660039 14.79994368 17.26660153 26.31101099v156.22162546c0 41.93317319-33.71098226 75.64415545-75.64415659 75.64415658H105.41266261c-41.93317319 0-75.64415545-33.71098226-75.64415658-75.64415658v-157.86606365c0-12.33328583 7.39997127-23.02213461 18.91103971-27.13322951 15.62216221-5.75553309 25.48879133-19.73325824 25.48879133-36.1776401s-9.86662912-30.42210589-25.48879133-36.17764011c-11.51106731-4.1110949-18.91103858-14.79994368-18.91103971-27.13322951v-152.93275022c0-41.93317319 33.71098226-75.64415545 75.64415658-75.64415546h817.28577081c41.93317319 0 75.64415545 33.71098226 75.64415545 75.64415546V318.63358237c0 11.51106731-6.57775275 22.19991495-17.26660039 26.31101098-13.97772402 5.75553309-23.02213461 19.73325824-23.02213461 35.35542044s8.22219093 29.59988736 22.19991495 36.17764011z m-40.28873501 42.75539285c-25.48879133-18.08882005-41.11095467-46.86648775-41.11095352-78.93303296s15.62216221-60.84421291 41.11095352-78.93303182V160.76751872c0-9.86662912-8.22219093-18.08882005-18.08882005-18.08882005H105.41266261c-9.86662912 0-18.08882005 8.22219093-18.08882005 18.08882005V296.43366741c27.13322951 17.26660039 44.39983104 47.68870741 44.3998299 81.39968968s-17.26660039 63.31086962-44.3998299 81.39968966v139.7772436c0 9.86662912 8.22219093 18.08882005 18.08882005 18.08882005h817.28577081c9.86662912 0 18.08882005-8.22219093 18.08882005-18.08882005v-139.7772436zM757.43239737 489.65515264m-31.24432555 0a31.24432555 31.24432555 0 1 1 62.48864996 0 31.24432555 31.24432555 0 1 1-62.48864996 0ZM757.43239737 380.30001379m-31.24432555 0a31.24432555 31.24432555 0 1 1 62.48864996 0 31.24432555 31.24432555 0 1 1-62.48864996 0ZM757.43239737 270.94487609m-31.24432555 0a31.24432555 31.24432555 0 1 1 62.48864996 0 31.24432555 31.24432555 0 1 1-62.48864996 0Z"  horiz-adv-x="1024" />

    
    <glyph glyph-name="car" unicode="&#59168;" d="M894.7172896 461.4684544l-60.12477013 0.77083093-50.10397547 208.89503574c-6.1666432 28.52072427-34.68736747 83.24968213-99.43712107 83.2496832h-354.5819808c-64.74975253 0-93.27047787-54.72895787-99.43712-82.47885227l-50.10397546-210.4366976H135.4493536c-66.29141333 0-120.24954133-53.958128-119.47871147-120.24954133v-131.04116694c0-31.60404587 12.3332864-62.43726187 35.4581984-84.79134293 22.35408107-22.35408107 52.4164672-34.68736747 84.79134294-34.68736747h5.39581226c1.5416608-33.14570667 20.0415904-50.8748064 34.68736854-60.1247712 16.9582688-10.02079467 39.31234987-15.416608 66.29141333-15.416608h0.77083093c27.7498944 0 50.10397547 5.39581227 67.06224427 16.18743894 14.64577707 9.2499648 32.3748768 26.97906347 34.68736747 59.35394026h339.93620266c2.31249067-26.97906347 17.72909867-73.99971733 100.97878187-73.9997184h0.77082987c85.56217387 0 99.43712107 49.3331456 100.97878186 75.5413792h6.1666432c31.60404587 0 62.43726187 12.3332864 84.79134294 35.45819734s35.4581984 53.18729707 34.68736746 84.791344l0.77083094 129.49950613c0.77082987 65.52058347-53.18729707 119.4787104-119.47871147 119.4787104zM283.44878827 659.5718656c0.77082987 3.85415147 10.7916256 40.85401067 47.02065386 40.85401067h355.35281174c36.22902827 0 45.47899307-36.9998592 47.02065386-41.6248416l47.02065387-196.56174934h-10.7916256-0.77082987l-531.87297173-1.5416608 47.02065387 198.87424107zM960.23787307 211.71940693c0-17.72909867-6.93747307-33.9165376-19.27075947-47.02065386-12.3332864-12.3332864-29.2915552-19.27075947-47.02065387-19.27075947h-33.14570666c-14.64577707 0-26.97906347-12.3332864-26.97906454-26.97906347v-21.5832512c0-9.2499648 0-26.97906347-47.79148373-26.97906453h-0.77083093c-21.5832512 0-32.3748768 3.85415147-38.54151894 7.708304-4.6249824 3.0833216-9.2499648 7.708304-9.2499648 19.27076053v20.0415904c0 14.64577707-12.3332864 26.97906347-26.97906346 26.97906347H318.13615573c-14.64577707 0-26.97906347-12.3332864-26.97906346-26.97906347v-21.5832512c0-12.3332864-4.6249824-16.9582688-9.2499648-19.27076053-5.39581227-3.85415147-16.9582688-7.708304-38.54151894-7.708304s-33.14570667 3.85415147-38.54152 7.708304c-4.6249824 3.0833216-9.2499648 7.708304-9.2499648 19.27076053v21.5832512c0 14.64577707-12.3332864 26.97906347-26.97906346 26.97906347h-32.3748768c-16.9582688 0-33.9165376 6.93747307-47.02065387 19.27075947s-19.27075947 29.2915552-19.27075947 47.02065386v131.04116694c0 36.22902827 29.2915552 66.29141333 66.29141334 66.2914144l633.62258346 1.5416608 125.6453536-0.77083094c17.72909867 0 33.9165376-6.93747307 47.02065387-19.27075946 12.3332864-12.3332864 19.27075947-29.2915552 19.27075947-47.02065387l-1.5416608-130.27033707zM411.4066336 265.67753493m-29.2915552 0a29.2915552 29.2915552 0 1 1 58.5831104 0 29.2915552 29.2915552 0 1 1-58.5831104 0ZM513.92707627 265.67753493m-29.2915552 0a29.2915552 29.2915552 0 1 1 58.58310933 0 29.2915552 29.2915552 0 1 1-58.58310933 0ZM616.44751787 265.67753493m-29.29155414 0a29.2915552 29.2915552 0 1 1 58.58310934 0 29.2915552 29.2915552 0 1 1-58.58310934 0Z"  horiz-adv-x="1024" />

    
    <glyph glyph-name="video" unicode="&#59169;" d="M486.55432928 263.75673186999995m-38.91690801 0a38.916908 38.916908 0 1 1 77.833816 0 38.916908 38.916908 0 1 1-77.833816 0ZM595.32209904 372.52450163000003m-38.91690939 0a38.916908 38.916908 0 1 1 77.8338174 0 38.916908 38.916908 0 1 1-77.8338174 0ZM487.55219804 487.27948811m-38.916908 0a38.916908 38.916908 0 1 1 77.83381738 0 38.916908 38.916908 0 1 1-77.83381738 0ZM940.58492589 870.4613542H89.40229084c-34.9254302 0-62.86577489-27.94034469-62.86577489-62.8657749v-849.18689752c0-34.9254302 27.94034469-62.86577489 62.86577489-62.86577489h851.18263505c34.9254302 0 62.86577489 27.94034469 62.86577489 62.86577489V807.5955793c0.99786877 33.92756142-27.94034469 62.86577489-62.86577489 62.8657749z m-732.43617213-906.06545569H96.38737632V121.06140205999998h111.76137744v-156.66550355z m0 226.51636392H96.38737632V357.55645914h111.76137744v-166.64419671z m0 236.49505846H96.38737632V595.04938773h111.76137744v-167.64206684z m0 237.49292722H96.38737632V800.61049244h111.76137744v-135.71024433z m556.81115103-700.5043496H277.99961552V800.61049244h486.96028927v-836.21459393z m169.63780437 0h-99.786944V121.06140205999998h99.786944v-156.66550355z m0 226.51636392h-99.786944V357.55645914h99.786944v-166.64419671z m0 236.49505846h-99.786944V595.04938773h99.786944v-167.64206684z m0 237.49292722h-99.786944V800.61049244h99.786944v-135.71024433z"  horiz-adv-x="1024" />

    
    <glyph glyph-name="yingyeting" unicode="&#59173;" d="M973.67601607 20.168054330000018h-27.13322951V402.49992989c24.6665728 10.68884765 41.93317319 35.35542045 41.93317319 64.13308814V734.67644018c0 38.64429682-31.24432555 69.88862237-69.88862236 69.88862236H731.12138638c-15.62216221 0-28.7776677-13.15550549-28.77766769-28.77766769s13.15550549-28.7776677 28.77766769-28.77766884h186.64373248c6.57775275 0 12.33328583-5.75553309 12.33328583-12.33328583v-267.22120249c0-6.57775275-5.75553309-12.33328583-12.33328583-12.33328697H101.30156658c-6.57775275 0-12.33328583 5.75553309-12.33328583 12.33328697V734.67644018c0 6.57775275 5.75553309 12.33328583 12.33328583 12.33328583h189.11039033c15.62216221 0 28.7776677 13.15550549 28.7776677 28.77766884s-13.15550549 28.7776677-28.7776677 28.77766769h-189.11039033c-38.64429682 0-69.88862237-31.24432555-69.88862237-69.88862236v-267.22120249c0-27.95544917 16.44438187-51.79980231 40.28873501-63.31086962V20.99027398999999H52.79064064c-15.62216221 0-28.7776677-13.15550549-28.7776677-28.77766884s13.15550549-28.7776677 28.7776677-28.77766769h920.88537543c15.62216221 0 28.7776677 13.15550549 28.77766884 28.77766769s-13.15550549 27.95544917-28.77766884 27.95544918zM129.25701575 396.74439566h759.73043542v-376.57634133h-130.73283528V245.45608362999997c0 27.13322951-22.19991495 49.3331456-49.33314446 49.3331456H310.96743367c-27.13322951 0-49.3331456-22.19991495-49.3331456-49.3331456v-225.2880293H129.25701575V396.74439566z m571.44226475-376.57634133H319.18962461V238.05611235000003h380.68743622v-217.88805802zM401.4115328 773.32073699m-31.24432555 0a31.24432555 31.24432555 0 1 1 62.4886511 0 31.24432555 31.24432555 0 1 1-62.4886511 0ZM510.76667165 773.32073699m-31.24432555 0a31.24432555 31.24432555 0 1 1 62.48865109 0 31.24432555 31.24432555 0 1 1-62.48865109 0ZM620.12180935 773.32073699m-31.24432441 0a31.24432555 31.24432555 0 1 1 62.48864996 0 31.24432555 31.24432555 0 1 1-62.48864996 0Z"  horiz-adv-x="1024" />

    
    <glyph glyph-name="drop-down" unicode="&#58912;" d="M40.91044331 549.2612552400001c1.89955534-13.29688292 7.5982184-24.69421052 17.09599211-34.19198277l416.00247114-416.00247259c24.69421052-24.69421052 62.68530397-24.69421052 87.3795145 0l416.00247111 416.00247259c9.49777374 9.49777374 15.19643679 20.89510132 17.09599213 34.19198277H40.91044331z"  horiz-adv-x="1024" />

    
    <glyph glyph-name="html5" unicode="&#59057;" d="M771.6571424 566.2476191999999l9.75238187 106.66666667H242.59047573l28.6476192-325.48571414h373.02857174l-13.40952427-138.97142933-120.07618987-32.3047616-119.46666666 32.3047616-7.92381014 85.33333333H276.72380907l13.40952426-169.44761813 220.6476192-60.95238187h2.43809494v0.60952427l218.81904746 60.3428576 30.47619094 331.58095147H369.98095253l-9.1428576 110.32381013h410.81904747zM82.8952384 852.11428587h858.2095232l-78.01904747-876.4952384-352.3047616-98.74285654-349.86666666 98.74285654z"  horiz-adv-x="1024" />

    
    <glyph glyph-name="star" unicode="&#59146;" d="M1019.12380907 511.59365049q0-13.40952427-15.84761814-29.2571424l-221.25714346-215.77142826 52.41904746-304.76190507q0.60952427-4.26666667 0.60952427-12.1904768 0-12.8-6.4-21.63809493T810.0571424-80.86349191q-11.58095253 0-24.38095147 7.31428587l-273.67619093 143.8476192-273.67619093-143.8476192q-13.40952427-7.31428587-24.38095147-7.31428587-12.8 0-19.2 8.83809494T188.3428576-50.38730204000001q0 3.6571424 1.21904747 12.1904768l52.41904746 304.76190507L20.11428587 482.33650809Q4.87619093 498.79365049 4.87619093 511.59365049q0 22.5523808 34.13333334 28.038096l305.98095146 44.49523734L482.13333333 861.46031716q11.58095253 24.99047573 29.86666667 24.9904768t29.86666667-24.9904768l137.1428576-277.33333333 305.98095146-44.49523734q34.13333333-5.48571413 34.13333334-28.038096z"  horiz-adv-x="1024" />

    
    <glyph glyph-name="yujing" unicode="&#59178;" d="M926.80952832 169.81192818l-18.91103858 32.88876373c0 0.82221853-0.82221853 0.82221853-0.82221852 1.64443819-32.06654407 46.04426923-52.62202197 96.19963335-64.95530781 152.93274908-1.64443819 6.57775275-2.46665671 13.97772402-4.11109603 20.55547791-2.46665671 15.62216221-17.26660039 26.31101099-32.88876373 23.84435313-15.62216221-2.46665671-26.31101099-17.26660039-23.84435314-32.88876373 1.64443819-8.22219093 2.46665671-15.62216221 4.11109603-23.02213348 13.97772402-64.13308814 37.82207829-120.04398649 73.1774976-172.66600846l18.91103972-32.88876373c0-0.82221853 0.82221853-0.82221853 0.82221852-1.64443819 5.75553309-9.04440946 9.04440946-19.73325824 9.0444106-30.42210588 0-30.42210589-24.6665728-55.08867869-55.08867869-55.08867869h-635.57535402c-30.42210589 0-55.08867869 24.6665728-55.08867869 55.08867869 0 10.68884765 3.28887637 21.37769643 9.0444106 30.42210588 0 0.82221853 0.82221853 0.82221853 0.82221852 1.64443819l18.91103972 32.88876373c52.62202197 77.28859363 81.39968967 169.37713209 85.51078457 272.15451705 5.75553309 157.86606478 64.95530781 254.06569699 168.55491242 269.68786034 13.97772402 2.46665671 24.6665728 13.97772402 24.6665728 28.77766769 0 36.99985863 29.59988736 66.59974599 66.599746 66.599746s66.59974599-29.59988736 66.59974598-66.599746c0-8.22219093 4.1110949-17.26660039 10.68884765-22.19991494 12.33328583-9.86662912 30.42210589-8.22219093 40.28873501 4.11109489 4.93331456 5.75553309 6.57775275 12.33328583 6.57775274 19.73325824-0.82221853 68.24418418-55.91089835 122.51064434-124.15508138 122.51064434-60.02199325 0-110.99957703-42.75539285-121.68842468-100.31072825-118.3995483-29.59988736-189.11038919-144.71055929-194.86592342-319.84322446-3.28887637-92.08853731-28.7776677-174.31044665-75.64415658-242.55463083 0-0.82221853-0.82221853-0.82221853-0.82221852-1.64443819l-18.91103858-32.88876373c-11.51106731-18.08882005-18.08882005-39.46651648-18.08882006-60.84421177 0-61.66643143 50.15536413-112.64401522 112.64401408-112.64401522h211.31030528c4.1110949-55.08867869 50.15536413-98.66629006 106.06626248-98.66629006 55.91089835 0 101.95516643 43.57761138 106.06626133 98.66629006h211.31030528c61.66643143 0 112.64401522 50.15536413 112.64401521 112.64401522-0.82221853 20.55547677-7.39997127 41.93317319-18.91103971 60.02199325z m-412.7539803-222.82137259c-28.7776677 0-52.62202197 21.37769643-56.73311687 49.3331456h113.46623374c-4.1110949-27.95544917-27.95544917-49.3331456-56.73311687-49.3331456zM788.67672178 483.07739989m-31.24432441 0a31.24432555 31.24432555 0 1 1 62.48864996 0 31.24432555 31.24432555 0 1 1-62.48864996 0ZM763.18793045 594.89919545m-31.24432554 0a31.24432555 31.24432555 0 1 1 62.48865109 0 31.24432555 31.24432555 0 1 1-62.48865109 0ZM704.81037539 689.45439061m-31.24432554 0a31.24432555 31.24432555 0 1 1 62.48865109 0 31.24432555 31.24432555 0 1 1-62.48865109 0Z"  horiz-adv-x="1024" />

    
    <glyph glyph-name="fapiao" unicode="&#59179;" d="M302.82746478 416.88876342c-11.40143749 0-22.80287619 7.0162696-28.06507838 18.4177071l-30.69617888 68.40862856c-7.0162696 15.78660659 0 33.32728059 15.78660659 40.34355018 15.78660659 7.0162696 33.32728059 0 40.34354896-15.78660659l30.6961801-68.40862857c7.0162696-15.78660659 0-33.32728059-15.78660659-40.34355017-3.50813479-1.7540674-7.89330269-2.63110049-12.2784718-2.63110051zM409.82557491 416.88876342c-4.38516789 0-8.77033699 0.8770331-12.2784718 2.63110051-15.78660659 7.0162696-22.80287619 24.55694358-15.78660659 40.34355017l30.6961801 68.40862857c7.0162696 15.78660659 24.55694358 22.80287619 40.34354897 15.78660659 15.78660659-7.0162696 22.80287619-24.55694358 15.78660659-40.34355018l-30.69617888-68.40862856c-5.2622022-11.40143749-16.66363969-18.41770708-28.06507839-18.4177071zM487.00453925 401.10215683h-273.63451061c-16.66363969 0-30.69617888 14.03253919-30.6961801 30.69617888s14.03253919 30.69617888 30.6961801 30.6961801h273.63451061c16.66363969 0 30.69617888-14.03253919 30.6961801-30.6961801s-14.03253919-30.69617888-30.6961801-30.69617888zM487.00453925 267.79303572000003h-273.63451061c-16.66363969 0-30.69617888 14.03253919-30.6961801 30.69617888s14.03253919 30.69617888 30.6961801 30.69618009h273.63451061c16.66363969 0 30.69617888-14.03253919 30.6961801-30.69618009s-14.03253919-30.69617888-30.6961801-30.69617888zM350.18728334 154.65569029000005c-16.66363969 0-30.69617888 14.03253919-30.69617888 30.69617888v245.56943345c0 16.66363969 14.03253919 30.69617888 30.69617888 30.69617888s30.69617888-14.03253919 30.69618009-30.69617888v-245.56943345c0-16.66363969-14.03253919-30.69617888-30.69618009-30.69617888zM814.13810617 2.0518277899999475m-34.20431369 0a34.20431367 34.20431367 0 1 1 68.40862857 0 34.20431367 34.20431367 0 1 1-68.40862857 0ZM949.20129468 2.0518277899999475m-34.20431368 0a34.20431367 34.20431367 0 1 1 68.40862857 0 34.20431367 34.20431367 0 1 1-68.40862857 0ZM953.58646378 139.74611679999998m-34.20431367 0a34.20431367 34.20431367 0 1 1 68.40862735 0 34.20431367 34.20431367 0 1 1-68.40862735 0ZM833.43284755 398.47105635h-187.68520928c-16.66363969 0-30.69617888 14.03253919-30.69618008 30.69617887s14.03253919 30.69617888 30.69618008 30.69617888h187.68520928c16.66363969 0 30.69617888-14.03253919 30.69618009-30.69617888s-13.15550489-30.69617888-30.69618009-30.69617887zM772.04048979 266.91600262h-126.29285152c-16.66363969 0-30.69617888 14.03253919-30.69618008 30.69617888s14.03253919 30.69617888 30.69618008 30.69617888h126.29285152c16.66363969 0 30.69617888-14.03253919 30.69617888-30.69617888s-13.15550489-30.69617888-30.69617888-30.69617888zM700.12372643-30.398419699999977h-557.79342685c-55.25312246 0-100.85887485 45.60575237-100.85887484 100.85887484v627.07908972c0 55.25312246 45.60575237 100.85887485 100.85887484 100.85887484h49.99092027c14.03253919 0 27.18804409-9.64737009 29.81914458-23.67991049 5.2622022-21.04880879 23.67990928-35.95838108 45.60575237-35.95838107s40.34355018 14.90957229 45.60575237 35.95838107c3.50813479 14.03253919 15.78660659 23.67990928 29.8191458 23.67991049h105.24404273c14.03253919 0 27.18804409-9.64737009 29.81914578-23.67991049 5.2622022-21.04880879 23.67990928-35.95838108 45.60575115-35.95838107s40.34355018 14.90957229 45.60575239 35.95838107c3.50813479 14.03253919 15.78660659 23.67990928 29.81914578 23.67991049h96.47370574c14.03253919 0 27.18804409-9.64737009 29.81914579-23.67991049 5.2622022-21.04880879 23.67990928-35.95838108 45.60575116-35.95838107s40.34355018 14.90957229 45.60575237 35.95838107c3.50813479 14.03253919 15.78660659 23.67990928 29.81914579 23.67991049h37.71244847c55.25312246 0 100.85887485-45.60575237 100.85887484-100.85887484v-433.25464394c0-16.66363969-14.03253919-30.69617888-30.69618009-30.69617888s-30.69617888 14.03253919-30.69617888 30.69617888v433.25464394c0 21.92584189-17.54067399 39.46651587-39.46651587 39.46651588h-16.66363968c-17.54067399-35.95838108-54.37608938-60.51532466-96.47370695-60.51532467s-78.93303174 23.67990928-96.47370574 60.51532467h-53.49905506c-17.54067399-35.95838108-54.37608938-60.51532466-96.47370574-60.51532467s-78.93303174 23.67990928-96.47370696 60.51532467h-62.26939206c-17.54067399-35.95838108-54.37608938-60.51532466-96.47370573-60.51532467s-78.93303174 23.67990928-96.47370575 60.51532467h-28.94211146c-21.92584189 0-39.46651587-17.54067399-39.4665171-39.46651588v-627.07908972c0-21.92584189 17.54067399-39.46651587 39.4665171-39.46651588h557.79342683c16.66363969 0 30.69617888-14.03253919 30.6961801-30.69617887s-15.78660659-30.69617888-32.45024749-30.69618009z"  horiz-adv-x="1024" />

    
    <glyph glyph-name="error" unicode="&#58980;" d="M512 869.45185223C245.0014811 869.45185223 26.54814777 650.9985189 26.54814777 384s218.45333333-485.45185223 485.45185223-485.45185223 485.45185223 218.45333333 485.45185223 485.45185223S778.9985189 869.45185223 512 869.45185223z m48.54518557-728.17777778h-97.09037114v97.09037h97.09037114v-97.09037z m0 194.18073998h-97.09037114V626.72592555h97.09037114v-291.27111112z"  horiz-adv-x="1024" />

    
    <glyph glyph-name="man" unicode="&#59083;" d="M511.88521719 704.49391312c46.05913031-0.20869594 83.39478281 35.47826062 83.39478281 79.76347782C595.28 828.29217375 557.9443475 864 511.88521719 864S428.49043438 828.31304344 428.49043438 784.25739094c0-44.03478281 37.3356525-79.76347781 83.39478281-79.76347781zM595.50956562 686.54608688H428.26086969C365.17217375 686.54608688 324.05913031 633.5165221899999 324.05913031 583.05391313V340.17391311999995c0-47.04 69.30782625-47.04 69.30782625 0V564.66782625h13.41913032v-610.64347875c0-64.98782625 93.91304344-62.85913031 96.14608687 0V305.96869594h17.90608687v-352.15304344c3.79826063-66.69913031 96.14608687-60.29217375 96.14608688 0.208695v610.64347875h11.16521812V340.17391311999995c0-47.04 71.56173938-47.04 71.56173844 0V583.05391313c0 50.25391312-41.36347781 103.49217375-104.20173844 103.49217374z"  horiz-adv-x="1024" />

    
    <glyph glyph-name="zhiding" unicode="&#59193;" d="M893.94645973 439.8852032m-40.0831808 0a40.0831808 40.0831808 0 1 1 80.1663616 0 40.0831808 40.0831808 0 1 1-80.1663616 0ZM793.7385088 540.09315413m-40.0831808 0a40.0831808 40.0831808 0 1 1 80.16636053 0 40.0831808 40.0831808 0 1 1-80.16636053 0ZM692.75972693 641.071936m-40.08317973 0a40.0831808 40.0831808 0 1 1 80.16636053 0 40.0831808 40.0831808 0 1 1-80.16636053 0ZM949.44624747 869.23773227h-840.9759584c-20.81242027 0-37.77068907-16.9582688-37.77068907-37.77068907s16.9582688-37.77068907 37.77068907-37.77068907h343.01952533l-329.915408-329.915408c-14.64577707-14.64577707-14.64577707-38.54152 0-53.18729706 6.93747307-6.93747307 16.9582688-10.7916256 26.20823253-10.7916256 9.2499648 0 19.27075947 3.85415147 26.2082336 10.7916256l309.8738176 309.8738176v-797.80945707c0-20.81242027 16.9582688-37.77068907 37.77069014-37.77068907s37.77068907 16.9582688 37.77068906 37.77068907V722.77995733c14.64577707-13.10411627 36.9998592-13.10411627 51.64563627 1.5416608 14.64577707 14.64577707 14.64577707 38.54152 0 53.18729707l-17.72909867 17.72909973h356.12364054c20.81242027 0 37.77068907 16.9582688 37.77069013 37.77068907 0 19.27075947-16.9582688 36.22902827-37.77069013 36.22902827z"  horiz-adv-x="1024" />

    
    <glyph glyph-name="tui" unicode="&#59088;" d="M512 864a2195.1 2195.1 0 0 1-480-58.92V384a454.08 454.08 0 0 1 67.44-186.6 590.94 590.94 0 0 1 144-159.12A836.88 836.88 0 0 1 512-96a838.2 838.2 0 0 1 267.9 133.86 592.02 592.02 0 0 1 144 158.64A456.9 456.9 0 0 1 992 384V805.08A2194.98 2194.98 0 0 1 512 864z m439.98-478.2a422.28 422.28 0 0 0-61.98-168.42 552 552 0 0 0-134.4-147.9A790.26 790.26 0 0 0 512-54a789.24 789.24 0 0 0-244.02 124.02 551.16 551.16 0 0 0-134.34 148.32 418.44 418.44 0 0 0-61.62 167.4V774A2218.68 2218.68 0 0 0 512 823.98a2218.2 2218.2 0 0 0 439.98-50.1V385.8zM487.34 324V456h169.68v-13.38h36V672.48H450.68V337.79999999999995a46.92 46.92 0 0 0-13.98-34.26l27.3-37.86a246.66 246.66 0 0 0 27 17.64q46.92 23.7 93 41.88-1.92 19.14-2.4 39.84-55.68-25.26-94.26-41.04z m-117.12-24V515.22H275.72v-37.32h57.36v-169.86q-19.08-18.66-61.68-61.5l19.74-42a745.62 745.62 0 0 0 57.84 67.56 125.1 125.1 0 0 1 114.72-58.98q133.98-3 274.26-2.04 8.22 23.22 13.5 39.84-145.08-4.02-282-2.04A111.3 111.3 0 0 0 370.22 300z m243.42 92.22L541.34 438l-19.74-27.72q108-71.58 187.02-131.58l24 35.28q-34.62 23.82-86.7 57.54 44.34 19.14 91.08 38.82l-24.6 34.8q-50.4-28.74-98.76-52.92z m43.38 188.52H487.34v57.48h169.68v-57.48zM487.34 490.02v57.48h169.68v-57.48H487.34zM300.8 662.88Q326 628.14 364.88 564l34.2 25.2Q356 653.34 331.64 684.6z"  horiz-adv-x="1024" />

    
    <glyph glyph-name="loading" unicode="&#58924;" d="M523.085935 794.1505970000001m-101.850403 0a101.850403 101.850403 0 1 1 203.700806 0 101.850403 101.850403 0 1 1-203.700806 0ZM769.836489 708.491099m-96.031437 0a96.031437 96.031437 0 1 1 192.062875 0 96.031437 96.031437 0 1 1-192.062875 0ZM903.286707 514.604235m-90.210471 0a90.210471 90.210471 0 1 1 180.420943 0 90.210471 90.210471 0 1 1-180.420943 0ZM905.950692 286.27757299999996m-84.390506 0a84.390506 84.390506 0 1 1 168.781011 0 84.390506 84.390506 0 1 1-168.781011 0ZM799.997313 109.87260600000002m-78.57054 0a78.57054 78.57054 0 1 1 157.141079 0 78.57054 78.57054 0 1 1-157.141079 0ZM605.196454 6.291212999999971m-72.750574 0a72.750574 72.750574 0 1 1 145.501148 0 72.750574 72.750574 0 1 1-145.501148 0ZM397.148673 18.14214400000003m-66.931608 0a66.931608 66.931608 0 1 1 133.863216 0 66.931608 66.931608 0 1 1-133.863216 0ZM223.665689 133.51646800000003m-61.110641 0a61.110642 61.110642 0 1 1 122.221283 0 61.110642 61.110642 0 1 1-122.221283 0ZM134.483212 308.85144m-55.290676 0a55.290676 55.290676 0 1 1 110.581352 0 55.290676 55.290676 0 1 1-110.581352 0ZM135.396207 487.103396m-49.47071 0a49.47071 49.47071 0 1 1 98.94142 0 49.47071 49.47071 0 1 1-98.94142 0ZM205.336797 635.952524m-43.650744 0a43.650744 43.650744 0 1 1 87.301488 0 43.650744 43.650744 0 1 1-87.301488 0ZM315.81515 736.009937m-37.829779 0a37.829778 37.829778 0 1 1 75.659557 0 37.829778 37.829778 0 1 1-75.659557 0Z"  horiz-adv-x="1024" />

    
    <glyph glyph-name="calculator" unicode="&#59246;" d="M869.29256297 881.1026963h-683.51620742c-68.35162075 0-124.27567408-55.92405333-124.27567407-124.27567408v-745.65404444c0-68.35162075 55.92405333-124.27567408 124.27567407-124.27567408h683.51620742c68.35162075 0 124.27567408 55.92405333 124.27567406 124.27567408V756.82702222c0 68.35162075-55.92405333 124.27567408-124.27567406 124.27567408z m62.13783703-869.92971852c0-34.17581037-27.96202667-62.13783703-62.13783703-62.13783703h-683.51620742c-34.17581037 0-62.13783703 27.96202667-62.13783703 62.13783703V632.55134815h807.79188148v-621.37837037z m0 683.5162074h-807.79188148V756.82702222c0 34.17581037 27.96202667 62.13783703 62.13783703 62.13783703h683.51620742c34.17581037 0 62.13783703-27.96202667 62.13783703-62.13783703v-62.13783704z m-155.34459259-621.37837036c52.81716148 0 93.20675555 40.38959408 93.20675556 93.20675555s-40.38959408 93.20675555-93.20675556 93.20675555-93.20675555-40.38959408-93.20675556-93.20675555 40.38959408-93.20675555 93.20675556-93.20675555z m-31.06891852 124.27567407h62.13783703v-62.13783704h-62.13783703v62.13783704z m31.06891852 124.27567408c52.81716148 0 93.20675555 40.38959408 93.20675556 93.20675555s-40.38959408 93.20675555-93.20675556 93.20675556-93.20675555-40.38959408-93.20675556-93.20675556 40.38959408-93.20675555 93.20675556-93.20675555z m-31.06891852 124.27567406h62.13783703v-62.13783703h-62.13783703v62.13783703z m-217.48242964-372.82702221c52.81716148 0 93.20675555 40.38959408 93.20675557 93.20675555s-40.38959408 93.20675555-93.20675557 93.20675555-93.20675555-40.38959408-93.20675555-93.20675555 40.38959408-93.20675555 93.20675555-93.20675555z m-31.0689185 124.27567407h62.13783703v-62.13783704h-62.13783703v62.13783704z m31.0689185 124.27567408c52.81716148 0 93.20675555 40.38959408 93.20675557 93.20675555s-40.38959408 93.20675555-93.20675557 93.20675556-93.20675555-40.38959408-93.20675555-93.20675556 40.38959408-93.20675555 93.20675555-93.20675555z m-31.0689185 124.27567406h62.13783703v-62.13783703h-62.13783703v62.13783703z m-217.48242964-372.82702221c52.81716148 0 93.20675555 40.38959408 93.20675556 93.20675555s-40.38959408 93.20675555-93.20675556 93.20675555-93.20675555-40.38959408-93.20675556-93.20675555 40.38959408-93.20675555 93.20675556-93.20675555z m-31.06891852 124.27567407h62.13783704v-62.13783704h-62.13783704v62.13783704z m31.06891852 124.27567408c52.81716148 0 93.20675555 40.38959408 93.20675556 93.20675555s-40.38959408 93.20675555-93.20675556 93.20675556-93.20675555-40.38959408-93.20675556-93.20675556 40.38959408-93.20675555 93.20675556-93.20675555z m-31.06891852 124.27567406h62.13783704v-62.13783703h-62.13783704v62.13783703z"  horiz-adv-x="1024" />

    
    <glyph glyph-name="react" unicode="&#58955;" d="M512 384m-91.264 0a91.264 91.264 0 1 1 182.528 0 91.264 91.264 0 1 1-182.528 0ZM256.341333 202.453333l-20.138666 5.12C86.101333 245.504 0 309.888 0 384.170667s86.101333 138.666667 236.202667 176.597333l20.138666 5.077333 5.674667-19.968a1003.946667 1003.946667 0 0 1 58.154667-152.661333l4.309333-9.088-4.309333-9.088a994.432 994.432 0 0 1-58.154667-152.661333l-5.674667-19.925334zM226.858667 514.133333c-114.090667-32.042667-184.106667-81.066667-184.106667-129.962666 0-48.853333 70.016-97.877333 184.106667-129.962667a1064.533333 1064.533333 0 0 0 50.432 129.962667A1056.085333 1056.085333 0 0 0 226.858667 514.133333z m540.8-311.68l-5.674667 20.010667a996.565333 996.565333 0 0 1-58.197333 152.618667l-4.309334 9.088 4.309334 9.088a999.253333 999.253333 0 0 1 58.197333 152.661333l5.674667 19.968 20.181333-5.077333c150.058667-37.930667 236.16-102.314667 236.16-176.64s-86.101333-138.666667-236.16-176.597334l-20.181333-5.12z m-20.949334 181.717334c20.48-44.330667 37.418667-87.893333 50.432-129.962667 114.133333 32.085333 184.106667 81.109333 184.106667 129.962667 0 48.896-70.016 97.877333-184.106667 129.962666a1057.621333 1057.621333 0 0 0-50.432-129.962666zM226.56 514.346667l-5.674667 19.925333C178.688 683.008 191.488 789.589333 256 826.794667c63.274667 36.522667 164.864-6.613333 271.317333-115.882667l14.506667-14.890667-14.506667-14.890666a1004.885333 1004.885333 0 0 1-103.338666-126.592l-5.76-8.234667-10.026667-0.853333a1009.365333 1009.365333 0 0 1-161.493333-26.026667l-20.138667-5.077333z m80.896 282.88c-11.434667 0-21.546667-2.474667-30.08-7.381334-42.410667-24.448-49.92-109.44-20.693333-224.128a1071.872 1071.872 0 0 0 137.941333 21.376 1060.138667 1060.138667 0 0 0 87.552 108.544c-66.56 64.810667-129.578667 101.589333-174.72 101.589334z m409.130667-868.778667c-0.042667 0-0.042667 0 0 0-60.8 0-138.88 45.781333-219.904 128.981333l-14.506667 14.890667 14.506667 14.890667a1003.946667 1003.946667 0 0 1 103.296 126.634666l5.76 8.234667 9.984 0.853333a1008.213333 1008.213333 0 0 1 161.578666 25.984l20.138667 5.077334 5.717333-19.968c42.112-148.650667 29.354667-255.274667-35.157333-292.437334a101.546667 101.546667 0 0 0-51.413333-13.141333z m-174.762667 144.256c66.56-64.810667 129.578667-101.589333 174.72-101.589333h0.042667c11.392 0 21.546667 2.474667 30.037333 7.381333 42.410667 24.448 49.962667 109.482667 20.693333 224.170667a1067.52 1067.52 0 0 0-137.984-21.376 1052.757333 1052.757333 0 0 0-87.509333-108.586667zM797.44 514.346667l-20.138667 5.077333a1001.770667 1001.770667 0 0 1-161.578666 26.026667l-9.984 0.853333-5.76 8.234667a998.997333 998.997333 0 0 1-103.296 126.592l-14.506667 14.890666 14.506667 14.890667C603.093333 820.138667 704.64 863.274667 768 826.794667c64.512-37.205333 77.312-143.786667 35.157333-292.48l-5.717333-19.968zM629.333333 587.093333c48.725333-4.437333 95.018667-11.648 137.984-21.376 29.269333 114.688 21.717333 199.68-20.693333 224.128-42.154667 24.362667-121.386667-12.970667-204.8-94.208A1060.224 1060.224 0 0 0 629.333333 587.093333zM307.456-71.552A101.546667 101.546667 0 0 0 256-58.410667c-64.512 37.162667-77.312 143.744-35.114667 292.437334l5.632 19.968 20.138667-5.077334c49.28-12.416 103.637333-21.162667 161.493333-25.984l10.026667-0.853333 5.717333-8.234667a1006.762667 1006.762667 0 0 1 103.338667-126.634666l14.506667-14.890667-14.506667-14.890667c-80.981333-83.2-159.061333-128.981333-219.776-128.981333z m-50.773333 274.218667c-29.269333-114.688-21.717333-199.722667 20.693333-224.170667 42.112-24.021333 121.301333 13.013333 204.8 94.208a1066.581333 1066.581333 0 0 0-87.552 108.586667 1065.642667 1065.642667 0 0 0-137.941333 21.376zM512 175.872c-35.114667 0-71.210667 1.536-107.349333 4.522667l-10.026667 0.853333-5.76 8.234667a1296.554667 1296.554667 0 0 0-57.6 90.538666 1295.104 1295.104 0 0 0-49.749333 95.061334l-4.266667 9.088 4.266667 9.088a1292.8 1292.8 0 0 0 49.749333 95.061333c17.664 30.549333 37.077333 61.013333 57.6 90.538667l5.76 8.234666 10.026667 0.853334a1270.826667 1270.826667 0 0 0 214.741333 0l9.984-0.853334 5.717333-8.234666a1280.256 1280.256 0 0 0 107.392-185.6l4.309334-9.088-4.309334-9.088a1262.933333 1262.933333 0 0 0-107.392-185.6l-5.717333-8.234667-9.984-0.853333c-36.138667-2.986667-72.277333-4.522667-107.392-4.522667z m-93.738667 46.250667c63.146667-4.736 124.330667-4.736 187.52 0a1237.589333 1237.589333 0 0 1 93.696 162.048 1219.626667 1219.626667 0 0 1-93.738666 162.048 1238.656 1238.656 0 0 1-187.477334 0 1215.018667 1215.018667 0 0 1-93.738666-162.048 1242.197333 1242.197333 0 0 1 93.738666-162.048z"  horiz-adv-x="1024" />

    
    <glyph glyph-name="department" unicode="&#59014;" d="M955.73333333 588.8H716.8V827.73333333c0 18.2044448-15.92888853 34.13333333-34.13333333 34.13333334h-614.4C50.06222187 861.86666667 34.13333333 845.93777813 34.13333333 827.73333333v-887.46666666c0-18.2044448 15.92888853-34.13333333 34.13333334-34.13333334h887.46666666c18.2044448 0 34.13333333 15.92888853 34.13333334 34.13333334v614.4c0 18.2044448-15.92888853 34.13333333-34.13333334 34.13333333zM102.4 793.6h546.13333333v-819.2H102.4V793.6z m819.2-819.2h-204.8V520.53333333h204.8v-546.13333333zM307.2 657.06666667h-102.4c-18.2044448 0-34.13333333-15.92888853-34.13333333-34.13333334s15.92888853-34.13333333 34.13333333-34.13333333H307.2c18.2044448 0 34.13333333 15.92888853 34.13333333 34.13333333S325.4044448 657.06666667 307.2 657.06666667zM546.13333333 657.06666667H443.73333333c-18.2044448 0-34.13333333-15.92888853-34.13333333-34.13333334S425.52888853 588.8 443.73333333 588.8h102.4c18.2044448 0 34.13333333 15.92888853 34.13333334 34.13333333s-15.92888853 34.13333333-34.13333334 34.13333334zM307.2 452.26666667h-102.4c-18.2044448 0-34.13333333-15.92888853-34.13333333-34.13333334s15.92888853-34.13333333 34.13333333-34.13333333H307.2c18.2044448 0 34.13333333 15.92888853 34.13333333 34.13333333S325.4044448 452.26666667 307.2 452.26666667zM546.13333333 452.26666667H443.73333333c-18.2044448 0-34.13333333-15.92888853-34.13333333-34.13333334S425.52888853 384 443.73333333 384h102.4c18.2044448 0 34.13333333 15.92888853 34.13333334 34.13333333s-15.92888853 34.13333333-34.13333334 34.13333334zM307.2 247.46666667h-102.4c-18.2044448 0-34.13333333-15.92888853-34.13333333-34.13333334s15.92888853-34.13333333 34.13333333-34.13333333H307.2c18.2044448 0 34.13333333 15.92888853 34.13333333 34.13333333S325.4044448 247.46666667 307.2 247.46666667zM546.13333333 247.46666667H443.73333333c-18.2044448 0-34.13333333-15.92888853-34.13333333-34.13333334S425.52888853 179.20000000000005 443.73333333 179.20000000000005h102.4c18.2044448 0 34.13333333 15.92888853 34.13333334 34.13333333s-15.92888853 34.13333333-34.13333334 34.13333334zM819.2 281.6c18.2044448 0 34.13333333 15.92888853 34.13333333 34.13333333v102.4c0 18.2044448-15.92888853 34.13333333-34.13333333 34.13333334s-34.13333333-15.92888853-34.13333333-34.13333334V315.73333333000005c0-18.2044448 15.92888853-34.13333333 34.13333333-34.13333333zM819.2 42.66666667000004c18.2044448 0 34.13333333 15.92888853 34.13333333 34.13333333V179.20000000000005c0 18.2044448-15.92888853 34.13333333-34.13333333 34.13333333S785.06666667 197.40444479999996 785.06666667 179.20000000000005v-102.4c0-18.2044448 15.92888853-34.13333333 34.13333333-34.13333333z"  horiz-adv-x="1024" />

    
    <glyph glyph-name="taobao" unicode="&#59175;" d="M512-65.75958180999999a449.75958181 449.75958181 0 1 1 0 899.51916362 449.75958181 449.75958181 0 0 1 0-899.51916362z m0-47.34311449C237.45728268-113.10269630000005 14.8973037 109.45728268000005 14.8973037 384S237.45728268 881.1026963 512 881.1026963 1009.1026963 658.5427173200001 1009.1026963 384 786.54271732-113.10269630000005 512-113.10269630000005z m129.38873002 364.92072164l-32.19331693-16.09665781a299.44519599 299.44519599 0 0 0-133.8863262-31.62520102h-13.01935652a75.74898266 75.74898266 0 0 0-75.74898266 75.74898265 23.6715566 23.6715566 0 1 0 47.34311449 0 28.40586817 28.40586817 0 0 1 28.40586817-28.40586818h13.01935652c13.9188755 0 27.79040843 1.13623437 41.42522468 3.4087044V334.28973037000003h-106.52200597a23.6715566 23.6715566 0 1 0 0 47.34311448h106.52200597v30.77302332h-48.57403526a183.59659583 183.59659583 0 0 0-8.04832955-8.47441776l-2.74590079-2.7458995a23.6715566 23.6715566 0 1 0-33.32955128 33.61361053l2.79324335 2.74590079c14.01356191 13.9188755 24.85513482 30.6783382 31.71988614 49.18949501a23.6715566 23.6715566 0 0 0 44.36049832-16.57008988 183.59659583 183.59659583 0 0 0-4.26088083-10.4154847H644.56071902a23.6715566 23.6715566 0 1 0 0-47.34311449h-80.48329425v-30.77302332h106.52200727a23.6715566 23.6715566 0 1 0 0-47.34311448H564.07742477v-66.70644771c8.14301597 3.07730259 16.14400167 6.58069339 23.95561583 10.46282855l32.85612182 16.4280609a23.6715566 23.6715566 0 0 0 44.21846803 11.22031727l20.68894042-36.17013851a23.6715566 23.6715566 0 0 0-41.09382289-23.52952761l-3.31401796 5.82320208z m-193.63333619 302.71187142A564.51929017 564.51929017 0 0 0 644.56071902 589.9425452400001a127.82640743 127.82640743 0 0 0 127.82640742-127.82640744v-191.73961179a118.35778428 118.35778428 0 0 0-118.35778427-118.35778428h-61.54604793a23.6715566 23.6715566 0 1 0 0 47.34311448H654.02934217a71.01467108 71.01467108 0 0 1 71.01467108 71.0146698v191.73961179a80.48329424 80.48329424 0 0 1-80.48329423 80.48329424c-65.80692874 0-130.99839644-12.54592575-192.0710136-36.97497234l-33.47158155-13.39810088a23.6715566 23.6715566 0 0 0-6.20194774-1.56232257 335.66267835 335.66267835 0 0 0-37.92183389-45.30736115 23.6715566 23.6715566 0 0 0-33.51892541 33.51892541 288.31956385 288.31956385 0 0 1 69.6890639 112.67661115l2.74590078 8.2377011a23.6715566 23.6715566 0 1 0 44.88127164-14.96042346l-2.7458995-8.23770237a335.66267835 335.66267835 0 0 0-8.19035982-22.06189017z m-149.50955324-35.12859054a39.05806955 39.05806955 0 1 0 0 78.1161378 39.05806955 39.05806955 0 0 0 0-78.1161378z m-44.6919001-91.60892638a23.6715566 23.6715566 0 1 0 19.97879426 42.89286214l14.86573833-6.91209519a118.35778428 118.35778428 0 0 0 50.65713117-169.4883475l-64.95475232-105.00702727a23.6715566 23.6715566 0 1 0-40.24164647 24.90247867l64.90740976 104.9596834a71.01467108 71.01467108 0 0 1-30.3469364 101.74035184l-14.86573833 6.91209391z"  horiz-adv-x="1024" />

    
    <glyph glyph-name="image" unicode="&#59302;" d="M948.8581211 772.3614811H84.85091555c-28.35038777 5.82542222-58.35131221-17.37917667-58.35131221-47.52573553V44.18370332999996a48.54518557 48.54518557 0 0 1 48.54518443-48.54518443h873.81333333a48.54518557 48.54518557 0 0 1 48.54518557 48.54518443V723.81629667a48.54518557 48.54518557 0 0 1-48.54518557 48.54518443z m-48.54518443-679.63259221h-776.72296334V675.27111111h776.72296334v-582.54222222zM512 189.81925888h291.22256555L609.09036999 578.18074112l-176.55883776-282.43588779L366.31589888 384l-145.63555555-194.18074112h145.63555555zM293.4981211 505.36296334m-72.81777777 0a72.81777778 72.81777778 0 1 1 145.63555555 0 72.81777778 72.81777778 0 1 1-145.63555555 0Z"  horiz-adv-x="1024" />

    
    <glyph glyph-name="share" unicode="&#59180;" d="M444.37714409 233.00253981000003C403.02291302 183.19584453000004 340.634929 151.47867955000004 270.83768452 151.47867955000004 146.3240885 151.47867955000004 45.38626907 252.41649898000003 45.38626907 376.93009499000004S146.3240885 602.3815104299999 270.83768452 602.3815104299999c66.81060238 0 126.83409596-29.06045178 168.11605687-75.23164481l223.45141787 141.03989178A161.49234142 161.49234142 0 0 0 658.11137027 705.28790562c0 88.93940508 72.09732025 161.0367253 161.03672535 161.03672535S980.18482093 794.22731072 980.18482093 705.28790562 908.08750067 544.25118032 819.14809562 544.25118032c-42.07379028 0-80.38167785 16.13509433-109.0682102 42.55768601l-224.32023066-141.58663109C492.60175174 423.67944911 496.28909997 400.73525072 496.28909997 376.93009499000004c0-20.80594491-2.81853546-40.9536031-8.09425569-60.08162391l218.47106255-138.89378281C735.69179463 206.28929647999996 775.3806703 223.74881968 819.14809562 223.74881968c88.93940508 0 161.0367253-72.09732025 161.03672531-161.0367253S908.08750067-98.32463097000004 819.14809562-98.32463097000004 658.11137027-26.22731071999999 658.11137027 62.71209438000005c0 11.07775561 1.11861609 21.89471028 3.24901415 32.34245878l-216.98324033 137.94798665zM270.83768452 245.74407971999995c72.45238658 0 131.18601527 58.73362868 131.18601526 131.18601527S343.2900711 508.11611026 270.83768452 508.11611026 139.65166927 449.38248157 139.65166927 376.93009499000004s58.73362868-131.18601527 131.18601525-131.18601527z m548.3104111 392.77250078c36.87662455 0 66.77132512 29.89470058 66.77132512 66.77132512S856.02472015 772.05923077 819.14809562 772.05923077 752.37677046 742.16453019 752.37677046 705.28790562s29.89470058-66.77132512 66.77132516-66.77132512z m0-642.57581127c36.87662455 0 66.77132512 29.89470058 66.77132512 66.77132515S856.02472015 129.48341949999997 819.14809562 129.48341949999997 752.37677046 99.58871892000002 752.37677046 62.71209438000005s29.89470058-66.77132512 66.77132516-66.77132515z"  horiz-adv-x="1024" />

    
    <glyph glyph-name="cut" unicode="&#59248;" d="M231.98 103.98000000000002h560.04V664.02H231.98v-560.04z m0-79.98v-120H152v120H32v79.98h120V744h640.02V864H872v-120h120v-79.98h-120V24H231.98z"  horiz-adv-x="1024" />

    
    <glyph glyph-name="photo" unicode="&#59330;" d="M880.174545-15.941818h-733.090909a122.298182 122.298182 0 0 0-122.181818 122.181818v443.345455a122.298182 122.298182 0 0 0 122.181818 122.181818h136.378182L360.727273 808.261818a29.090909 29.090909 0 0 0 25.367272 14.778182H640a29.090909 29.090909 0 0 0 24.785455-13.847273l84.596363-137.425454h130.792727a122.298182 122.298182 0 0 0 122.181819-122.181818v-443.345455a122.298182 122.298182 0 0 0-122.181819-122.181818z m-733.090909 629.527273a64.116364 64.116364 0 0 1-64-64v-443.345455a64.116364 64.116364 0 0 1 64-64h733.090909a64.116364 64.116364 0 0 1 64 64v443.345455a64.116364 64.116364 0 0 1-64 64H733.090909a29.090909 29.090909 0 0 0-24.785454 13.847272l-84.363637 137.425455h-221.090909L325.818182 628.363636a29.090909 29.090909 0 0 0-25.367273-14.778181zM513.629091 178.734545A170.356364 170.356364 0 1 0 683.985455 349.090909a170.589091 170.589091 0 0 0-170.356364-170.356364z m0 282.647273A112.174545 112.174545 0 1 1 625.803636 349.090909a112.290909 112.290909 0 0 1-112.174545 112.174546zM809.890909 552.727273m34.909091 0l0 0q34.909091 0 34.909091-34.909091l0 0q0-34.909091-34.909091-34.909091l0 0q-34.909091 0-34.909091 34.909091l0 0q0 34.909091 34.909091 34.909091Z"  horiz-adv-x="1024" />

    
    <glyph glyph-name="address" unicode="&#58914;" d="M853.33333333 514.88c-0.53333333-52.37333333-17.28-100.37333333-40-146.56-33.92-69.33333333-78.93333333-131.2-127.78666666-190.50666667-45.44-55.14666667-94.4-107.30666667-146.56-156.16-18.24-17.06666667-34.88-17.6-53.54666667-0.85333333-96.64 86.82666667-183.57333333 181.97333333-249.92 294.50666667-10.77333333 18.34666667-20.58666667 37.22666667-29.01333333 56.74666666-8 18.56-1.06666667 37.86666667 16.10666666 45.86666667 17.28 8 36.16 0.96 44.58666667-17.28 39.68-86.18666667 96.64-159.46666667 160-228.90666667 24.42666667-26.77333333 50.02666667-53.54666667 76.58666667-78.29333333 3.30666667-3.09333333 9.6-4.48 14.29333333 0.21333333 87.89333333 88.53333333 169.06666667 181.33333333 228.90666667 291.84C764.37333333 417.6 785.06666667 475.84 785.06666667 515.2c0 55.78666667-6.08 80.53333333-32.32 129.06666667-49.92 92.26666667-127.14666667 149.33333333-233.28 149.33333333-120.64 0-227.62666667-74.24-265.6-189.12-9.49333333-28.90666667-14.50666667-58.45333333-14.93333334-88.85333333-0.32-21.76-14.61333333-37.01333333-34.24-37.01333334-19.73333333 0-34.13333333 15.78666667-34.02666666 37.12 0.42666667 161.6 111.78666667 301.65333333 268.8 337.92C569.38666667 883.62666667 708.48 829.76 787.09333333 718.93333333c43.41333333-61.12 64.96-129.28 66.24-204.05333333zM512.53333333 657.06666667c-75.62666667 0.10666667-137.06666667-61.01333333-137.06666666-136.53333334 0-74.98666667 61.12-136.42666667 136-136.53333333 75.52-0.21333333 137.06666667 61.12 137.06666666 136.53333333 0 75.09333333-61.12 136.42666667-136 136.53333334z m0.64-204.8c-38.4-0.32-69.54666667 30.29333333-69.44 68.37333333 0.10666667 37.65333333 30.72 68.16 68.69333334 68.16 37.01333333 0 67.73333333-30.61333333 67.84-67.84 0.10666667-37.22666667-30.18666667-68.37333333-67.09333334-68.69333333zM989.86666667-59.73333333000005v0.42666666 1.06666667 0.64c0 0.42666667 0 0.74666667-0.10666667 1.17333333 0 0.21333333 0 0.42666667-0.10666667 0.53333334 0 0.32-0.10666667 0.64-0.10666666 1.06666666 0 0.21333333-0.10666667 0.42666667-0.10666667 0.74666667 0 0.21333333-0.10666667 0.53333333-0.10666667 0.74666667-0.10666667 0.32-0.10666667 0.64-0.21333333 1.06666666 0 0.10666667 0 0.21333333-0.10666667 0.32-0.96 4.16-2.56 8-4.90666666 11.41333334L848 194.88c-9.17333333 15.89333333-29.65333333 21.33333333-45.44 12.16l-1.49333333-0.85333333c-15.89333333-9.17333333-21.33333333-29.65333333-12.16-45.44L896.53333333-25.600000000000023h-769.06666666l106.98666666 185.28c9.38666667 16.21333333 3.73333333 37.22666667-12.48 46.61333333-16.21333333 9.38666667-37.22666667 3.73333333-46.61333333-12.48L38.72-42.66666667000004c-1.28-2.24-2.24-4.48-2.98666667-6.93333333v-0.10666667c-0.10666667-0.42666667-0.32-0.96-0.42666666-1.38666666 0-0.10666667-0.10666667-0.32-0.10666667-0.42666667-0.10666667-0.32-0.21333333-0.74666667-0.21333333-1.06666667 0-0.21333333-0.10666667-0.53333333-0.10666667-0.74666666 0-0.21333333-0.10666667-0.53333333-0.10666667-0.74666667-0.10666667-0.32-0.10666667-0.74666667-0.10666666-1.06666667 0-0.21333333 0-0.32-0.10666667-0.53333333 0-0.42666667-0.10666667-0.85333333-0.10666667-1.28v-0.21333333c-0.10666667-0.85333333-0.10666667-1.6-0.10666666-2.45333334 0-4.69333333 0.96-9.28 2.77333333-13.33333333 2.77333333-6.61333333 7.68-12.37333333 14.29333333-16.21333333 4.8-2.77333333 10.02666667-4.26666667 15.14666667-4.48h889.38666667c17.92 0 32.74666667 14.08 34.02666666 31.68v0.21333333 1.06666667 0.74666666c-0.10666667 0-0.10666667 0.10666667-0.10666666 0.21333334z"  horiz-adv-x="1024" />

    
    <glyph glyph-name="word" unicode="&#58956;" d="M767.41973333 857.39292445l-0.55978666-0.55978667v0.40504889H111.50222222c-40.21589333 0-72.81777778-32.60188445-72.81777777-72.81777778v-800.99555556c0-40.21703111 32.60188445-72.81777778 72.81777777-72.81777778h800.99555556c40.21589333 0 72.81777778 32.60074667 72.81777777 72.81777778v655.36h0.71338667L767.41973333 857.39292445z m-0.55978666-50.92807112L934.54108445 638.78257778H785.06439111c-10.05340445 0-18.20444445 8.14990222-18.20444444 18.20444444V806.46485333zM948.91804445-16.586524449999956c0-20.10794667-16.30094222-36.40888889-36.4088889-36.40888888H111.49084445c-20.10794667 0-36.40888889 16.30094222-36.4088889 36.40888888v801.01831112c0 20.10794667 16.30094222 36.40888889 36.4088889 36.40888888H730.45333333v-182.05582222c0-20.10794667 16.30094222-36.40888889 36.40888889-36.40888888h182.05582223v-618.9624889z m-327.19303112 293.8424889c-6.4-25.6-11.59281778-48.28615111-15.57390222-68.05390223-4.98005333 34.56-13.08672 71.46723555-24.32 110.72056889L537.03111111 478.21596445h-49.92l-59.52056889-211.2c-1.42336-5.12-6.11669333-24.39281778-14.08-57.81390223a1068.58268445 1068.58268445 0 0 1-13.22666667 64L352.71111111 478.21596445h-42.45390222l82.98723556-312.74666667h42.24l66.34723555 238.29390222c2.84330667 10.09664 5.90051555 22.32661333 9.17390222 36.69333333 0.99328-4.55338667 4.26666667-16.78336 9.81333333-36.69333333l65.9205689-238.29390222h39.89390222l85.76 312.74666667h-41.60056889l-49.06780445-200.96z"  horiz-adv-x="1024" />

    
    <glyph glyph-name="star_blank" unicode="&#58916;" d="M1015.48259555 509.02698667c-8.78819555 25.37699555-31.28206222 43.89774222-58.39985777 47.96302222l-263.94396445 39.26357333-114.77560888 238.24384c-12.05475555 25.04248889-37.89596445 41.05898667-66.34609778 41.05898667-28.35114667 0-54.19463111-16.01649778-66.29148445-41.05898667L330.95224889 596.25358222l-263.99288889-39.26357333c-27.12462222-4.06641778-49.61393778-22.58602667-58.40099555-47.96302222-8.74382222-25.37130667-2.13105778-53.34357333 17.0541511-72.43320889l193.39946667-193.25724445-44.88647111-267.96373333c-4.48967111-26.98353778 7.18051555-54.10247111 30.09877334-69.88686222 12.61454222-8.69489778 27.40451555-13.04348445 42.1933511-13.04348445a75.11950222 75.11950222 0 0 1 35.44064 8.88490667l230.11555556 123.94268445L742.18382222-98.67264c11.05237333-5.95057778 23.24593778-8.88490667 35.39057778-8.88490667a74.95338667 74.95338667 0 0 1 42.24227555 13.04348445c22.86933333 15.78552889 34.53610667 42.86008889 30.00206223 69.88686222L804.97777778 243.33653332999995l193.54055111 193.25724445c19.08963555 19.08963555 25.61137778 47.06190222 16.96426666 72.43320889zM765.66755555 294.50581333l-32.22869333-32.17408 7.46723556-44.89329778 44.83868444-267.44376888-231.86090667 124.74595555-41.90776888 22.58602667-41.91459556-22.58602667-231.91096889-124.79146667 44.84437333 267.48928 7.5116089 44.89329778-32.22300445 32.17408-191.84071111 191.46183112 263.13841778 39.0803911 46.30983111 6.89265778 20.31502222 42.15352889 115.76888889 240.12913778 115.76433778-240.12913778 20.36394666-42.15352889 46.25976889-6.89265778 263.13955556-39.0803911L765.66755555 294.50581333z"  horiz-adv-x="1024" />

    
    <glyph glyph-name="phone" unicode="&#58939;" d="M497.10852125 6.87976593999997m-37.48169813 0a37.48169813 37.48169813 0 1 1 74.96339625 0 37.48169813 37.48169813 0 1 1-74.96339625 0ZM825.07525625 110.07812624999997l-0.0009375 565.47607594V788.56808156c0 41.40134719-33.5611125 74.96339719-74.96339625 74.96339719h-506.00292844c-41.40134719 0-74.96339719-33.56205-74.96339625-74.96339719v-66.16269375h-0.0009375v-46.85212312h0.0009375v-565.47607594h-0.0009375v-46.85212312h0.0009375V-21.036602809999977c0-41.40134719 33.56205-74.96339719 74.96339625-74.96339719h506.00292844c41.40228375 0 74.96339719 33.56205 74.96339625 74.96339719v84.26260593h0.0009375v46.85212313zM215.99672 788.56808156c0 15.50055656 12.6107175 28.11127406 28.11127406 28.11127407h506.00292844c15.50055656 0 28.11127406-12.6107175 28.11127406-28.11127407v-66.16269375h-562.22547656V788.56808156z m0-113.01387937h562.22547656v-565.47607594h-562.22547656V675.5542021900001z m562.22547656-696.590805c0-15.50055656-12.6107175-28.11127406-28.11127406-28.11127406h-506.00292844c-15.50055656 0-28.11127406 12.6107175-28.11127406 28.11127406v84.26260594h562.22547656V-21.036602809999977z"  horiz-adv-x="1024" />

    
    <glyph glyph-name="export" unicode="&#58928;" d="M964.54549808 676.18618785a54.88033185 54.88033185 0 0 0 19.96906192-20.49820444c16.90586075-21.38415408 15.53445925-52.50404503-4.15061333-72.31290786l-192.96711112-194.18074073c-21.26279111-21.39386311-55.84152652-21.50308978-77.23538963-0.24272593-21.39386311 21.26279111-21.50308978 55.84152652-0.24272592 77.23538963l107.675648 108.35285333H754.72592592c-103.89155082 0-188.11259259-84.22104178-188.11259259-188.1125926v-162.62637036c0-30.16112355-24.45220978-54.61333333-54.61333333-54.61333334s-54.61333333 24.45220978-54.61333333 54.61333334v162.62637036c0 164.21622518 133.12303408 297.33925925 297.33925925 297.33925927h47.76846223l-93.66793482 93.66793481c-21.32832711 21.32832711-21.32832711 55.90706252 0 77.23538964 21.32832711 21.32832711 55.90706252 21.32832711 77.23538964 0l178.48365511-178.48365512zM805.14738252 188.60562962999995c-30.16112355 0-54.61333333 24.45220978-54.61333334 54.61333334s24.45220978 54.61333333 54.61333334 54.61333333H905.216c50.26853925 0 91.02222222-40.75368297 91.02222222-91.02222222v-218.45333333c0-50.26853925-40.75368297-91.02222222-91.02222222-91.02222223H116.35674075c-50.26853925 0-91.02222222 40.75368297-91.02222223 91.02222223v218.45333333c0 50.26853925 40.75368297 91.02222222 91.02222223 91.02222222h97.42533214c30.16112355 0 54.61333333-24.45220978 54.61333333-54.61333333s-24.45220978-54.61333333-54.61333333-54.61333334H134.56118518v-182.04444445h752.45037037v182.04444445h-81.86417303z"  horiz-adv-x="1024" />

    
    <glyph glyph-name="import" unicode="&#59062;" d="M557.51111147 318.48888853000005m-45.51111147 0l0 0q-45.51111147 0-45.51111147 45.51111147l0 455.11111147q0 45.51111147 45.51111147 45.5111104l0 0q45.51111147 0 45.51111147-45.5111104l0-455.11111147q0-45.51111147-45.51111147-45.51111147ZM739.5555552 546.0444448000001a45.51111147 45.51111147 0 0 0 0 91.02222187h45.51111147a182.0444448 182.0444448 0 0 0 182.0444448-182.0444448v-364.08888853a182.0444448 182.0444448 0 0 0-182.0444448-182.0444448H238.93333333a182.0444448 182.0444448 0 0 0-182.0444448 182.0444448V455.34080001a182.0444448 182.0444448 0 0 0 182.0444448 182.0444448h45.51111147a45.51111147 45.51111147 0 1 0 0-91.02222294H238.93333333a91.02222187 91.02222187 0 0 1-91.02222186-91.02222186V90.93333333999999a91.02222187 91.02222187 0 0 1 91.02222186-91.02222187h546.13333334a91.02222187 91.02222187 0 0 1 91.02222186 91.02222187v364.08888853a91.02222187 91.02222187 0 0 1-91.02222186 91.02222293h-45.51111147zM616.35697813 441.68746667a45.51111147 45.51111147 0 0 0 64.3527104-64.35271147l-136.53333333-136.53333333a45.51111147 45.51111147 0 0 0-64.3527104 1e-8l-136.53333333 136.53333332a45.51111147 45.51111147 0 0 0 64.3527104 64.35271147L512 337.33048853l104.35697813 104.35697814z"  horiz-adv-x="1024" />

    
    <glyph glyph-name="stop" unicode="&#59002;" d="M511.78666667 862.18666667c-264 0-477.97333333-213.97333333-477.97333334-477.97333334s213.97333333-477.97333333 477.97333334-477.97333333 477.97333333 213.97333333 477.97333333 477.97333333S775.78666667 862.18666667 511.78666667 862.18666667z m289.70666666-767.68c-37.65333333-37.65333333-81.49333333-67.2-130.24-87.78666667-50.45333333-21.33333333-104.10666667-32.21333333-159.46666666-32.21333333-55.36 0-109.01333333 10.77333333-159.46666667 32.21333333-48.74666667 20.58666667-92.58666667 50.13333333-130.24 87.78666667s-67.2 81.49333333-87.78666667 130.24c-21.33333333 50.45333333-32.21333333 104.10666667-32.21333333 159.46666666s10.77333333 109.01333333 32.21333333 159.46666667c20.58666667 48.74666667 50.13333333 92.58666667 87.78666667 130.24s81.49333333 67.2 130.24 87.78666667c50.45333333 21.33333333 104.10666667 32.21333333 159.46666667 32.21333333 55.36 0 109.01333333-10.77333333 159.46666666-32.21333333 48.74666667-20.58666667 92.58666667-50.13333333 130.24-87.78666667s67.2-81.49333333 87.78666667-130.24c21.33333333-50.45333333 32.21333333-104.10666667 32.21333333-159.46666667S910.61333333 275.20000000000005 889.28 224.74666666999997c-20.58666667-48.85333333-50.13333333-92.58666667-87.78666667-130.24z m-221.44 84.90666666h68.26666667v409.6h-68.26666667v-409.6z m-204.90666666 0h68.26666666v409.6h-68.26666666v-409.6z"  horiz-adv-x="1024" />

    
    <glyph glyph-name="user" unicode="&#58917;" d="M494.870476 388.364428c160.939766 0 291.404485 111.604041 291.404485 249.237064 0 137.664224-130.464718 249.229265-291.404485 249.229265-160.924166 0-291.412285-111.56504-291.396684-249.229265 0-137.633024 130.472518-249.237065 291.404485-249.237064zM628.455241 305.262006H385.59087c-207.888657 0-376.433535-144.122719-376.433535-321.910733v-20.779506c0-72.665868 168.544878-72.736069 376.433535-72.736069H628.455241c207.865256 0 376.402334 2.683239 376.402334 72.736069v20.771705c0 177.795814-168.521478 321.918533-376.402334 321.918534z"  horiz-adv-x="1032" />

    
    <glyph glyph-name="star-half" unicode="&#58920;" d="M488.69831111 873.33546667l-142.39921038-288.68203406c-3.88361443-7.76723001-10.35630592-12.94538297-19.41807332-14.2399215L8.42461184 522.51559481c-20.71261184-2.58907705-29.77438037-28.47984185-14.23992035-44.01430073l230.42781184-225.24966002c6.47269149-6.47269149 9.06176739-14.23992149 7.76723-23.30168889l-54.37060778-318.45641443c-3.88361443-20.71261184 18.12353593-37.54161038 37.54161038-27.18530333l284.79841962 150.16643926c3.88361443 1.29453853 7.76723001 2.58907705 11.65084445 2.58907704V887.57538816c-9.06176739 0-18.12353593-5.17815296-23.30168889-14.23992149zM523.65084445 31.88558962000002l284.79841962-150.16643925c19.41807445-10.35630592 41.42522482 6.47269149 37.54161038 27.18530446l-54.37060778 318.45641443c-1.29453853 7.76723001 1.29453853 16.82899741 7.76723 23.30168889L1029.81530851 477.20675555c15.53445888 14.23992149 6.47269149 40.13068629-14.23992035 44.01430074l-318.45641557 46.60337777c-7.76723001 1.29453853-15.53445888 6.47269149-19.41807332 14.23992149l-142.39921038 288.68203407c-5.17815296 10.35630592-14.23992149 14.23992149-23.30168889 14.23992149v-115.21390592L619.44667705 552.28997518c12.94538297-27.18530333 38.83614777-45.30883925 68.61052814-49.19245369l240.78411776-34.95253333-174.76266666-169.58451371c-20.71261184-20.71261184-31.0689189-51.78153074-25.8907648-80.26137372l41.42522481-239.48957924-214.89335296 112.62482888c-12.94538297 7.76723001-28.47984185 10.35630592-42.71976334 10.35630592V34.47466667000003c3.88361443 0 7.76723001 0 11.65084445-2.58907705z"  horiz-adv-x="1024" />

    
    <glyph glyph-name="scan" unicode="&#59272;" d="M110.69313539 539.34459259a38.83614815 38.83614815 0 0 0-77.67229629 0v134.89088831a188.74368 188.74368 0 0 0 188.74368 188.74368H356.65540741a38.83614815 38.83614815 0 0 0 0-77.67229629h-134.89088831a111.0713837 111.0713837 0 0 1-111.07138371-111.07138371V539.34459259zM667.34459259 785.30686461a38.83614815 38.83614815 0 0 0 0 77.67229629h134.89088831a188.74368 188.74368 0 0 0 188.74368-188.74368V539.34459259a38.83614815 38.83614815 0 0 0-77.67229629 0v134.89088831a111.0713837 111.0713837 0 0 1-111.07138371 111.07138371H667.34459259zM913.30686461 228.65540740999995a38.83614815 38.83614815 0 0 0 77.67229629 0v-134.89088831a188.74368 188.74368 0 0 0-188.74368-188.74368H667.34459259a38.83614815 38.83614815 0 0 0 0 77.67229629h134.89088831a111.0713837 111.0713837 0 0 1 111.07138371 111.07138371V228.65540740999995zM356.65540741-17.306864610000048a38.83614815 38.83614815 0 0 0 0-77.67229629h-134.89088831a188.74368 188.74368 0 0 0-188.74368 188.74368V228.65540740999995a38.83614815 38.83614815 0 0 0 77.67229629 0v-134.89088831a111.0713837 111.0713837 0 0 1 111.07138371-111.07138371H356.65540741z m-233.01688889 362.47071646a38.83614815 38.83614815 0 0 0 0 77.6722963h776.72296296a38.83614815 38.83614815 0 0 0 0-77.6722963H123.63851852z"  horiz-adv-x="1024" />

    
    <glyph glyph-name="sound" unicode="&#59324;" d="M404.15687111 41.173902219999945l-181.46190222 139.95576889a53.32688555 53.32688555 0 0 1-28.88438556 8.34977223H123.6385189a97.09036999 97.09036999 0 0 0-97.09037113 97.09036999v194.86037334a97.09036999 97.09036999 0 0 0 97.09037113 97.09036999h70.19633777c10.38867001 0 20.53461333 2.93698333 28.86011222 8.34977223l181.46190222 139.95576889A97.09036999 97.09036999 0 0 0 560.54518557 649.95479666v-531.90959332a97.09036999 97.09036999 0 0 0-156.38831446-76.87130112zM463.45481443 93.77260998999998a24.27259221 24.27259221 0 0 1 24.27259336 24.27259335V649.95479666a24.27259221 24.27259221 0 0 1-39.07887446 19.22389333l-181.48617443-139.9800411a72.81777778 72.81777778 0 0 0-4.80597333-3.39816334 126.02330112 126.02330112 0 0 0-68.5215289-20.09770667H123.6385189a24.27259221 24.27259221 0 0 1-24.27259335-24.27259221v-194.86037334a24.27259221 24.27259221 0 0 1 24.27259335-24.27259221h70.19633777c24.27259221 0 48.2296411-6.9419611 68.49725554-20.07343445a72.81777778 72.81777778 0 0 0 4.83024669-3.42243556l181.46190222-139.9800411a24.27259221 24.27259221 0 0 1 14.83055331-5.04870002z m386.85658112-5.19433444a36.40888889 36.40888889 0 0 0-45.53538332 56.84641224C871.88972999 199.16420778999998 912.49777778 287.27371889999995 912.49777778 384c0 94.42038557-41.62749667 184.32606777-107.94021888 238.89085667a36.40888889 36.40888889 0 1 0 46.2635611 56.21532445C934.10038557 610.5846522300001 985.31555555 499.97444779 985.31555555 384c0-118.45025223-50.31708445-227.57982777-135.00416-295.39745223z m-122.69795555 120.34351446a36.40888889 36.40888889 0 1 0-42.8653989 58.88530887C720.86565888 294.09431666 742.58963001 336.91116998999996 742.58963001 384a147.01909333 147.01909333 0 0 1-58.13286002 116.48417223 36.40888889 36.40888889 0 1 0 43.61784889 58.30276665A219.8125989 219.8125989 0 0 0 815.40740779 384c0-70.29342777-32.84081778-135.05270557-87.79396779-175.07820999z"  horiz-adv-x="1024" />

    
    <glyph glyph-name="search" unicode="&#58923;" d="M992-39.46875L741.5 211.03125c56.4375 69 90.46875 157.03125 90.46875 252.9375C831.96875 684.5625 652.53125 864 432.03125 864S32 684.5625 32 463.96875s179.4375-400.03125 400.03125-400.03125c95.90625 0 184.03125 34.03125 252.9375 90.46875L935.46875-96l56.53125 56.53125zM432.03125 144C255.59375 144 111.96875 287.53125 111.96875 463.96875S255.59375 784.03125 432.03125 784.03125 752 640.40625 752 463.96875 608.46875 144 432.03125 144z"  horiz-adv-x="1024" />

    
    <glyph glyph-name="code" unicode="&#59122;" d="M547.36678517 679.07705363l74.90198521-20.55726816-160.67809068-585.5455502-74.90198399 20.55726695 160.67808946 585.54555141zM289.90901453 642.90765392l54.47417006-55.35445569-212.82209184-209.45629275 212.43373036-203.37196207-53.72333867-56.10528949L20.07545719 377.32018252 289.90901453 642.90765392z m431.90974813 0l269.83355733-265.5874714L721.45629275 118.61965392000002l-53.72333867 56.10528949 212.40784 203.37196207L667.34459259 587.55319823 721.81876266 642.90765392z"  horiz-adv-x="1024" />

    
    <glyph glyph-name="copy" unicode="&#59123;" d="M600.37381268 560.74762534a88.37381268 88.37381268 0 0 0 88.37381266-88.37381266v-471.32700049a88.37381268 88.37381268 0 0 0-88.37381266-88.37381266H129.04681219a88.37381268 88.37381268 0 0 0-88.37381266 88.37381266V472.37381268a88.37381268 88.37381268 0 0 0 88.37381266 88.37381266h471.32700049z m0-88.37381266H129.04681219v-471.32700049h471.32700049V472.37381268z m-88.37381268-265.12143802v-88.37381269H217.42062487v88.37381269h294.57937513zM894.95318781 855.32700047a88.37381268 88.37381268 0 0 0 88.37381266-88.37381266v-471.32700049a88.37381268 88.37381268 0 0 0-88.37381266-88.37381266h-147.28968688v88.37381266h147.28968688V766.95318781H423.62618732v-147.28968688h-88.37381266v147.28968688a88.37381268 88.37381268 0 0 0 88.37381266 88.37381266h471.32700049zM512 354.54206291v-88.37381268H217.42062487v88.37381268h294.57937513z"  horiz-adv-x="1024" />

    
    <glyph glyph-name="dollar" unicode="&#59124;" d="M560.6409465 878.89335097v-98.1617029l6.6928434-1.00549809c41.47677609-6.19009509 75.09810263-18.82165873 101.24103982-38.02037759 23.06360173-16.96777203 45.24739209-42.01094717 66.55137252-74.97241592l4.71327002-7.22701304-91.75165571-47.82398067-3.89630418 5.84445482c-32.23876687 48.38957161-73.62127755 72.64720224-123.77047044 72.64720222-33.71559196 0-61.93236793-9.48938411-84.21042368-28.21677596-22.78080553-19.16729755-34.28118436-43.26781869-34.28118435-71.89307903 0-26.08009454 9.45796132-48.13819819 28.02824662-65.48303182 15.08246403-14.07696593 42.89075709-30.07066266 84.46179857-48.51525833l31.73601708-13.69990579c38.11464298-16.59071043 69.59928663-32.01881476 94.76814998-46.44141953 27.90255844-16.08796212 48.79805597-31.45322237 62.52938164-45.97009397 39.65431217-39.90568558 59.32435803-87.66682217 59.32435801-144.03753149 0-55.4908994-17.84758194-104.35179801-53.54274729-146.77122808-35.34952507-42.2623206-82.76502137-70.69905013-142.34075429-85.53013927l-5.97014152-1.47682511v-103.03208239h-79.24578026v100.64402608l-6.66142062 1.0369194c-69.25364782 10.6205689-122.04227193 32.74151516-158.0516548 66.36284174-33.30710756 31.10758207-58.60165762 78.11459545-75.91506846 140.86392918l-2.2623696 8.16966852 104.3203752 20.36132643 2.23094831-6.44146999c15.93085264-45.87582859 35.06672886-79.18293616 57.21909792-99.85848011 26.39431205-22.56085195 60.83260443-33.77843458 103.81762692-33.77843457 41.75957228 0 76.79487983 12.66298493 105.0116558 37.89469087 28.05966796 25.23170594 42.2308993 57.9417998 42.23089927 97.53326641 0 35.60089996-11.94028452 64.47753373-35.44379046 86.09573315-11.62606554 10.24350732-28.34246416 21.46108993-51.2175336 34.40687109a797.3281761 797.3281761 0 0 1-72.01876576 35.19241556l-23.25213253 9.9921324c-62.90644323 27.21127935-104.823125 52.16018762-124.71312444 74.34397946-33.99838817 35.63232127-50.84047201 77.76895517-50.84047202 127.10118076 0 23.28355383 3.95914682 44.96459588 11.94028452 65.13739153a181.39805127 181.39805127 0 0 0 34.59540186 54.48540131c14.98819862 16.08796212 33.71559196 30.38488017 55.96222494 42.67080497 22.08952495 11.94028452 47.69829249 21.46108993 76.73203574 28.56241625l5.970143 1.47682362V878.89335097h79.30862287z"  horiz-adv-x="1024" />

    
    <glyph glyph-name="history" unicode="&#59128;" d="M512 870.05596972c268.45018542 0 486.05596972-217.60578428 486.05596972-486.05596972S780.45018542-102.05596972000001 512-102.05596972000001l-3.50549503 0.14729017c-126.31563579 10.04515716-228.85871735 52.58241855-305.77339186 127.02262629L202.69165565-72.59803262000003h-88.37381268V207.25237466H364.71031175v-88.37381269h-128.20094333c63.86480909-78.59377695 155.33170521-122.51556183 277.22865035-132.560719l9.22033401 0.14729014C737.52996995-7.731654100000014 909.68215703 168.04385931000002 909.68215703 384c0 219.63838197-178.04377507 397.68215703-397.68215703 397.68215703S114.31784297 603.63838197 114.31784297 384h-88.37381269c0 268.45018542 217.60578428 486.05596972 486.05596972 486.05596972zM453.08412443 649.12143803h88.37381266v-220.93453169h220.9345317v-88.37381268H453.08412443V649.12143803z"  horiz-adv-x="1024" />

    
    <glyph glyph-name="data" unicode="&#59129;" d="M456.76636665 850.28232912v-83.56848704c-187.38010012-26.78831153-331.40179753-187.93243558-331.40179753-382.71384208 0-213.53322445 173.10220514-386.63543088 386.63543088-386.63543088 194.7814065 0 355.92553055 144.02169741 382.71384208 331.40179753h83.56848704c-27.3406483-233.2516314-225.68462412-414.25224691-466.28232912-414.25224692-259.29429019 0-469.48588027 210.19159008-469.48588027 469.48588027 0 240.59770501 181.00061552 438.94168083 414.25224692 466.28232912zM512 853.48588027c256.28405633 0 464.65293652-205.38626402 469.40302981-460.56564812L981.48588027 384H512V853.48588027z m82.85044939-91.74306516V466.85044939h294.89236572a387.18776635 387.18776635 0 0 1-285.94451719 292.8211045L594.85044939 761.74281511z"  horiz-adv-x="1024" />

    
    <glyph glyph-name="gift" unicode="&#59130;" d="M615.86684714 853.48588027l8.78214764-0.13808452a143.8836142 143.8836142 0 0 0 124.10997317-205.0824786h172.27370066a82.85044939 82.85044939 0 0 0 82.85044937-82.85044938v-98.12254975a82.85044939 82.85044939 0 0 0-82.85044937-82.85044939h-5.10911148v-386.22117734a82.85044939 82.85044939 0 0 0-82.85044939-82.85044939h-625.79706057a82.85044939 82.85044939 0 0 0-82.85044939 82.85044939l-0.02761638 386.22117734H119.28886992a82.85044939 82.85044939 0 0 0-82.85044939 82.85044939v98.12254975a82.85044939 82.85044939 0 0 0 82.85044939 82.85044938h158.46529329a143.8836142 143.8836142 0 0 0 124.10997317 205.110095L410.64628402 853.48588027a146.09295865 146.09295865 0 0 0 102.59647273-41.92232738A146.03772588 146.03772588 0 0 0 615.86684714 853.48588027z m-139.68585766-469.04401164h-268.9325587v-386.22117734l268.9325587 0.02761639V384.44186863z m356.89211826 0h-268.93255869v-386.19356095h268.93255869V384.41425225zM476.18098948 565.4424841499999H119.28886992v-98.15016613h5.0814938v2.51313116l351.78300808 0.02761639V565.4424841499999z m444.85167913 0H564.14054905v-95.60941858l351.78300808-0.02761639v-2.51313116h5.10911148v98.12254975zM410.64628402 770.6354308800001h-2.70644845a61.03316481 61.03316481 0 0 1 0-122.06632961h61.30933255v58.32671635c0 7.1803727 0.55233676 14.22266092 1.51892448 21.09924821A63.71199557 63.71199557 0 0 1 410.67390041 770.6354308800001z m207.89939388 0h-2.70644844a63.76722963 63.76722963 0 0 1-60.14942625-42.66798143c1.02182178-6.84897091 1.51892447-13.8912591 1.51892576-21.07163183v-58.32671635h61.30933256a61.03316481 61.03316481 0 0 1 60.89508028 56.66970737l0.16570091 4.36345744c0 33.69251651-27.3406483 61.03316481-61.03316482 61.0331648z"  horiz-adv-x="1024" />

    
    <glyph glyph-name="integral" unicode="&#59131;" d="M37.13804702 232.88078031999999l166.73192565-80.0372168 308.30677496-149.32228457 297.3189633 144.04931467 177.80811111 85.16289656a88.37381268 88.37381268 0 0 0-41.35894433-117.33096438l-395.23714776-191.41767826a88.37381268 88.37381268 0 0 0-77.06196465 0L78.40861754 115.40252580000003A88.37381268 88.37381268 0 0 0 37.13804702 232.88078031999999z m949.7828223 184.93693245a88.37381268 88.37381268 0 0 0-40.97599161-118.12633006L550.67827247 108.27370444999997a88.37381268 88.37381268 0 0 0-77.06196464 0L78.40861754 299.69138270999997A88.37381268 88.37381268 0 0 0 35.37057076 413.16335819l437.74495166-206.4706839 39.06122521-18.91199591 395.23714775 191.41767826-0.20620511 0.08837381 79.71317905 38.50152347zM550.70772995 834.4413231999999l395.20769028-191.38822077a88.37381268 88.37381268 0 0 0 0-159.07286282l-395.20769028-191.41767826a88.37381268 88.37381268 0 0 0-77.06196465 0L78.40861754 483.98023961a88.37381268 88.37381268 0 0 0 0 159.07286282L473.6457653 834.41186573a88.37381268 88.37381268 0 0 0 77.06196465 0z m-38.53098232-79.53643141l-395.23714777-191.38822077 395.23714777-191.41767825 395.23714775 191.41767825-395.23714775 191.38822077z"  horiz-adv-x="1024" />

    
    <glyph glyph-name="play" unicode="&#59137;" d="M512 853.48588027c259.29429019 0 469.48588027-210.19159008 469.48588027-469.48588027s-210.19159008-469.48588027-469.48588027-469.48588027S42.51411973 124.70570981000003 42.51411973 384 252.70570981 853.48588027 512 853.48588027z m0-82.85044939c-213.53322445 0-386.63543088-173.10220514-386.63543088-386.63543088s173.10220514-386.63543088 386.63543088-386.63543088 386.63543088 173.10220514 386.63543088 386.63543088-173.10220514 386.63543088-386.63543088 386.63543088z m-82.85044939-182.93379223a55.23363335 55.23363335 0 0 0 29.43952592-8.5059799l228.52915708-143.99408103a55.23363335 55.23363335 0 0 0 0.41425225-93.17913917l-228.52915708-146.83861268A55.23363335 55.23363335 0 0 0 373.91591727 241.63531158v290.80507734a55.23363335 55.23363335 0 0 0 55.23363334 55.23363205z m27.61681604-105.27530478v-190.19701541l149.46221068 96.02367084L456.76636665 482.42633387z"  horiz-adv-x="1024" />

    
    <glyph glyph-name="QRcode" unicode="&#59140;" d="M484.28008029 356.28008029V-87.32700047000003H40.67299953V356.28008029h443.60708076zM629.83174977 1.0468121899999687v-88.37381266h-88.37381268v88.37381266h88.37381268z m353.4952507 117.83174978v-206.20556244h-176.74762534v88.37381266h88.37381268v117.83174978h88.37381266z m-587.42073285 149.02770565H129.04681219V1.0468121899999687h266.85945543v266.85945543zM718.20556244 266.16825023v-176.74762536h88.37381269v-88.37381268h-176.74762536v265.12143804h88.37381267z m-382.95318778-58.91587557v-147.28968826h-147.28968826v147.28968826h147.28968826z m559.70081315 0v-88.37381269h-88.37381268v88.37381269h88.37381268z m88.37381266 147.28968825v-147.28968825h-88.37381266v58.91587557h-88.37381268v88.37381268h176.74762534z m-353.4952507 0v-88.37381268h-88.37381268v88.37381268h88.37381268zM484.28008029 855.32700047v-443.60708076H40.67299953V855.32700047h443.60708076zM983.32700047 855.32700047v-443.60708076H539.71991971V855.32700047H983.32700047z m-587.42073285-88.37381266H129.04681219v-266.85945543h266.85945543V766.95318781zM894.95318781 766.95318781h-266.85945543v-266.85945543H894.95318781V766.95318781z m-559.70081315-58.91587421v-147.28968826h-147.28968826v147.28968826h147.28968826z m500.78493894 0v-147.28968826h-147.28968826v147.28968826h147.28968826z"  horiz-adv-x="1024" />

    
    <glyph glyph-name="add" unicode="&#59202;" d="M512 853.48588027c259.29429019 0 469.48588027-210.19159008 469.48588027-469.48588027s-210.19159008-469.48588027-469.48588027-469.48588027S42.51411973 124.70570981000003 42.51411973 384 252.70570981 853.48588027 512 853.48588027z m0-82.85044939c-213.53322445 0-386.63543088-173.10220514-386.63543088-386.63543088s173.10220514-386.63543088 386.63543088-386.63543088 386.63543088 173.10220514 386.63543088 386.63543088-173.10220514 386.63543088-386.63543088 386.63543088z m41.42522469-138.08408273v-207.12612346H760.55134815v-82.85044938h-207.12612346V135.44865185000003h-82.85044938v207.15373985L263.44865185 342.57477530999995v82.85044938l207.12612346 0.02761639V632.55134815h82.85044938z"  horiz-adv-x="1024" />

    
    <glyph glyph-name="atm" unicode="&#59209;" d="M140.69190225 853.40302981L143.3983507 853.48588027c2.92738211-0.05523407 5.41289559-0.27616773 7.89840908-0.77327173l3.86635473-0.93897132 5.13672786-1.21514036c30.93083402-8.00887721 90.85932659-34.49340333 126.59548666-59.0999868a470.8943379 470.8943379 0 0 0 224.80088555 57.55344594c259.04573884 0 469.78966438-209.61163694 469.78966569-467.27653452C981.48588027 124.12575668 770.74195342-85.48588027000005 511.72383227-85.48588027000005 248.61842142-85.48588027000005 42.51411973 124.76094388000001 42.51411973 393.14116581c0 19.60794012 9.74873665 106.18665972 18.36518338 130.46184139 2.34742897 11.21242705 16.26630447 66.55652724 69.53914342 133.99679305 1.93317671 26.15312562 4.69485923 92.93058782-18.39279977 140.68006305a43.99358862 43.99358862 0 0 0-3.17593346 12.70373643l-0.3314018 3.97682158-0.38663585 3.45210119a32.80877795 32.80877795 0 0 0 6.24140137 20.38121055 35.3495255 35.3495255 0 0 0 25.07606849 14.5816791l1.24275674 0.02761766 2.70644845 0.08285046zM512 770.6354308800001c-85.97115007 0-165.42473103-28.05868595-229.57859523-75.47675938-12.0961656 8.64406311-24.30279805 16.95672574-36.59228225 24.96560165-15.32733314 9.94205392-27.06448057 16.92910806-35.21144098 20.96116368 2.84453167-16.45962305 4.2529893-30.01947906 4.25299058-40.70718703 0-9.96967031-1.24275675-32.75354388-3.70065383-68.29638797l-0.38663587-5.66144693A385.00603828 385.00603828 0 0 1 125.36456912 384c0-213.53322445 173.10220514-386.63543088 386.63543088-386.63543088s386.63543088 173.10220514 386.63543088 386.63543088-173.10220514 386.63543088-386.63543088 386.63543088z m-13.80840865-220.93453212a41.42522469 41.42522469 0 0 0 41.42522467-41.42522468v-82.85044939a41.42522469 41.42522469 0 0 0-82.85044937 0v82.85044939a41.42522469 41.42522469 0 0 0 41.4252247 41.42522468z m220.93453212 0a41.42522469 41.42522469 0 0 0 41.42522468-41.42522468v-82.85044939a41.42522469 41.42522469 0 0 0-82.85044939 0v82.85044939a41.42522469 41.42522469 0 0 0 41.42522471 41.42522468zM190.65072322 825.5928952c0.11046684-1.02182178 0.19331728-2.01602717 0.24855136-3.03785023l0.24855135-1.85032627-0.27616774 4.4186902-0.22093497 0.4694863z"  horiz-adv-x="1024" />

    
    </font>
</defs>
</svg>
